<svg width="229" height="229" viewBox="0 0 229 229" fill="none" xmlns="http://www.w3.org/2000/svg">
<path fill-rule="evenodd" clip-rule="evenodd" d="M114.5 229C177.737 229 229 177.737 229 114.5C229 51.2634 177.737 0 114.5 0C51.2634 0 0 51.2634 0 114.5C0 177.737 51.2634 229 114.5 229ZM167.331 112.411C175.456 112.411 181.594 110.035 181.594 103.618L197 100.636C197 117.238 178.736 122.537 174.636 123.361V177.17H129.909V153.812H100.091V177.17H55.3636V123.361C42.5418 120.77 33 111.704 33 100.754L48.4061 103.618C48.4061 110.035 54.5436 112.411 62.6691 112.411H167.331ZM66.6286 96.2271V104.612H165.36V96.2271C169.885 95.1974 190.043 88.5778 190.043 67.8362C190.043 75.8534 166.265 82.5465 157.297 82.5465H74.6917C65.7236 82.5465 41.9458 76.0005 41.9458 67.9833C41.9458 81.5904 52.4771 92.9909 66.6286 96.2271ZM83.6906 74.7939L116.491 41L149.291 74.7939H83.6906Z" fill="white"/>
</svg>
