<svg width="164" height="160" viewBox="0 0 164 160" fill="none" xmlns="http://www.w3.org/2000/svg">
<path d="M82 0L153.014 40V120L82 160L10.9859 120V40L82 0Z" fill="url(#paint0_radial_3020_2)"/>
<g filter="url(#filter0_d_3020_2)">
<path d="M38.3182 102.636C35.2879 102.636 32.5758 102.068 30.1818 100.932C27.7879 99.7803 25.8864 98.2045 24.4773 96.2045C23.0833 94.2045 22.3409 91.9167 22.25 89.3409H30.4318C30.5833 91.25 31.4091 92.8106 32.9091 94.0227C34.4091 95.2197 36.2121 95.8182 38.3182 95.8182C39.9697 95.8182 41.4394 95.4394 42.7273 94.6818C44.0152 93.9242 45.0303 92.8712 45.7727 91.5227C46.5152 90.1742 46.8788 88.6364 46.8636 86.9091C46.8788 85.1515 46.5076 83.5909 45.75 82.2273C44.9924 80.8636 43.9545 79.7955 42.6364 79.0227C41.3182 78.2348 39.803 77.8409 38.0909 77.8409C36.697 77.8258 35.3258 78.0833 33.9773 78.6136C32.6288 79.1439 31.5606 79.8409 30.7727 80.7045L23.1591 79.4545L25.5909 55.4545H52.5909V62.5H32.5682L31.2273 74.8409H31.5C32.3636 73.8258 33.5833 72.9848 35.1591 72.3182C36.7348 71.6364 38.4621 71.2955 40.3409 71.2955C43.1591 71.2955 45.6742 71.9621 47.8864 73.2955C50.0985 74.6136 51.8409 76.4318 53.1136 78.75C54.3864 81.0682 55.0227 83.7197 55.0227 86.7045C55.0227 89.7803 54.3106 92.5227 52.8864 94.9318C51.4773 97.3258 49.5152 99.2121 47 100.591C44.5 101.955 41.6061 102.636 38.3182 102.636ZM79.8409 102.886C76.0985 102.886 72.8864 101.939 70.2045 100.045C67.5379 98.1364 65.4848 95.3864 64.0455 91.7955C62.6212 88.1894 61.9091 83.8485 61.9091 78.7727C61.9242 73.697 62.6439 69.3788 64.0682 65.8182C65.5076 62.2424 67.5606 59.5152 70.2273 57.6364C72.9091 55.7576 76.1136 54.8182 79.8409 54.8182C83.5682 54.8182 86.7727 55.7576 89.4545 57.6364C92.1364 59.5152 94.1894 62.2424 95.6136 65.8182C97.053 69.3939 97.7727 73.7121 97.7727 78.7727C97.7727 83.8636 97.053 88.2121 95.6136 91.8182C94.1894 95.4091 92.1364 98.1515 89.4545 100.045C86.7879 101.939 83.5833 102.886 79.8409 102.886ZM79.8409 95.7727C82.75 95.7727 85.0455 94.3409 86.7273 91.4773C88.4242 88.5985 89.2727 84.3636 89.2727 78.7727C89.2727 75.0758 88.8864 71.9697 88.1136 69.4545C87.3409 66.9394 86.25 65.0455 84.8409 63.7727C83.4318 62.4848 81.7652 61.8409 79.8409 61.8409C76.947 61.8409 74.6591 63.2803 72.9773 66.1591C71.2955 69.0227 70.447 73.2273 70.4318 78.7727C70.4167 82.4848 70.7879 85.6061 71.5455 88.1364C72.3182 90.6667 73.4091 92.5758 74.8182 93.8636C76.2273 95.1364 77.9015 95.7727 79.8409 95.7727ZM122.528 102.886C118.786 102.886 115.574 101.939 112.892 100.045C110.225 98.1364 108.172 95.3864 106.733 91.7955C105.309 88.1894 104.597 83.8485 104.597 78.7727C104.612 73.697 105.331 69.3788 106.756 65.8182C108.195 62.2424 110.248 59.5152 112.915 57.6364C115.597 55.7576 118.801 54.8182 122.528 54.8182C126.256 54.8182 129.46 55.7576 132.142 57.6364C134.824 59.5152 136.877 62.2424 138.301 65.8182C139.741 69.3939 140.46 73.7121 140.46 78.7727C140.46 83.8636 139.741 88.2121 138.301 91.8182C136.877 95.4091 134.824 98.1515 132.142 100.045C129.475 101.939 126.271 102.886 122.528 102.886ZM122.528 95.7727C125.438 95.7727 127.733 94.3409 129.415 91.4773C131.112 88.5985 131.96 84.3636 131.96 78.7727C131.96 75.0758 131.574 71.9697 130.801 69.4545C130.028 66.9394 128.938 65.0455 127.528 63.7727C126.119 62.4848 124.453 61.8409 122.528 61.8409C119.634 61.8409 117.347 63.2803 115.665 66.1591C113.983 69.0227 113.134 73.2273 113.119 78.7727C113.104 82.4848 113.475 85.6061 114.233 88.1364C115.006 90.6667 116.097 92.5758 117.506 93.8636C118.915 95.1364 120.589 95.7727 122.528 95.7727Z" fill="white"/>
</g>
<defs>
<filter id="filter0_d_3020_2" x="18.25" y="54.8184" width="128.21" height="60.0684" filterUnits="userSpaceOnUse" color-interpolation-filters="sRGB">
<feFlood flood-opacity="0" result="BackgroundImageFix"/>
<feColorMatrix in="SourceAlpha" type="matrix" values="0 0 0 0 0 0 0 0 0 0 0 0 0 0 0 0 0 0 127 0" result="hardAlpha"/>
<feOffset dx="1" dy="7"/>
<feGaussianBlur stdDeviation="2.5"/>
<feComposite in2="hardAlpha" operator="out"/>
<feColorMatrix type="matrix" values="0 0 0 0 0 0 0 0 0 0 0 0 0 0 0 0 0 0 0.37 0"/>
<feBlend mode="normal" in2="BackgroundImageFix" result="effect1_dropShadow_3020_2"/>
<feBlend mode="normal" in="SourceGraphic" in2="effect1_dropShadow_3020_2" result="shape"/>
</filter>
<radialGradient id="paint0_radial_3020_2" cx="0" cy="0" r="1" gradientUnits="userSpaceOnUse" gradientTransform="translate(82 80) rotate(90) scale(80 82)">
<stop stop-color="#FFE454"/>
<stop offset="1" stop-color="#FF912C"/>
</radialGradient>
</defs>
</svg>
