<svg width="15" height="16" viewBox="0 0 15 16" fill="none" xmlns="http://www.w3.org/2000/svg">
<g clip-path="url(#clip0_2925_3)">
<path d="M1 6.99981C0.4477 6.99981 0 7.44753 0 7.99981C0 8.55209 0.4477 8.99981 1 8.99981V6.99981ZM14.7071 8.70692C15.0976 8.31639 15.0976 7.68323 14.7071 7.2927L8.34315 0.928708C7.95262 0.538208 7.31946 0.538208 6.92893 0.928708C6.53841 1.31931 6.53841 1.95241 6.92893 2.34291L12.5858 7.99981L6.92893 13.6567C6.53841 14.0472 6.53841 14.6803 6.92893 15.0709C7.31946 15.4614 7.95262 15.4614 8.34315 15.0709L14.7071 8.70692ZM1 8.99981H14V6.99981H1V8.99981Z" fill="white"/>
</g>
<defs>
<clipPath id="clip0_2925_3">
<rect width="15" height="16" fill="white" transform="translate(15 16) rotate(180)"/>
</clipPath>
</defs>
</svg>
