<svg width="13" height="7" viewBox="0 0 13 7" fill="none" xmlns="http://www.w3.org/2000/svg">
<path d="M6.6847 6.62342C6.49158 6.6238 6.30442 6.55654 6.15572 6.43332L1.19654 2.30066C1.02774 2.16037 0.921597 1.95877 0.901447 1.74021C0.881296 1.52166 0.948792 1.30405 1.08909 1.13526C1.22938 0.966464 1.43098 0.860318 1.64954 0.840167C1.86809 0.820017 2.0857 0.887512 2.25449 1.02781L6.6847 4.73066L11.1149 1.16005C11.1994 1.0914 11.2967 1.04012 11.4011 1.00919C11.5056 0.978248 11.6151 0.968252 11.7234 0.979773C11.8317 0.991294 11.9366 1.0241 12.0322 1.07632C12.1278 1.12853 12.2121 1.19912 12.2803 1.28403C12.356 1.36902 12.4133 1.46872 12.4487 1.57689C12.4841 1.68506 12.4967 1.79937 12.4859 1.91266C12.475 2.02594 12.4409 2.13577 12.3856 2.23525C12.3303 2.33472 12.2551 2.42171 12.1646 2.49077L7.20541 6.48291C7.05243 6.58665 6.8691 6.63612 6.6847 6.62342Z" fill="#FFF"/>
</svg>
