<svg width="50" height="50" viewBox="0 0 50 50" fill="none" xmlns="http://www.w3.org/2000/svg">
<path d="M44.3652 28.5625C44.3652 28.6471 44.3568 28.7064 44.3398 28.7402C43.2565 33.2767 40.9883 36.9541 37.5352 39.7725C34.082 42.5908 30.0365 44 25.3984 44C22.9271 44 20.5361 43.5345 18.2256 42.6035C15.915 41.6725 13.8542 40.3438 12.043 38.6172L8.76758 41.8926C8.44596 42.2142 8.0651 42.375 7.625 42.375C7.1849 42.375 6.80404 42.2142 6.48242 41.8926C6.16081 41.571 6 41.1901 6 40.75V29.375C6 28.9349 6.16081 28.554 6.48242 28.2324C6.80404 27.9108 7.1849 27.75 7.625 27.75H19C19.4401 27.75 19.821 27.9108 20.1426 28.2324C20.4642 28.554 20.625 28.9349 20.625 29.375C20.625 29.8151 20.4642 30.196 20.1426 30.5176L16.6641 33.9961C17.8659 35.1133 19.2285 35.9766 20.752 36.5859C22.2754 37.1953 23.8581 37.5 25.5 37.5C27.7682 37.5 29.8841 36.9499 31.8477 35.8496C33.8112 34.7493 35.3854 33.2344 36.5703 31.3047C36.7565 31.0169 37.2051 30.0267 37.916 28.334C38.0514 27.9447 38.3053 27.75 38.6777 27.75H43.5527C43.7728 27.75 43.9632 27.8304 44.124 27.9912C44.2848 28.152 44.3652 28.3424 44.3652 28.5625ZM45 8.25V19.625C45 20.0651 44.8392 20.446 44.5176 20.7676C44.196 21.0892 43.8151 21.25 43.375 21.25H32C31.5599 21.25 31.179 21.0892 30.8574 20.7676C30.5358 20.446 30.375 20.0651 30.375 19.625C30.375 19.1849 30.5358 18.804 30.8574 18.4824L34.3613 14.9785C31.8561 12.6595 28.9023 11.5 25.5 11.5C23.2318 11.5 21.1159 12.0501 19.1523 13.1504C17.1888 14.2507 15.6146 15.7656 14.4297 17.6953C14.2435 17.9831 13.7949 18.9733 13.084 20.666C12.9486 21.0553 12.6947 21.25 12.3223 21.25H7.26953C7.04948 21.25 6.85905 21.1696 6.69824 21.0088C6.53743 20.848 6.45703 20.6576 6.45703 20.4375V20.2598C7.55729 15.7233 9.84245 12.0459 13.3125 9.22754C16.7826 6.40918 20.8451 5 25.5 5C27.9714 5 30.375 5.46973 32.7109 6.40918C35.0469 7.34863 37.1204 8.67318 38.9316 10.3828L42.2324 7.10742C42.554 6.78581 42.9349 6.625 43.375 6.625C43.8151 6.625 44.196 6.78581 44.5176 7.10742C44.8392 7.42904 45 7.8099 45 8.25Z" fill="url(#paint0_linear_1966_1256)"/>
<defs>
<linearGradient id="paint0_linear_1966_1256" x1="11.9348" y1="10.9348" x2="32.2826" y2="44" gradientUnits="userSpaceOnUse">
<stop stop-color="#6500B4"/>
<stop offset="1" stop-color="#B02FFF"/>
</linearGradient>
</defs>
</svg>
