<svg id="Onii" xmlns="http://www.w3.org/2000/svg" xmlns:xlink="http://www.w3.org/1999/xlink" width="419.9" height="420" viewBox="0 0 419.9 420">
  <defs>
    <radialGradient id="radial-gradient" cx="210.45" cy="1593.6" r="209.97" gradientTransform="translate(0 -1384)" gradientUnits="userSpaceOnUse">
      <stop offset="0" stop-color="#634363"/>
      <stop offset="1" stop-color="#04061c"/>
    </radialGradient>
  </defs>
  <g id="Background_8" data-name="Background 8">
    <g id="Unreal">
      <path id="Unreal-2" data-name="Unreal" d="M390.3,419.6H30.5a30,30,0,0,1-30-30V29.6a30,30,0,0,1,30-30H390.4a30,30,0,0,1,30,30v360A30.11,30.11,0,0,1,390.3,419.6Z" transform="translate(-0.5 0.4)" fill="url(#radial-gradient)"/>
      <g>
        <path id="Main_Spin" data-name="Main Spin" d="M210.4,63.4c-192.6,3.5-192.6,290,0,293.4C403,353.3,403,66.8,210.4,63.4ZM341.2,237.6c-.6,2.9-1.4,5.7-2.2,8.6-43.6-13.6-80.9,37.8-54.4,75.1a165.89,165.89,0,0,1-15.4,8.8c-33.9-50.6,14.8-117.8,73.3-101.2C342.1,231.8,341.8,234.7,341.2,237.6Zm-9.4,28a133.92,133.92,0,0,1-33.3,44.7c-15.9-23.3,7.6-55.7,34.6-47.4C332.7,263.8,332.2,264.7,331.8,265.6Zm1.1-55.9c-67.5-7.2-115.5,69.4-79.6,126.9a153.72,153.72,0,0,1-17.7,4.7c-40.3-73.8,24.6-163.5,107.2-148a158.73,158.73,0,0,1,1.1,18.2A100.86,100.86,0,0,0,332.9,209.7ZM88.2,264c28.7-11.9,56,24,36.3,48.4A136.37,136.37,0,0,1,88.2,264Zm56.5,48.8c17.8-38.8-23.4-81.6-62.6-65.5a114.59,114.59,0,0,1-3.7-17.4c60-20.6,112.7,49.4,76,101.5a106.49,106.49,0,0,1-15.6-8.5A56.72,56.72,0,0,0,144.7,312.8Zm29.9,17.7c32.6-64-28.9-138.2-97.7-118-.3-6.1.4-12.4.9-18.5,85-18.6,151.7,71.7,110.8,147.8a158.08,158.08,0,0,1-18.1-4.1A63.69,63.69,0,0,0,174.6,330.5ZM337.4,168.7a117.68,117.68,0,0,0-21.4-.2c-43.1-75.9-167.4-75.9-210.7-.2a108.79,108.79,0,0,0-22.1.9C118.6,47.8,301.5,47.4,337.4,168.7ZM281.5,176q-4.5,1.65-8.7,3.6c-29.6-36.1-93.1-36.7-123.4-1.2a127.1,127.1,0,0,0-18-6.1c36.6-50.4,122.9-50,159,.7C287.3,173.9,284.4,174.9,281.5,176ZM250,193.2c-2.4,1.8-4.7,3.6-7,5.6-16.4-15.6-46-16.4-63.2-1.5a151.06,151.06,0,0,0-14.7-10.5c23.9-24.1,69.1-23.5,92.2,1.3C254.8,189.7,252.4,191.4,250,193.2Zm-37.7,46.1a123,123,0,0,0-19.7-29.4c10.7-8.1,27.9-7.3,37.9,1.6A120.16,120.16,0,0,0,212.3,239.3Z" transform="translate(-0.5 0.4)"/>
        <g id="Spin_Inverse" data-name="Spin Inverse">
          <circle cx="209.9" cy="210.5" r="163" fill="none" stroke="#000" stroke-width="7" stroke-dasharray="22.26 22.26"/>
        </g>
        <g id="Spin">
          <circle cx="209.9" cy="210.5" r="183.8" fill="none" stroke="#000" stroke-width="7" stroke-dasharray="22.2 22.2"/>
        </g>
      </g>
    </g>
  </g>
</svg>
