<svg width="2368" height="284" viewBox="0 0 2368 284" fill="none" xmlns="http://www.w3.org/2000/svg">
<g clip-path="url(#clip0_2022_18)">
<g filter="url(#filter0_i_2022_18)">
<path d="M1937.46 -126.023C1937.47 -126.042 1937.49 -126.06 1937.51 -126.081C1937.69 -126.279 1937.86 -126.489 1938.04 -126.687C1938.11 -126.757 1938.18 -126.814 1938.24 -126.884C1938.46 -127.104 1938.68 -127.318 1938.91 -127.527C1939.09 -127.697 1939.27 -127.863 1939.46 -128.023C1939.65 -128.183 1939.85 -128.337 1940.05 -128.491C1940.29 -128.678 1940.54 -128.857 1940.79 -129.027C1940.87 -129.082 1940.94 -129.142 1941.02 -129.194C1941.12 -129.258 1941.22 -129.306 1941.32 -129.366C1941.6 -129.539 1941.88 -129.703 1942.17 -129.856C1942.35 -129.956 1942.54 -130.05 1942.73 -130.14C1943 -130.272 1943.28 -130.399 1943.55 -130.515C1943.77 -130.606 1943.99 -130.691 1944.2 -130.771C1944.46 -130.862 1944.71 -130.947 1944.97 -131.026C1945.22 -131.104 1945.47 -131.175 1945.72 -131.239C1945.95 -131.299 1946.18 -131.351 1946.42 -131.399C1946.69 -131.456 1946.96 -131.506 1947.24 -131.549C1947.46 -131.583 1947.69 -131.612 1947.92 -131.636C1948.19 -131.666 1948.47 -131.692 1948.74 -131.706C1948.98 -131.719 1949.22 -131.723 1949.46 -131.728C1949.72 -131.731 1949.98 -131.729 1950.24 -131.719C1950.5 -131.709 1950.75 -131.69 1951.01 -131.668C1951.25 -131.647 1951.48 -131.625 1951.72 -131.593C1952 -131.557 1952.28 -131.508 1952.56 -131.456C1952.77 -131.416 1952.98 -131.373 1953.19 -131.325C1953.48 -131.26 1953.77 -131.182 1954.05 -131.098C1954.25 -131.041 1954.45 -130.979 1954.65 -130.913C1954.93 -130.819 1955.2 -130.716 1955.48 -130.608C1955.69 -130.525 1955.89 -130.44 1956.1 -130.348C1956.35 -130.235 1956.6 -130.116 1956.84 -129.992C1957.07 -129.875 1957.29 -129.755 1957.51 -129.628C1957.72 -129.506 1957.93 -129.38 1958.14 -129.249C1958.38 -129.091 1958.63 -128.924 1958.87 -128.751C1959.04 -128.626 1959.21 -128.501 1959.38 -128.367C1959.63 -128.167 1959.88 -127.957 1960.13 -127.742C1960.21 -127.664 1960.31 -127.6 1960.39 -127.52C1960.46 -127.454 1960.52 -127.383 1960.59 -127.317C1960.81 -127.106 1961.02 -126.886 1961.23 -126.659C1961.4 -126.474 1961.57 -126.289 1961.73 -126.098C1961.89 -125.909 1962.04 -125.716 1962.19 -125.516C1962.38 -125.27 1962.56 -125.022 1962.73 -124.767C1962.79 -124.688 1962.85 -124.619 1962.9 -124.538C1972.89 -109.144 1983.22 -93.224 1996.9 -82.4069C2007.26 -74.2335 2023.46 -67.1558 2037.87 -71.8052C2048.21 -75.143 2054.08 -83.334 2063.56 -97.5241C2077.53 -118.434 2096.66 -147.072 2147.14 -158.082C2212.21 -172.288 2261.3 -118.628 2281.95 -90.6128C2291.77 -99.0107 2305.47 -110.15 2318.55 -118.796C2359.8 -146.078 2409.56 -155.339 2451.67 -143.573C2500.82 -129.829 2537.52 -87.3415 2540.91 -40.2563C2541.65 -30.0548 2540.56 -19.4526 2537.82 -9.1608C2562.05 27.5306 2566.15 83.3627 2546.77 124.619C2524.32 172.446 2491.21 186.766 2467.39 190.355C2456.64 191.976 2446.9 191.597 2439.08 190.55C2434.34 211.611 2421.13 245.013 2384.27 263.261C2369.86 270.4 2353.13 273.508 2336.15 272.632C2321.46 271.874 2306.59 268.129 2292.91 261.421C2270.84 250.599 2255.68 222.239 2248.64 196.233C2216.86 217.028 2176.43 223.247 2142.38 210.948C2099.27 195.375 2070.46 150.501 2073.77 107.154C2059.5 110.89 2044.64 112.313 2029.85 111.551C1989.81 109.488 1950.38 91.3989 1925.28 59.8883C1885.27 9.69888 1890.92 -75.2194 1937.46 -126.023ZM1950.01 40.1839C1980.91 78.9792 2042.54 91.482 2086.53 68.5667C2108.73 33.0826 2153.27 15.8299 2190.07 29.1882C2208.58 35.9056 2224.37 51.6012 2231.29 70.148C2236.96 85.3373 2236.09 100.873 2228.84 113.893C2224.59 121.522 2214.96 124.266 2207.33 120.016C2199.7 115.764 2196.96 106.136 2201.21 98.5057C2204.63 92.3657 2203.34 85.7102 2201.66 81.2082C2198.01 71.4073 2189.01 62.4487 2179.28 58.9163C2155.69 50.3591 2125.38 63.4289 2111.73 88.0539C2109.19 92.6197 2107.39 97.3616 2106.35 102.158C2099.61 133.41 2121.02 169.608 2153.12 181.204C2184.5 192.546 2223.69 181.95 2248.39 155.44C2252.82 150.687 2259.69 149.126 2265.74 151.501C2271.78 153.874 2275.76 159.703 2275.77 166.196C2275.81 188.961 2290.44 224.992 2306.83 233.03C2327.67 243.245 2351.96 243.972 2370.23 234.922C2408.2 216.126 2410.03 172.693 2410.09 170.93C2410.21 165.767 2412.79 160.968 2417.08 158.107C2421.38 155.246 2426.76 154.64 2431.56 156.526C2431.71 156.579 2446.19 161.907 2463.88 158.891C2486.86 154.974 2505.11 138.927 2518.14 111.18C2529.75 86.4563 2530 52.8808 2520.4 26.4531C2503.86 48.3202 2479.43 62.448 2453.57 63.6797C2450.92 63.8054 2448.28 63.7991 2445.67 63.6644C2421.37 62.4123 2398.97 50.1064 2387.14 31.0133C2371.7 6.07492 2377.06 -27.9129 2399.08 -44.7482C2406.02 -50.0498 2415.95 -48.7298 2421.25 -41.7906C2426.56 -34.8529 2425.24 -24.9278 2418.3 -19.6216C2409.31 -12.7493 2407.28 3.45242 2414.03 14.365C2421.07 25.7149 2436.34 32.8418 2452.06 32.0897C2474.95 31.0017 2496.44 13.4113 2505.52 -11.693C2508.65 -20.3324 2509.98 -29.416 2509.36 -37.971C2506.95 -71.4509 2479.1 -103.05 2443.15 -113.103C2409.76 -122.439 2369.7 -114.702 2335.99 -92.4038C2314.56 -78.2336 2289.91 -55.4282 2289.66 -55.199C2286.14 -51.9342 2281.33 -50.4423 2276.58 -51.1582C2271.83 -51.8601 2267.66 -54.6896 2265.24 -58.8347C2264.76 -59.6539 2216.51 -140.824 2153.88 -127.169C2115.87 -118.879 2103.24 -99.9648 2089.86 -79.9434C2079.56 -64.5208 2068.9 -48.5745 2047.58 -41.6948C2025.29 -34.5019 1999.01 -40.4398 1977.3 -57.5763C1965.9 -66.5936 1956.75 -77.6294 1948.79 -88.7993C1924.06 -49.0299 1923.47 6.871 1950.01 40.1839Z" fill="#241334"/>
</g>
<g filter="url(#filter1_i_2022_18)">
<path d="M437.802 -126.024C437.786 -126.043 437.769 -126.061 437.752 -126.082C437.569 -126.28 437.401 -126.49 437.217 -126.688C437.151 -126.758 437.081 -126.815 437.015 -126.885C436.802 -127.105 436.581 -127.319 436.353 -127.528C436.169 -127.698 435.986 -127.864 435.797 -128.024C435.606 -128.184 435.409 -128.338 435.209 -128.492C434.965 -128.679 434.72 -128.858 434.467 -129.028C434.387 -129.083 434.317 -129.143 434.235 -129.195C434.138 -129.259 434.036 -129.307 433.937 -129.367C433.657 -129.54 433.377 -129.704 433.09 -129.857C432.905 -129.957 432.721 -130.051 432.533 -130.141C432.258 -130.273 431.983 -130.4 431.704 -130.516C431.489 -130.607 431.272 -130.692 431.054 -130.772C430.801 -130.863 430.547 -130.948 430.292 -131.027C430.043 -131.105 429.792 -131.176 429.541 -131.24C429.309 -131.3 429.075 -131.352 428.84 -131.4C428.568 -131.457 428.296 -131.507 428.024 -131.55C427.797 -131.584 427.571 -131.613 427.343 -131.637C427.067 -131.666 426.793 -131.693 426.516 -131.707C426.279 -131.72 426.042 -131.724 425.803 -131.729C425.542 -131.731 425.28 -131.73 425.02 -131.72C424.763 -131.71 424.505 -131.691 424.247 -131.669C424.011 -131.648 423.775 -131.626 423.537 -131.594C423.258 -131.558 422.981 -131.509 422.703 -131.457C422.49 -131.417 422.278 -131.374 422.067 -131.326C421.778 -131.261 421.494 -131.183 421.208 -131.099C421.006 -131.042 420.805 -130.98 420.607 -130.914C420.328 -130.82 420.054 -130.717 419.778 -130.609C419.57 -130.526 419.364 -130.441 419.16 -130.349C418.911 -130.236 418.663 -130.117 418.42 -129.993C418.193 -129.876 417.968 -129.755 417.745 -129.628C417.535 -129.507 417.327 -129.381 417.122 -129.25C416.874 -129.092 416.628 -128.925 416.389 -128.752C416.216 -128.627 416.046 -128.501 415.878 -128.368C415.625 -128.168 415.375 -127.958 415.132 -127.743C415.045 -127.665 414.952 -127.601 414.867 -127.521C414.795 -127.455 414.738 -127.384 414.668 -127.318C414.448 -127.107 414.238 -126.887 414.029 -126.66C413.858 -126.475 413.691 -126.29 413.529 -126.099C413.37 -125.91 413.218 -125.717 413.066 -125.517C412.877 -125.271 412.697 -125.023 412.526 -124.768C412.474 -124.689 412.412 -124.62 412.359 -124.539C402.37 -109.145 392.039 -93.225 378.355 -82.4079C367.999 -74.2345 351.8 -67.1568 337.384 -71.8062C327.046 -75.1439 321.178 -83.335 311.699 -97.525C297.729 -118.435 278.598 -147.073 228.117 -158.083C163.048 -172.289 113.963 -118.629 93.3098 -90.6138C83.4924 -99.0117 69.788 -110.151 56.7131 -118.797C15.4619 -146.079 -34.3013 -155.34 -76.4071 -143.574C-125.564 -129.83 -162.261 -87.3425 -165.651 -40.2572C-166.39 -30.0558 -165.305 -19.4536 -162.557 -9.16178C-186.794 27.5297 -190.891 83.3617 -171.508 124.618C-149.059 172.445 -115.953 186.765 -92.1355 190.354C-81.3782 191.975 -71.6369 191.596 -63.8186 190.549C-59.0827 211.61 -45.8698 245.012 -9.01564 263.26C5.39406 270.399 22.1322 273.507 39.1051 272.631C53.8008 271.874 68.6719 268.128 82.3492 261.42C104.422 250.599 119.576 222.238 126.62 196.232C158.399 217.027 198.826 223.246 232.881 210.947C275.989 195.374 304.798 150.5 301.487 107.153C315.754 110.889 330.623 112.312 345.41 111.55C385.454 109.487 424.882 91.398 449.982 59.8873C489.984 9.69791 484.342 -75.2203 437.802 -126.024ZM425.245 40.183C394.346 78.9782 332.719 91.481 288.731 68.5658C266.525 33.0816 221.986 15.829 185.189 29.1872C166.683 35.9047 150.886 51.6002 143.965 70.1471C138.296 85.3363 139.167 100.872 146.418 113.892C150.667 121.521 160.296 124.265 167.928 120.015C175.558 115.763 178.298 106.135 174.05 98.5047C170.629 92.3647 171.914 85.7092 173.596 81.2073C177.253 71.4063 186.249 62.4477 195.979 58.9153C219.566 50.3582 249.874 63.428 263.534 88.0529C266.065 92.6187 267.873 97.3606 268.905 102.157C275.654 133.409 254.238 169.607 222.137 181.203C190.756 192.545 151.572 181.949 126.871 155.44C122.443 150.686 115.566 149.125 109.519 151.5C103.475 153.873 99.4957 159.702 99.4869 166.195C99.4521 188.96 84.8216 224.991 68.4284 233.029C47.5933 243.244 23.3007 243.971 5.02497 234.921C-32.939 216.125 -34.7731 172.692 -34.8312 170.929C-34.949 165.766 -37.528 160.967 -41.8254 158.106C-46.1244 155.245 -51.5026 154.639 -56.3061 156.525C-56.4501 156.578 -70.9305 161.906 -88.6253 158.89C-111.601 154.973 -129.852 138.926 -142.877 111.179C-154.494 86.4553 -154.741 52.8798 -145.141 26.4522C-128.603 48.3193 -104.166 62.447 -78.3088 63.6787C-75.66 63.8044 -73.0243 63.7981 -70.4108 63.6634C-46.1156 62.4114 -23.712 50.1055 -11.884 31.0123C3.55387 6.07395 -1.80453 -27.9139 -23.8261 -44.7491C-30.7636 -50.0508 -40.6904 -48.7308 -45.9951 -41.7915C-51.2999 -34.8539 -49.9768 -24.9288 -43.0375 -19.6226C-34.051 -12.7503 -32.0205 3.45144 -38.7748 14.364C-45.8078 25.7139 -61.0836 32.8408 -76.8044 32.0887C-99.6954 31.0007 -121.177 13.4103 -130.26 -11.6939C-133.393 -20.3334 -134.721 -29.417 -134.102 -37.972C-131.692 -71.4519 -103.844 -103.051 -67.8916 -113.104C-34.4989 -122.44 5.55929 -114.703 39.2681 -92.4047C60.7013 -78.2345 85.3498 -55.4292 85.5973 -55.2C89.1149 -51.9352 93.9317 -50.4433 98.6768 -51.1591C103.424 -51.8611 107.602 -54.6906 110.021 -58.8357C110.502 -59.6548 158.749 -140.825 221.376 -127.17C259.387 -118.88 272.022 -99.9658 285.399 -79.9444C295.703 -64.5218 306.356 -48.5755 327.674 -41.6958C349.973 -34.5029 376.247 -40.4408 397.957 -57.5773C409.363 -66.5945 418.51 -77.6304 426.472 -88.8003C451.2 -49.0309 451.793 6.87002 425.245 40.183Z" fill="#241334"/>
</g>
</g>
<defs>
<filter id="filter0_i_2022_18" x="1898.57" y="-160.433" width="660.443" height="441.209" filterUnits="userSpaceOnUse" color-interpolation-filters="sRGB">
<feFlood flood-opacity="0" result="BackgroundImageFix"/>
<feBlend mode="normal" in="SourceGraphic" in2="BackgroundImageFix" result="shape"/>
<feColorMatrix in="SourceAlpha" type="matrix" values="0 0 0 0 0 0 0 0 0 0 0 0 0 0 0 0 0 0 127 0" result="hardAlpha"/>
<feOffset dy="14"/>
<feGaussianBlur stdDeviation="4"/>
<feComposite in2="hardAlpha" operator="arithmetic" k2="-1" k3="1"/>
<feColorMatrix type="matrix" values="0 0 0 0 0 0 0 0 0 0 0 0 0 0 0 0 0 0 0.49 0"/>
<feBlend mode="normal" in2="shape" result="effect1_innerShadow_2022_18"/>
</filter>
<filter id="filter1_i_2022_18" x="-183.754" y="-160.434" width="660.443" height="441.209" filterUnits="userSpaceOnUse" color-interpolation-filters="sRGB">
<feFlood flood-opacity="0" result="BackgroundImageFix"/>
<feBlend mode="normal" in="SourceGraphic" in2="BackgroundImageFix" result="shape"/>
<feColorMatrix in="SourceAlpha" type="matrix" values="0 0 0 0 0 0 0 0 0 0 0 0 0 0 0 0 0 0 127 0" result="hardAlpha"/>
<feOffset dy="14"/>
<feGaussianBlur stdDeviation="4"/>
<feComposite in2="hardAlpha" operator="arithmetic" k2="-1" k3="1"/>
<feColorMatrix type="matrix" values="0 0 0 0 0 0 0 0 0 0 0 0 0 0 0 0 0 0 0.49 0"/>
<feBlend mode="normal" in2="shape" result="effect1_innerShadow_2022_18"/>
</filter>
<clipPath id="clip0_2022_18">
<rect width="2368" height="284" fill="white"/>
</clipPath>
</defs>
</svg>
