<svg width="1483" height="194" viewBox="0 0 1483 194" fill="none" xmlns="http://www.w3.org/2000/svg">
<g clip-path="url(#clip0_266_17)">
<g filter="url(#filter0_i_266_17)">
<path d="M256.424 -71.1174C256.415 -71.1289 256.405 -71.1398 256.395 -71.1526C256.287 -71.2727 256.188 -71.4002 256.08 -71.5203C256.041 -71.5628 255.999 -71.5974 255.96 -71.6399C255.835 -71.7734 255.705 -71.9033 255.57 -72.0301C255.462 -72.1333 255.354 -72.234 255.242 -72.3311C255.13 -72.4282 255.014 -72.5217 254.896 -72.6151C254.752 -72.7286 254.607 -72.8373 254.458 -72.9404C254.411 -72.9738 254.37 -73.0102 254.322 -73.0418C254.264 -73.0806 254.204 -73.1098 254.146 -73.1462C253.981 -73.2512 253.816 -73.3507 253.647 -73.4435C253.537 -73.5042 253.429 -73.5613 253.318 -73.6159C253.156 -73.696 252.994 -73.7731 252.829 -73.8435C252.703 -73.8987 252.575 -73.9503 252.446 -73.9988C252.297 -74.054 252.147 -74.1056 251.997 -74.1536C251.85 -74.2009 251.702 -74.244 251.554 -74.2828C251.418 -74.3193 251.28 -74.3508 251.141 -74.3799C250.981 -74.4145 250.82 -74.4449 250.66 -74.471C250.526 -74.4916 250.393 -74.5092 250.259 -74.5238C250.096 -74.542 249.934 -74.5578 249.771 -74.5663C249.631 -74.5741 249.492 -74.5766 249.351 -74.5796C249.197 -74.5814 249.042 -74.5802 248.889 -74.5741C248.738 -74.5681 248.585 -74.5565 248.433 -74.5432C248.294 -74.5304 248.155 -74.5171 248.015 -74.4977C247.85 -74.4758 247.687 -74.4461 247.523 -74.4145C247.398 -74.3903 247.273 -74.3642 247.148 -74.335C246.978 -74.2956 246.81 -74.2483 246.642 -74.1973C246.523 -74.1627 246.404 -74.1251 246.287 -74.085C246.123 -74.028 245.961 -73.9654 245.799 -73.8999C245.676 -73.8495 245.555 -73.798 245.434 -73.7421C245.288 -73.6735 245.141 -73.6013 244.998 -73.5261C244.864 -73.4551 244.732 -73.3822 244.6 -73.3052C244.476 -73.2311 244.354 -73.1547 244.233 -73.0752C244.087 -72.9793 243.942 -72.8779 243.801 -72.7729C243.699 -72.6971 243.599 -72.6212 243.5 -72.5399C243.35 -72.4185 243.203 -72.2911 243.06 -72.1606C243.009 -72.1133 242.954 -72.0744 242.904 -72.0259C242.861 -71.9858 242.828 -71.9427 242.786 -71.9027C242.657 -71.7746 242.533 -71.6411 242.41 -71.5034C242.309 -71.3911 242.21 -71.2788 242.115 -71.1629C242.021 -71.0482 241.931 -70.9311 241.842 -70.8097C241.73 -70.6604 241.624 -70.5099 241.524 -70.3551C241.493 -70.3072 241.456 -70.2653 241.425 -70.2162C235.536 -60.8739 229.446 -51.2125 221.379 -44.6479C215.274 -39.6876 205.724 -35.3923 197.225 -38.2139C191.131 -40.2396 187.671 -45.2105 182.083 -53.8221C173.848 -66.5118 162.569 -83.8915 132.809 -90.5732C94.4495 -99.1945 65.5125 -66.6295 53.3369 -49.6278C47.5493 -54.7243 39.4702 -61.4845 31.7622 -66.7315C7.44347 -83.2883 -21.8933 -88.9085 -46.7158 -81.768C-75.6951 -73.4271 -97.329 -47.6425 -99.3275 -19.0677C-99.7631 -12.8767 -99.1235 -6.44246 -97.5035 -0.196618C-111.792 22.0705 -114.207 55.9536 -102.78 80.991C-89.546 110.016 -70.0292 118.706 -55.9881 120.885C-49.6464 121.868 -43.9036 121.638 -39.2945 121.003C-36.5026 133.784 -28.7132 154.055 -6.98668 165.129C1.50821 169.462 11.3758 171.348 21.3818 170.816C30.0453 170.356 38.8122 168.084 46.8754 164.013C59.8879 157.445 68.8215 140.234 72.9742 124.452C91.7088 137.072 115.542 140.846 135.618 133.382C161.031 123.931 178.015 96.6982 176.063 70.3919C184.474 72.6592 193.239 73.5228 201.957 73.0604C225.564 71.8084 248.808 60.8306 263.605 41.7076C287.187 11.2489 283.861 -40.2859 256.424 -71.1174ZM249.022 29.7495C230.806 53.2934 194.475 60.881 168.543 46.9743C155.452 25.4399 129.195 14.9696 107.502 23.0764C96.5924 27.1531 87.2796 36.6783 83.1995 47.9339C79.8575 57.1519 80.371 66.5802 84.6456 74.4817C87.1505 79.1115 92.8271 80.7768 97.3264 78.1976C101.824 75.6171 103.44 69.7742 100.935 65.1435C98.9187 61.4173 99.6762 57.3782 100.668 54.6461C102.824 48.6982 108.127 43.2614 113.863 41.1177C127.768 35.9245 145.636 43.8563 153.689 58.8006C155.181 61.5714 156.247 64.4492 156.855 67.36C160.834 86.3261 148.208 108.294 129.284 115.331C110.784 122.214 87.6841 115.784 73.1222 99.6955C70.5117 96.8111 66.4576 95.8637 62.8927 97.3051C59.3296 98.7452 56.9837 102.283 56.9785 106.223C56.958 120.039 48.3329 141.905 38.6687 146.783C26.3858 152.982 12.0647 153.423 1.29062 147.931C-21.0902 136.524 -22.1714 110.166 -22.2057 109.096C-22.2751 105.963 -23.7955 103.05 -26.3289 101.314C-28.8633 99.5778 -32.0339 99.21 -34.8657 100.355C-34.9506 100.387 -43.4872 103.62 -53.9187 101.79C-67.4635 99.4127 -78.223 89.6742 -85.9016 72.8352C-92.7501 57.831 -92.8957 37.4549 -87.2363 21.4166C-77.4867 34.6872 -63.0804 43.261 -47.8369 44.0085C-46.2754 44.0848 -44.7215 44.0809 -43.1808 43.9992C-28.8581 43.2393 -15.6506 35.7712 -8.67767 24.184C0.423372 9.04956 -2.73555 -11.5768 -15.7179 -21.7937C-19.8077 -25.0111 -25.6598 -24.2101 -28.7871 -19.9988C-31.9144 -15.7885 -31.1344 -9.76521 -27.0435 -6.54501C-21.7457 -2.37438 -20.5487 7.45803 -24.5305 14.0806C-28.6767 20.9686 -37.6822 25.2937 -46.95 24.8373C-60.4446 24.177 -73.1089 13.5018 -78.4635 -1.73335C-80.3105 -6.97638 -81.0934 -12.489 -80.7285 -17.6808C-79.3077 -37.9989 -62.8906 -57.1756 -41.6957 -63.2766C-22.0098 -68.9423 1.60562 -64.247 21.4779 -50.7147C34.1133 -42.1152 48.6443 -28.2752 48.7902 -28.1361C50.8639 -26.1547 53.7036 -25.2493 56.5009 -25.6838C59.2995 -26.1098 61.7626 -27.8269 63.1886 -30.3425C63.4722 -30.8396 91.9151 -80.0997 128.835 -71.8129C151.244 -66.7819 158.693 -55.3033 166.579 -43.1528C172.653 -33.7932 178.933 -24.1158 191.501 -19.9407C204.647 -15.5755 220.136 -19.1791 232.935 -29.5788C239.659 -35.0512 245.051 -41.7485 249.745 -48.5272C264.323 -24.3922 264.672 9.53269 249.022 29.7495Z" fill="#410824"/>
</g>
<g filter="url(#filter1_i_266_17)">
<path d="M1237.43 -60.7407C1237.44 -60.7519 1237.45 -60.7626 1237.46 -60.775C1237.57 -60.8921 1237.67 -61.0164 1237.78 -61.1335C1237.82 -61.1749 1237.86 -61.2086 1237.89 -61.25C1238.02 -61.3802 1238.15 -61.5068 1238.29 -61.6304C1238.39 -61.7309 1238.5 -61.8291 1238.61 -61.9238C1238.73 -62.0184 1238.84 -62.1095 1238.96 -62.2006C1239.1 -62.3113 1239.25 -62.4171 1239.4 -62.5177C1239.44 -62.5502 1239.49 -62.5857 1239.53 -62.6165C1239.59 -62.6544 1239.65 -62.6828 1239.71 -62.7182C1239.87 -62.8206 1240.04 -62.9176 1240.21 -63.0081C1240.32 -63.0673 1240.43 -63.1229 1240.54 -63.1761C1240.7 -63.2542 1240.87 -63.3293 1241.02 -63.3979C1241.15 -63.4518 1241.28 -63.502 1241.41 -63.5494C1241.56 -63.6032 1241.71 -63.6535 1241.86 -63.7002C1242.01 -63.7464 1242.16 -63.7884 1242.3 -63.8262C1242.44 -63.8617 1242.57 -63.8925 1242.72 -63.9209C1242.88 -63.9546 1243.03 -63.9842 1243.2 -64.0096C1243.33 -64.0297 1243.46 -64.0469 1243.6 -64.0611C1243.76 -64.0788 1243.92 -64.0942 1244.08 -64.1025C1244.23 -64.1102 1244.37 -64.1125 1244.51 -64.1155C1244.66 -64.1173 1244.81 -64.1161 1244.97 -64.1102C1245.12 -64.1042 1245.27 -64.093 1245.42 -64.08C1245.56 -64.0676 1245.7 -64.0546 1245.84 -64.0356C1246.01 -64.0143 1246.17 -63.9853 1246.34 -63.9546C1246.46 -63.9309 1246.58 -63.9055 1246.71 -63.8771C1246.88 -63.8386 1247.05 -63.7925 1247.21 -63.7428C1247.33 -63.7091 1247.45 -63.6724 1247.57 -63.6334C1247.73 -63.5778 1247.89 -63.5168 1248.06 -63.453C1248.18 -63.4039 1248.3 -63.3536 1248.42 -63.2992C1248.57 -63.2323 1248.72 -63.1619 1248.86 -63.0886C1248.99 -63.0193 1249.12 -62.9484 1249.25 -62.8732C1249.38 -62.8011 1249.5 -62.7265 1249.63 -62.649C1249.77 -62.5556 1249.91 -62.4568 1250.06 -62.3544C1250.16 -62.2805 1250.26 -62.2066 1250.36 -62.1273C1250.5 -62.009 1250.65 -61.8847 1250.8 -61.7576C1250.85 -61.7114 1250.9 -61.6736 1250.95 -61.6262C1250.99 -61.5872 1251.03 -61.5452 1251.07 -61.5062C1251.2 -61.3813 1251.32 -61.2512 1251.45 -61.1169C1251.55 -61.0075 1251.65 -60.898 1251.74 -60.7851C1251.84 -60.6733 1251.92 -60.5591 1252.01 -60.4408C1252.12 -60.2953 1252.23 -60.1486 1252.33 -59.9977C1252.37 -59.951 1252.4 -59.9102 1252.43 -59.8622C1258.32 -50.7559 1264.41 -41.3385 1272.48 -34.9396C1278.58 -30.1047 1288.13 -25.9178 1296.63 -28.6682C1302.72 -30.6427 1306.18 -35.488 1311.77 -43.8822C1320.01 -56.2514 1331.29 -73.1922 1361.05 -79.7052C1399.41 -88.1087 1428.35 -56.3662 1440.52 -39.7938C1446.31 -44.7616 1454.39 -51.351 1462.1 -56.4656C1486.41 -72.6042 1515.75 -78.0826 1540.57 -71.1224C1569.55 -62.9921 1591.19 -37.8587 1593.18 -10.0055C1593.62 -3.97078 1592.98 2.30094 1591.36 8.38905C1605.65 30.0938 1608.06 63.1213 1596.64 87.5264C1583.4 115.818 1563.88 124.289 1549.84 126.412C1543.5 127.371 1537.76 127.147 1533.15 126.528C1530.36 138.986 1522.57 158.745 1500.84 169.54C1492.35 173.763 1482.48 175.602 1472.47 175.083C1463.81 174.635 1455.05 172.42 1446.98 168.452C1433.97 162.05 1425.03 145.273 1420.88 129.89C1402.15 142.191 1378.31 145.87 1358.24 138.594C1332.83 129.382 1315.84 102.837 1317.79 77.195C1309.38 79.405 1300.62 80.2468 1291.9 79.796C1268.3 78.5757 1245.05 67.8751 1230.25 49.235C1206.67 19.5455 1210 -30.6879 1237.43 -60.7407ZM1244.83 37.5789C1263.05 60.5282 1299.38 67.9242 1325.31 54.3687C1338.4 33.3781 1364.66 23.1723 1386.35 31.0744C1397.27 35.0481 1406.58 44.3328 1410.65 55.3041C1414 64.2893 1413.48 73.4795 1409.21 81.1814C1406.7 85.6944 1401.03 87.3176 1396.53 84.8035C1392.03 82.2882 1390.42 76.5928 1392.92 72.0791C1394.94 68.447 1394.18 64.5099 1393.19 61.8468C1391.04 56.0491 1385.73 50.7496 1379.99 48.66C1366.09 43.598 1348.22 51.3294 1340.17 65.8963C1338.67 68.5972 1337.61 71.4023 1337 74.2396C1333.03 92.7267 1345.65 114.14 1364.57 120.999C1383.07 127.709 1406.17 121.441 1420.74 105.759C1423.35 102.947 1427.4 102.024 1430.96 103.428C1434.52 104.832 1436.87 108.28 1436.88 112.121C1436.9 125.588 1445.53 146.902 1455.19 151.657C1467.47 157.7 1481.79 158.13 1492.56 152.776C1514.95 141.657 1516.03 115.965 1516.06 114.922C1516.13 111.867 1517.65 109.029 1520.18 107.336C1522.72 105.644 1525.89 105.285 1528.72 106.401C1528.81 106.432 1537.34 109.584 1547.77 107.8C1561.32 105.483 1572.08 95.9903 1579.76 79.5766C1586.6 64.9513 1586.75 45.0897 1581.09 29.4564C1571.34 42.3919 1556.94 50.7492 1541.69 51.4778C1540.13 51.5522 1538.58 51.5484 1537.04 51.4688C1522.71 50.7281 1509.51 43.4485 1502.53 32.154C1493.43 17.4017 1496.59 -2.70374 1509.57 -12.6626C1513.66 -15.7988 1519.52 -15.018 1522.64 -10.9131C1525.77 -6.80909 1524.99 -0.937898 1520.9 2.20098C1515.6 6.26628 1514.41 15.8504 1518.38 22.3057C1522.54 29.0197 1531.54 33.2357 1540.8 32.7908C1554.3 32.1472 1566.97 21.7416 1572.32 6.89113C1574.17 1.7805 1574.95 -3.5929 1574.58 -8.6536C1573.16 -28.4586 1556.75 -47.151 1535.55 -53.0979C1515.87 -58.6206 1492.25 -54.0438 1472.38 -40.8533C1459.74 -32.4709 1445.21 -18.9804 1445.07 -18.8448C1442.99 -16.9135 1440.15 -16.031 1437.35 -16.4545C1434.55 -16.8697 1432.1 -18.5435 1430.67 -20.9955C1430.39 -21.4801 1401.94 -69.4962 1365.02 -61.4186C1342.61 -56.5147 1335.17 -45.326 1327.28 -33.4823C1321.21 -24.3591 1314.92 -14.9261 1302.35 -10.8564C1289.21 -6.60146 1273.72 -10.114 1260.92 -20.2511C1254.2 -25.5853 1248.81 -32.1135 1244.11 -38.721C1229.53 -15.1955 1229.19 17.8727 1244.83 37.5789Z" fill="#410824"/>
</g>
</g>
<defs>
<filter id="filter0_i_266_17" x="-110" y="-92" width="389.349" height="266.904" filterUnits="userSpaceOnUse" color-interpolation-filters="sRGB">
<feFlood flood-opacity="0" result="BackgroundImageFix"/>
<feBlend mode="normal" in="SourceGraphic" in2="BackgroundImageFix" result="shape"/>
<feColorMatrix in="SourceAlpha" type="matrix" values="0 0 0 0 0 0 0 0 0 0 0 0 0 0 0 0 0 0 127 0" result="hardAlpha"/>
<feOffset dy="10"/>
<feGaussianBlur stdDeviation="2"/>
<feComposite in2="hardAlpha" operator="arithmetic" k2="-1" k3="1"/>
<feColorMatrix type="matrix" values="0 0 0 0 0 0 0 0 0 0 0 0 0 0 0 0 0 0 0.25 0"/>
<feBlend mode="normal" in2="shape" result="effect1_innerShadow_266_17"/>
</filter>
<filter id="filter1_i_266_17" x="1214.51" y="-81.0959" width="389.349" height="260.265" filterUnits="userSpaceOnUse" color-interpolation-filters="sRGB">
<feFlood flood-opacity="0" result="BackgroundImageFix"/>
<feBlend mode="normal" in="SourceGraphic" in2="BackgroundImageFix" result="shape"/>
<feColorMatrix in="SourceAlpha" type="matrix" values="0 0 0 0 0 0 0 0 0 0 0 0 0 0 0 0 0 0 127 0" result="hardAlpha"/>
<feOffset dy="10"/>
<feGaussianBlur stdDeviation="2"/>
<feComposite in2="hardAlpha" operator="arithmetic" k2="-1" k3="1"/>
<feColorMatrix type="matrix" values="0 0 0 0 0 0 0 0 0 0 0 0 0 0 0 0 0 0 0.25 0"/>
<feBlend mode="normal" in2="shape" result="effect1_innerShadow_266_17"/>
</filter>
<clipPath id="clip0_266_17">
<rect width="1483" height="194" fill="white"/>
</clipPath>
</defs>
</svg>
