<svg width="19" height="19" viewBox="0 0 19 19" fill="none" xmlns="http://www.w3.org/2000/svg">
<path d="M15.9334 14.1127C15.9334 13.8186 15.8304 13.5686 15.6246 13.3627L13.3304 11.0686C13.1246 10.8627 12.8746 10.7598 12.5804 10.7598C12.2716 10.7598 12.0069 10.8774 11.7863 11.1127C11.8084 11.1348 11.8782 11.2028 11.9959 11.3168C12.1135 11.4308 12.1926 11.5098 12.233 11.5539C12.2735 11.598 12.3286 11.6679 12.3985 11.7635C12.4683 11.8591 12.5161 11.9528 12.5418 12.0447C12.5676 12.1366 12.5804 12.2377 12.5804 12.348C12.5804 12.6421 12.4775 12.8921 12.2716 13.098C12.0657 13.3039 11.8157 13.4069 11.5216 13.4069C11.4113 13.4069 11.3102 13.394 11.2183 13.3683C11.1264 13.3425 11.0326 13.2947 10.9371 13.2249C10.8415 13.155 10.7716 13.0999 10.7275 13.0594C10.6834 13.019 10.6043 12.9399 10.4904 12.8223C10.3764 12.7046 10.3084 12.6348 10.2863 12.6127C10.0437 12.8407 9.92235 13.1091 9.92235 13.4179C9.92235 13.712 10.0253 13.962 10.2312 14.1679L12.5032 16.451C12.7018 16.6495 12.9518 16.7488 13.2532 16.7488C13.5473 16.7488 13.7973 16.6532 14.0032 16.462L15.6246 14.8517C15.8304 14.6458 15.9334 14.3995 15.9334 14.1127ZM8.1797 6.337C8.1797 6.04288 8.07676 5.79288 7.87088 5.587L5.59882 3.30391C5.39294 3.09803 5.14294 2.99509 4.84882 2.99509C4.56205 2.99509 4.31205 3.09435 4.09882 3.29288L2.4775 4.90318C2.27161 5.10906 2.16867 5.35538 2.16867 5.64215C2.16867 5.93627 2.27161 6.18627 2.4775 6.39215L4.77161 8.68627C4.97014 8.88479 5.22014 8.98406 5.52161 8.98406C5.83044 8.98406 6.09514 8.87009 6.31573 8.64215C6.29367 8.62009 6.22382 8.55207 6.10617 8.4381C5.98853 8.32413 5.90948 8.24509 5.86904 8.20097C5.8286 8.15685 5.77345 8.087 5.7036 7.99141C5.63375 7.89582 5.58595 7.80207 5.56022 7.71016C5.53448 7.61825 5.52161 7.51715 5.52161 7.40685C5.52161 7.11274 5.62455 6.86274 5.83044 6.65685C6.03632 6.45097 6.28632 6.34803 6.58044 6.34803C6.69073 6.34803 6.79183 6.3609 6.88375 6.38663C6.97566 6.41237 7.06941 6.46016 7.165 6.53002C7.26058 6.59987 7.33044 6.65502 7.37455 6.69546C7.41867 6.7359 7.49772 6.81494 7.61169 6.93259C7.72566 7.05024 7.79367 7.12009 7.81573 7.14215C8.05838 6.91421 8.1797 6.64582 8.1797 6.337ZM18.051 14.1127C18.051 14.9951 17.7385 15.7414 17.1135 16.3517L15.4922 17.962C14.8819 18.5723 14.1356 18.8774 13.2532 18.8774C12.3635 18.8774 11.6135 18.5649 11.0032 17.9399L8.73117 15.6569C8.12088 15.0466 7.81573 14.3002 7.81573 13.4179C7.81573 12.5135 8.13926 11.7451 8.78632 11.1127L7.81573 10.1421C7.18338 10.7892 6.41867 11.1127 5.52161 11.1127C4.63926 11.1127 3.88926 10.8039 3.27161 10.1863L0.977496 7.89215C0.359849 7.2745 0.0510254 6.5245 0.0510254 5.64215C0.0510254 4.75979 0.363525 4.01347 0.988525 3.40318L2.60985 1.79288C3.22014 1.18259 3.96647 0.877441 4.84882 0.877441C5.73853 0.877441 6.48853 1.18994 7.09882 1.81494L9.37088 4.09803C9.98117 4.70832 10.2863 5.45465 10.2863 6.337C10.2863 7.24141 9.96279 8.00979 9.31573 8.64215L10.2863 9.61274C10.9187 8.96568 11.6834 8.64215 12.5804 8.64215C13.4628 8.64215 14.2128 8.95097 14.8304 9.56862L17.1246 11.8627C17.7422 12.4804 18.051 13.2304 18.051 14.1127Z" fill="white"/>
</svg>
