<svg width="9" height="11" viewBox="0 0 9 11" fill="none" xmlns="http://www.w3.org/2000/svg">
<g clip-path="url(#clip0_2090_1273)">
<path d="M8.71756 1.32471L7.67529 0.282435C7.49445 0.101596 7.24919 1.3373e-06 6.99344 0L3.53571 0C3.00315 0 2.57143 0.431719 2.57143 0.964286V1.92857H0.964286C0.431719 1.92857 0 2.36029 0 2.89286V9.32143C0 9.854 0.431719 10.2857 0.964286 10.2857H5.46429C5.99685 10.2857 6.42857 9.854 6.42857 9.32143V8.35714H8.03571C8.56828 8.35714 9 7.92542 9 7.39286V2.00656C9 1.75081 8.8984 1.50555 8.71756 1.32471ZM5.34375 9.32143H1.08482C1.05285 9.32143 1.02219 9.30873 0.99959 9.28612C0.976985 9.26352 0.964286 9.23286 0.964286 9.20089V3.01339C0.964286 2.98142 0.976985 2.95077 0.99959 2.92816C1.02219 2.90556 1.05285 2.89286 1.08482 2.89286H2.57143V7.39286C2.57143 7.92542 3.00315 8.35714 3.53571 8.35714H5.46429V9.20089C5.46429 9.23286 5.45159 9.26352 5.42898 9.28612C5.40638 9.30873 5.37572 9.32143 5.34375 9.32143ZM7.91518 7.39286H3.65625C3.62428 7.39286 3.59362 7.38016 3.57102 7.35755C3.54841 7.33495 3.53571 7.30429 3.53571 7.27232V1.08482C3.53571 1.05285 3.54841 1.02219 3.57102 0.99959C3.59362 0.976985 3.62428 0.964286 3.65625 0.964286H5.78571V2.73214C5.78571 2.99843 6.00157 3.21429 6.26786 3.21429H8.03571V7.27232C8.03571 7.30429 8.02302 7.33495 8.00041 7.35755C7.97781 7.38016 7.94715 7.39286 7.91518 7.39286ZM8.03571 2.25H6.75V0.964286H6.9435C6.97546 0.964286 7.00612 0.976982 7.02874 0.999583L8.00042 1.97126C8.01161 1.98246 8.02049 1.99574 8.02654 2.01037C8.0326 2.025 8.03572 2.04067 8.03571 2.0565V2.25Z" fill="white"/>
</g>
<defs>
<clipPath id="clip0_2090_1273">
<rect width="9" height="10.2857" fill="white"/>
</clipPath>
</defs>
</svg>
