<svg width="36" height="36" viewBox="0 0 36 36" fill="none" xmlns="http://www.w3.org/2000/svg">
<path d="M32.0625 6H4.9375C4.42364 6 3.93083 6.20193 3.56748 6.56138C3.20413 6.92082 3 7.40834 3 7.91667V27.0833C3 27.5917 3.20413 28.0792 3.56748 28.4386C3.93083 28.7981 4.42364 29 4.9375 29H32.0625C32.5764 29 33.0692 28.7981 33.4325 28.4386C33.7959 28.0792 34 27.5917 34 27.0833V7.91667C34 7.40834 33.7959 6.92082 33.4325 6.56138C33.0692 6.20193 32.5764 6 32.0625 6V6ZM19.4688 21.3333H9.78125C9.52432 21.3333 9.27792 21.2324 9.09624 21.0526C8.91456 20.8729 8.8125 20.6292 8.8125 20.375C8.8125 20.1208 8.91456 19.8771 9.09624 19.6974C9.27792 19.5176 9.52432 19.4167 9.78125 19.4167H19.4688C19.7257 19.4167 19.9721 19.5176 20.1538 19.6974C20.3354 19.8771 20.4375 20.1208 20.4375 20.375C20.4375 20.6292 20.3354 20.8729 20.1538 21.0526C19.9721 21.2324 19.7257 21.3333 19.4688 21.3333ZM27.2188 17.5H9.78125C9.52432 17.5 9.27792 17.399 9.09624 17.2193C8.91456 17.0396 8.8125 16.7958 8.8125 16.5417C8.8125 16.2875 8.91456 16.0437 9.09624 15.864C9.27792 15.6843 9.52432 15.5833 9.78125 15.5833H27.2188C27.4757 15.5833 27.7221 15.6843 27.9038 15.864C28.0854 16.0437 28.1875 16.2875 28.1875 16.5417C28.1875 16.7958 28.0854 17.0396 27.9038 17.2193C27.7221 17.399 27.4757 17.5 27.2188 17.5ZM27.2188 13.6667H9.78125C9.52432 13.6667 9.27792 13.5657 9.09624 13.386C8.91456 13.2063 8.8125 12.9625 8.8125 12.7083C8.8125 12.4542 8.91456 12.2104 9.09624 12.0307C9.27792 11.851 9.52432 11.75 9.78125 11.75H27.2188C27.4757 11.75 27.7221 11.851 27.9038 12.0307C28.0854 12.2104 28.1875 12.4542 28.1875 12.7083C28.1875 12.9625 28.0854 13.2063 27.9038 13.386C27.7221 13.5657 27.4757 13.6667 27.2188 13.6667Z" fill="white"/>
</svg>
