<svg width="18" height="15" viewBox="0 0 18 15" fill="none" xmlns="http://www.w3.org/2000/svg">
<path d="M15.2149 1.52681C14.1311 0.991542 12.9695 0.595909 11.7548 0.370941C11.7439 0.368666 11.7327 0.370132 11.7227 0.375136C11.7127 0.380139 11.7043 0.388433 11.6988 0.398868C11.5501 0.68512 11.3843 1.05826 11.2681 1.35304C9.97979 1.14222 8.66999 1.14222 7.38163 1.35304C7.25225 1.02634 7.10634 0.707791 6.9446 0.398868C6.93912 0.388304 6.93083 0.379823 6.92083 0.374556C6.91083 0.369289 6.8996 0.367487 6.88865 0.369389C5.6746 0.594357 4.51296 0.989991 3.42854 1.52604C3.41921 1.53032 3.4113 1.53763 3.40587 1.54698C1.2016 5.09605 0.597411 8.55745 0.894194 11.9754C0.89502 11.9838 0.897392 11.9919 0.901167 11.9992C0.904942 12.0066 0.91004 12.013 0.916152 12.0181C2.20273 13.044 3.63773 13.8254 5.16107 14.3298C5.17169 14.3334 5.18305 14.3334 5.19366 14.3298C5.20428 14.3262 5.21365 14.3192 5.22057 14.3097C5.54781 13.8287 5.83963 13.3206 6.08896 12.7868C6.10384 12.7558 6.08967 12.7186 6.05992 12.7062C5.60235 12.5175 5.15901 12.2897 4.73396 12.0251C4.72632 12.0203 4.71988 12.0135 4.71523 12.0053C4.71057 11.9972 4.70784 11.9879 4.70728 11.9782C4.70672 11.9686 4.70834 11.959 4.71201 11.9503C4.71568 11.9415 4.72127 11.9339 4.72829 11.9281C4.81754 11.8559 4.90679 11.7807 4.99178 11.7055C4.99943 11.6987 5.00865 11.6944 5.01841 11.693C5.02816 11.6916 5.03807 11.6933 5.04703 11.6977C7.82858 13.0661 10.841 13.0661 13.59 11.6977C13.599 11.693 13.609 11.6912 13.6189 11.6924C13.6288 11.6936 13.6382 11.6979 13.6459 11.7047C13.7309 11.7807 13.8195 11.8559 13.9094 11.9281C13.9165 11.9338 13.9222 11.9413 13.926 11.95C13.9298 11.9586 13.9315 11.9682 13.9311 11.9778C13.9307 11.9874 13.9281 11.9968 13.9236 12.005C13.9191 12.0133 13.9127 12.0201 13.9052 12.0251C13.4816 12.2919 13.0411 12.5177 12.5785 12.7054C12.5714 12.7082 12.5649 12.7127 12.5595 12.7185C12.5541 12.7242 12.5499 12.7312 12.5472 12.7389C12.5444 12.7466 12.5432 12.7549 12.5436 12.7632C12.544 12.7714 12.546 12.7795 12.5495 12.7868C12.8045 13.3198 13.0963 13.8271 13.4172 14.3089C13.4238 14.3188 13.4331 14.3262 13.4438 14.33C13.4544 14.3339 13.4659 14.3341 13.4767 14.3306C15.0026 13.8276 16.44 13.0458 17.728 12.0181C17.7342 12.0133 17.7395 12.007 17.7434 11.9998C17.7473 11.9926 17.7498 11.9845 17.7506 11.9762C18.1048 8.02451 17.1571 4.59103 15.2368 1.54853C15.2321 1.53865 15.2243 1.53094 15.2149 1.52681ZM6.50474 9.89407C5.66751 9.89407 4.97691 9.06479 4.97691 8.04778C4.97691 7.02999 5.65406 6.20149 6.50474 6.20149C7.3618 6.20149 8.04603 7.03698 8.03257 8.04778C8.03257 9.06557 7.35542 9.89407 6.50474 9.89407V9.89407ZM12.1535 9.89407C11.3156 9.89407 10.6257 9.06479 10.6257 8.04778C10.6257 7.02999 11.3021 6.20149 12.1535 6.20149C13.0106 6.20149 13.6948 7.03698 13.6814 8.04778C13.6814 9.06557 13.0113 9.89407 12.1535 9.89407V9.89407Z" fill="white"/>
</svg>
