<svg width="165" height="45" viewBox="0 0 165 45" fill="none" xmlns="http://www.w3.org/2000/svg">
<path fill-rule="evenodd" clip-rule="evenodd" d="M23.8846 45C37.0756 45 47.7691 34.9264 47.7691 22.5C47.7691 10.0736 37.0756 0 23.8846 0C10.6935 0 0 10.0736 0 22.5C0 34.9264 10.6935 45 23.8846 45ZM34.9045 22.089C36.5995 22.089 37.8798 21.6222 37.8798 20.3612L41.0935 19.7753C41.0935 23.0377 37.2837 24.0788 36.4285 24.2408V34.8146H27.0984V30.2247H20.8784V34.8146H11.5483V24.2408C8.87371 23.7318 6.8833 21.9502 6.8833 19.7984L10.097 20.3612C10.097 21.6222 11.3773 22.089 13.0722 22.089H34.9045ZM13.8986 18.909V20.5567H34.4938V18.909C35.4377 18.7066 39.6426 17.4058 39.6426 13.33C39.6426 14.9054 34.6826 16.2207 32.8118 16.2207H15.5805C13.7098 16.2207 8.74975 14.9343 8.74975 13.3589C8.74975 16.0328 10.9466 18.273 13.8986 18.909ZM17.4575 14.6973L24.2996 8.05655L31.1416 14.6973H17.4575Z" fill="white"/>
<ellipse cx="57.9281" cy="21.4405" rx="4.71377" ry="4.44052" fill="white"/>
<ellipse cx="74.0895" cy="21.4405" rx="4.71377" ry="4.44052" fill="white"/>
<ellipse cx="90.2511" cy="21.4405" rx="4.71377" ry="4.44052" fill="white"/>
<ellipse cx="106.412" cy="21.4405" rx="4.71377" ry="4.44052" fill="white"/>
<path fill-rule="evenodd" clip-rule="evenodd" d="M140.885 45C154.076 45 164.769 34.9264 164.769 22.5C164.769 10.0736 154.076 0 140.885 0C127.693 0 117 10.0736 117 22.5C117 34.9264 127.693 45 140.885 45ZM145.332 11.6842C147.554 12.0359 149.68 12.6544 151.662 13.4911C151.679 13.4976 151.694 13.5096 151.702 13.5251C155.215 18.2813 156.949 23.6486 156.301 29.826C156.3 29.8391 156.295 29.8517 156.288 29.863C156.281 29.8743 156.271 29.884 156.26 29.8915C153.903 31.4981 151.274 32.7203 148.482 33.5065C148.463 33.512 148.442 33.5117 148.422 33.5057C148.403 33.4996 148.386 33.488 148.373 33.4726C147.786 32.7195 147.252 31.9264 146.786 31.0933C146.78 31.0818 146.776 31.0692 146.775 31.0563C146.774 31.0433 146.777 31.0304 146.782 31.0184C146.787 31.0063 146.794 30.9954 146.804 30.9864C146.814 30.9773 146.826 30.9704 146.839 30.966C147.685 30.6725 148.491 30.3196 149.266 29.9024C149.28 29.8947 149.292 29.884 149.3 29.8711C149.308 29.8582 149.313 29.8436 149.314 29.8286C149.314 29.8136 149.311 29.7986 149.304 29.785C149.297 29.7715 149.287 29.7597 149.274 29.7508C149.109 29.6381 148.947 29.5204 148.792 29.4016C148.778 29.391 148.76 29.3843 148.742 29.3824C148.724 29.3805 148.706 29.3833 148.69 29.3907C143.66 31.5299 138.149 31.5299 133.061 29.3907C133.044 29.3837 133.026 29.3812 133.008 29.3833C132.99 29.3855 132.973 29.3922 132.959 29.4028C132.804 29.5204 132.641 29.6381 132.477 29.7508C132.465 29.7599 132.454 29.7718 132.448 29.7855C132.441 29.7992 132.438 29.8142 132.439 29.8292C132.44 29.8443 132.445 29.8588 132.454 29.8716C132.462 29.8844 132.474 29.895 132.488 29.9024C133.265 30.3161 134.077 30.6722 134.914 30.9672C134.927 30.9714 134.938 30.9783 134.948 30.9872C134.958 30.9961 134.966 31.0069 134.971 31.0189C134.976 31.0308 134.978 31.0437 134.977 31.0565C134.977 31.0693 134.973 31.0819 134.967 31.0933C134.509 31.9269 133.978 32.7232 133.378 33.4738C133.365 33.4887 133.348 33.4996 133.329 33.5053C133.309 33.5109 133.289 33.5109 133.269 33.5053C130.482 32.7169 127.857 31.4952 125.503 29.8915C125.492 29.8835 125.483 29.8735 125.476 29.862C125.469 29.8506 125.465 29.8379 125.463 29.8248C124.92 24.4817 126.026 19.0707 130.058 13.5227C130.068 13.5081 130.083 13.4966 130.1 13.4899C132.084 12.652 134.209 12.0335 136.43 11.6818C136.45 11.6788 136.47 11.6817 136.489 11.6899C136.507 11.6981 136.522 11.7114 136.532 11.7279C136.828 12.2108 137.095 12.7088 137.332 13.2195C139.689 12.8899 142.085 12.8899 144.442 13.2195C144.654 12.7587 144.958 12.1754 145.23 11.7279C145.24 11.7116 145.255 11.6986 145.273 11.6908C145.292 11.683 145.312 11.6807 145.332 11.6842ZM132.932 23.685C132.932 25.2748 134.196 26.5712 135.727 26.5712C137.284 26.5712 138.522 25.276 138.522 23.685C138.547 22.1049 137.295 20.7988 135.727 20.7988C134.171 20.7988 132.932 22.0939 132.932 23.685ZM143.266 23.685C143.266 25.2748 144.529 26.5712 146.062 26.5712C147.631 26.5712 148.857 25.276 148.857 23.685C148.881 22.1049 147.63 20.7988 146.062 20.7988C144.504 20.7988 143.266 22.0939 143.266 23.685Z" fill="white"/>
</svg>
