<svg width="36" height="36" viewBox="0 0 36 36" fill="none" xmlns="http://www.w3.org/2000/svg">
<path d="M28.5 27H7.5C6.67157 27 6 27.6716 6 28.5C6 29.3284 6.67157 30 7.5 30H28.5C29.3284 30 30 29.3284 30 28.5C30 27.6716 29.3284 27 28.5 27Z" fill="white"/>
<path d="M6 25.5V28.5C6 29.3284 6.67157 30 7.5 30C8.32843 30 9 29.3284 9 28.5V25.5C9 24.6716 8.32843 24 7.5 24C6.67157 24 6 24.6716 6 25.5Z" fill="white"/>
<path d="M27 25.5V28.5C27 29.3284 27.6716 30 28.5 30C29.3284 30 30 29.3284 30 28.5V25.5C30 24.6716 29.3284 24 28.5 24C27.6716 24 27 24.6716 27 25.5Z" fill="white"/>
<path d="M17.9999 22.5C17.6889 22.5024 17.3849 22.408 17.1299 22.23L11.1299 18C10.8065 17.7706 10.5871 17.4225 10.5197 17.0318C10.4522 16.6411 10.5422 16.2396 10.7699 15.915C10.8836 15.7528 11.0283 15.6147 11.1956 15.5087C11.363 15.4027 11.5497 15.3308 11.7449 15.2974C11.9401 15.2639 12.1401 15.2694 12.3332 15.3137C12.5263 15.3579 12.7087 15.4399 12.8699 15.555L17.9999 19.14L23.0999 15.3C23.4182 15.0613 23.8182 14.9588 24.2121 15.0151C24.6059 15.0713 24.9612 15.2817 25.1999 15.6C25.4386 15.9183 25.5411 16.3183 25.4849 16.7121C25.4286 17.106 25.2182 17.4613 24.8999 17.7L18.8999 22.2C18.6403 22.3947 18.3245 22.5 17.9999 22.5V22.5Z" fill="white"/>
<path d="M18 19.5C17.6022 19.5 17.2206 19.342 16.9393 19.0607C16.658 18.7794 16.5 18.3978 16.5 18V6C16.5 5.60218 16.658 5.22064 16.9393 4.93934C17.2206 4.65804 17.6022 4.5 18 4.5C18.3978 4.5 18.7794 4.65804 19.0607 4.93934C19.342 5.22064 19.5 5.60218 19.5 6V18C19.5 18.3978 19.342 18.7794 19.0607 19.0607C18.7794 19.342 18.3978 19.5 18 19.5Z" fill="white"/>
</svg>
