<svg width="41" height="41" viewBox="0 0 41 41" fill="none" xmlns="http://www.w3.org/2000/svg">
<path d="M5.97925 22.6875L4.04832 31.3481C3.98171 31.6647 3.98399 31.9928 4.055 32.3083C4.12601 32.6239 4.26396 32.919 4.45876 33.172C4.65356 33.4251 4.90029 33.6297 5.18094 33.771C5.46158 33.9123 5.76905 33.9866 6.08088 33.9886C6.22617 34.0038 6.37258 34.0038 6.51788 33.9886L14.9022 31.9818L31 15.3154L22.0161 6L5.97925 22.6875Z" fill="white"/>
<path d="M36.3736 6.6496L30.3402 0.616211C29.9435 0.22155 29.4067 0 28.8472 0C28.2876 0 27.7508 0.22155 27.3542 0.616211L24 3.97037L33.0296 13L36.3838 9.64584C36.5801 9.44856 36.7355 9.21451 36.8413 8.95708C36.947 8.69965 37.0009 8.4239 37 8.1456C36.999 7.86731 36.9432 7.59193 36.8357 7.33523C36.7282 7.07853 36.5712 6.84554 36.3736 6.6496V6.6496Z" fill="white"/>
</svg>
