<svg width="15" height="15" viewBox="0 0 15 15" fill="none" xmlns="http://www.w3.org/2000/svg">
<path fill-rule="evenodd" clip-rule="evenodd" d="M1 7.5C1 5.77609 1.68482 4.12279 2.90381 2.90381C4.12279 1.68482 5.77609 1 7.5 1C9.22391 1 10.8772 1.68482 12.0962 2.90381C13.3152 4.12279 14 5.77609 14 7.5C14 9.22391 13.3152 10.8772 12.0962 12.0962C10.8772 13.3152 9.22391 14 7.5 14C5.77609 14 4.12279 13.3152 2.90381 12.0962C1.68482 10.8772 1 9.22391 1 7.5V7.5ZM7.5 1.93236C6.02337 1.93236 4.60722 2.51895 3.56308 3.56308C2.51895 4.60722 1.93236 6.02337 1.93236 7.5C1.93236 8.97663 2.51895 10.3928 3.56308 11.4369C4.60722 12.4811 6.02337 13.0676 7.5 13.0676C8.97663 13.0676 10.3928 12.4811 11.4369 11.4369C12.4811 10.3928 13.0676 8.97663 13.0676 7.5C13.0676 6.02337 12.4811 4.60722 11.4369 3.56308C10.3928 2.51895 8.97663 1.93236 7.5 1.93236V1.93236ZM9.81028 5.1907C9.90228 5.28272 9.95396 5.40751 9.95396 5.53763C9.95396 5.66775 9.90228 5.79255 9.81028 5.88457L8.19387 7.5L9.81028 9.11543C9.90243 9.20757 9.95419 9.33255 9.95419 9.46286C9.95419 9.59317 9.90243 9.71814 9.81028 9.81028C9.71814 9.90243 9.59317 9.95419 9.46286 9.95419C9.33255 9.95419 9.20757 9.90243 9.11543 9.81028L7.5 8.19387L5.88457 9.81028C5.83894 9.85591 5.78478 9.8921 5.72517 9.91679C5.66556 9.94148 5.60167 9.95419 5.53714 9.95419C5.47262 9.95419 5.40873 9.94148 5.34912 9.91679C5.28951 9.8921 5.23534 9.85591 5.18972 9.81028C5.14409 9.76466 5.1079 9.71049 5.08321 9.65088C5.05852 9.59127 5.04581 9.52738 5.04581 9.46286C5.04581 9.39833 5.05852 9.33444 5.08321 9.27483C5.1079 9.21522 5.14409 9.16106 5.18972 9.11543L6.80613 7.5L5.18972 5.88457C5.09757 5.79243 5.04581 5.66745 5.04581 5.53714C5.04581 5.40683 5.09757 5.28186 5.18972 5.18972C5.28186 5.09757 5.40683 5.04581 5.53714 5.04581C5.66745 5.04581 5.79243 5.09757 5.88457 5.18972L7.5 6.80613L9.11543 5.18972C9.16101 5.14402 9.21517 5.10776 9.27478 5.08302C9.3344 5.05829 9.39831 5.04555 9.46286 5.04555C9.5274 5.04555 9.59131 5.05829 9.65093 5.08302C9.71055 5.10776 9.7647 5.14402 9.81028 5.18972V5.1907Z" fill="url(#paint0_linear_2037_6)"/>
<defs>
<linearGradient id="paint0_linear_2037_6" x1="13.1332" y1="13.9995" x2="-1.34061" y2="2.67211" gradientUnits="userSpaceOnUse">
<stop offset="0.00728546" stop-color="#FF00A8"/>
<stop offset="1" stop-color="#800F37"/>
</linearGradient>
</defs>
</svg>
