<svg width="16" height="16" viewBox="0 0 16 16" fill="none" xmlns="http://www.w3.org/2000/svg">
<path d="M3.24713 7.42559C3.24711 7.3385 3.26433 7.25225 3.29779 7.17182C3.33126 7.09139 3.3803 7.01835 3.44212 6.9569C3.50393 6.89545 3.57729 6.84681 3.65799 6.81375C3.73869 6.7807 3.82513 6.76389 3.91235 6.7643L5.01523 6.76791C5.19108 6.76791 5.35972 6.83767 5.48407 6.96183C5.60841 7.086 5.67827 7.2544 5.67827 7.43V11.5944C5.80251 11.5576 5.96185 11.5184 6.1364 11.4775C6.25759 11.449 6.3656 11.3805 6.44292 11.2831C6.52023 11.1856 6.56231 11.0649 6.56235 10.9406V5.77507C6.56234 5.68811 6.57949 5.602 6.61281 5.52165C6.64613 5.44131 6.69497 5.36831 6.75654 5.30681C6.81812 5.24532 6.89122 5.19653 6.97167 5.16325C7.05212 5.12996 7.13836 5.11283 7.22544 5.11282H8.3305C8.50634 5.11285 8.67497 5.18261 8.79931 5.30677C8.92365 5.43093 8.99351 5.59932 8.99354 5.77491V10.5694C8.99354 10.5694 9.2701 10.4575 9.53969 10.3439C9.63979 10.3017 9.72522 10.2309 9.7853 10.1404C9.84539 10.05 9.87748 9.94388 9.87757 9.83534V4.11955C9.87756 4.03261 9.8947 3.94651 9.92802 3.86619C9.96133 3.78586 10.0102 3.71287 10.0717 3.65139C10.1333 3.58991 10.2064 3.54114 10.2868 3.50786C10.3673 3.47459 10.4535 3.45747 10.5406 3.45747H11.6456C11.8215 3.45747 11.9901 3.52722 12.1145 3.65138C12.2388 3.77555 12.3087 3.94395 12.3087 4.11955V8.82619C13.2668 8.13288 14.2377 7.29893 15.0083 6.29621C15.1201 6.15066 15.194 5.97974 15.2236 5.7987C15.2532 5.61766 15.2374 5.43212 15.1777 5.25865C14.6563 3.74144 13.6784 2.42206 12.3776 1.48092C11.0768 0.539774 9.5166 0.0228087 7.9104 0.000706957C3.57915 -0.0573925 -0.000387994 3.47313 3.74775e-05 7.79867C-0.00421527 9.16741 0.353538 10.513 1.03712 11.6994C1.1314 11.8617 1.27008 11.9937 1.4369 12.08C1.60371 12.1663 1.79173 12.2033 1.97885 12.1866C2.18792 12.1682 2.4482 12.1422 2.75762 12.1059C2.8923 12.0906 3.01664 12.0264 3.10696 11.9255C3.19727 11.8245 3.24726 11.694 3.24739 11.5586L3.24713 7.42559Z" fill="white"/>
<path d="M3.04766 14.4993C4.26428 15.3505 5.70202 15.8614 7.20182 15.9755C8.70162 16.0897 10.205 15.8025 11.5457 15.1459C12.8863 14.4894 14.012 13.4889 14.7981 12.2552C15.5843 11.0215 16.0002 9.60277 16 8.15586C16 7.97524 15.9913 7.79665 15.9787 7.61902C12.999 11.8928 7.49725 13.8908 3.04761 14.4995" fill="white"/>
</svg>
