<svg width="83" height="130" viewBox="0 0 83 130" fill="none" xmlns="http://www.w3.org/2000/svg">
<path d="M82.1173 22.8747V22.3747H82.0086C81.67 20.834 80.5494 19.4204 78.7327 18.4657L46.9877 1.78353C45.3458 0.920659 43.301 0.5 41.2773 0.5C39.2536 0.5 37.2088 0.920659 35.5669 1.78353L3.82195 18.4657L4.05454 18.9083L3.82194 18.4657C1.97179 19.438 0.881934 20.8232 0.584027 22.3777L0.507467 22.3782L0.503957 22.8711L0.502095 23.1327C0.49944 23.2289 0.499726 23.3253 0.502945 23.4219L0.503144 106.309C0.498335 106.435 0.499334 106.58 0.504164 106.743C0.558402 108.592 1.65543 110.396 3.82195 111.535L35.5668 128.217C37.2088 129.08 39.2536 129.5 41.2773 129.5C43.301 129.5 45.3458 129.08 46.9877 128.217L78.7327 111.535L78.7328 111.535C80.8952 110.398 82.0706 108.61 82.1172 106.74H82.1173V106.728V22.8747ZM6.49994 70.5186L35.5668 85.7928C37.2088 86.6557 39.2536 87.0764 41.2773 87.0764C43.301 87.0764 45.3458 86.6557 46.9877 85.7928L76.1199 70.4836V106.126L46.3105 121.838C46.2184 121.883 46.1268 121.927 46.0356 121.972C44.358 122.789 42.8346 123.531 41.286 123.528L40.9608 123.518C39.3796 123.412 37.7284 122.599 36.0342 121.698L36.0311 121.696L6.49994 106.259V70.5186ZM38.2782 80.4657L7.33463 64.2046L38.2782 47.9434V80.4657ZM38.133 47.4549L38.2782 47.7312V47.7312L38.133 47.4549ZM44.2764 80.4656V47.9435L75.2201 64.2046L44.2764 80.4656ZM38.3656 39.6789L7.33463 23.3718L38.3656 7.06477C39.0955 6.68123 40.1669 6.47151 41.2773 6.47151C42.3878 6.47151 43.4591 6.68123 44.1889 7.06476L75.2201 23.3718L44.189 39.6789C43.4591 40.0624 42.3878 40.2721 41.2773 40.2721C40.1669 40.2721 39.0955 40.0624 38.3656 39.6789ZM76.1199 57.9254L49.2178 43.788L76.1199 29.6506V57.9254ZM33.3361 43.788L6.49994 57.8904V29.6856L33.3361 43.788Z" fill="#C42873" stroke="#C32873"/>
</svg>
