<svg width="183" height="183" viewBox="0 0 183 183" fill="none" xmlns="http://www.w3.org/2000/svg">
<circle cx="91.5" cy="91.5" r="91.5" fill="white" fill-opacity="0.15"/>
<path d="M133.117 49.8747V49.3747H133.009C132.67 47.834 131.549 46.4204 129.733 45.4657L97.9877 28.7835C96.3458 27.9207 94.301 27.5 92.2773 27.5C90.2536 27.5 88.2088 27.9207 86.5669 28.7835L54.822 45.4657L55.0545 45.9083L54.8219 45.4657C52.9718 46.438 51.8819 47.8232 51.584 49.3777L51.5075 49.3782L51.504 49.8711L51.5021 50.1327C51.4994 50.2289 51.4997 50.3253 51.5029 50.4219L51.5031 133.309C51.4983 133.435 51.4993 133.58 51.5042 133.743C51.5584 135.592 52.6554 137.396 54.822 138.535L86.5668 155.217C88.2088 156.08 90.2536 156.5 92.2773 156.5C94.301 156.5 96.3458 156.08 97.9877 155.217L129.733 138.535L129.733 138.535C131.895 137.398 133.071 135.61 133.117 133.74H133.117V133.728V49.8747ZM57.4999 97.5186L86.5668 112.793C88.2088 113.656 90.2536 114.076 92.2773 114.076C94.301 114.076 96.3458 113.656 97.9877 112.793L127.12 97.4836V133.126L97.3105 148.838C97.2184 148.883 97.1268 148.927 97.0356 148.972C95.358 149.789 93.8346 150.531 92.286 150.528L91.9608 150.518C90.3796 150.412 88.7284 149.599 87.0342 148.698L87.0311 148.696L57.4999 133.259V97.5186ZM89.2782 107.466L58.3346 91.2046L89.2782 74.9434V107.466ZM89.133 74.4549L89.2782 74.7312V74.7312L89.133 74.4549ZM95.2764 107.466V74.9435L126.22 91.2046L95.2764 107.466ZM89.3656 66.6789L58.3346 50.3718L89.3656 34.0648C90.0955 33.6812 91.1669 33.4715 92.2773 33.4715C93.3878 33.4715 94.4591 33.6812 95.1889 34.0648L126.22 50.3718L95.189 66.6789C94.4591 67.0624 93.3878 67.2721 92.2773 67.2721C91.1669 67.2721 90.0955 67.0624 89.3656 66.6789ZM127.12 84.9254L100.218 70.788L127.12 56.6506V84.9254ZM84.3361 70.788L57.4999 84.8904V56.6856L84.3361 70.788Z" fill="white" stroke="white"/>
</svg>
