<svg width="20" height="20" viewBox="0 0 20 20" fill="none" xmlns="http://www.w3.org/2000/svg">
<path d="M12.95 14.9C13.2285 14.9 13.4955 15.0106 13.6925 15.2075C13.8894 15.4045 14 15.6715 14 15.95C14 16.2285 13.8894 16.4955 13.6925 16.6925C13.4955 16.8894 13.2285 17 12.95 17H6.65C6.37152 17 6.10445 16.8894 5.90754 16.6925C5.71062 16.4955 5.6 16.2285 5.6 15.95C5.6 15.6715 5.71062 15.4045 5.90754 15.2075C6.10445 15.0106 6.37152 14.9 6.65 14.9H12.95ZM15.75 8.95C16.0285 8.95 16.2955 9.06063 16.4925 9.25754C16.6894 9.45445 16.8 9.72152 16.8 10C16.8 10.2785 16.6894 10.5455 16.4925 10.7425C16.2955 10.9394 16.0285 11.05 15.75 11.05H3.85C3.57152 11.05 3.30445 10.9394 3.10754 10.7425C2.91062 10.5455 2.8 10.2785 2.8 10C2.8 9.72152 2.91062 9.45445 3.10754 9.25754C3.30445 9.06063 3.57152 8.95 3.85 8.95H15.75ZM18.55 3C18.8285 3 19.0955 3.11062 19.2925 3.30754C19.4894 3.50445 19.6 3.77152 19.6 4.05C19.6 4.32848 19.4894 4.59555 19.2925 4.79246C19.0955 4.98938 18.8285 5.1 18.55 5.1H1.05C0.771523 5.1 0.504451 4.98938 0.307538 4.79246C0.110625 4.59555 0 4.32848 0 4.05C0 3.77152 0.110625 3.50445 0.307538 3.30754C0.504451 3.11062 0.771523 3 1.05 3H18.55Z" fill="white"/>
</svg>
