<svg width="26" height="15" viewBox="0 0 26 15" fill="none" xmlns="http://www.w3.org/2000/svg">
<path d="M8.57143 13.9286C8.57143 13.6444 8.68431 13.3719 8.88524 13.171C9.08617 12.97 9.3587 12.8571 9.64286 12.8571H16.0714C16.3556 12.8571 16.6281 12.97 16.829 13.171C17.03 13.3719 17.1429 13.6444 17.1429 13.9286C17.1429 14.2127 17.03 14.4853 16.829 14.6862C16.6281 14.8871 16.3556 15 16.0714 15H9.64286C9.3587 15 9.08617 14.8871 8.88524 14.6862C8.68431 14.4853 8.57143 14.2127 8.57143 13.9286ZM4.28571 7.5C4.28571 7.21584 4.3986 6.94332 4.59953 6.74239C4.80046 6.54145 5.07298 6.42857 5.35714 6.42857H20.3571C20.6413 6.42857 20.9138 6.54145 21.1148 6.74239C21.3157 6.94332 21.4286 7.21584 21.4286 7.5C21.4286 7.78416 21.3157 8.05668 21.1148 8.25761C20.9138 8.45855 20.6413 8.57143 20.3571 8.57143H5.35714C5.07298 8.57143 4.80046 8.45855 4.59953 8.25761C4.3986 8.05668 4.28571 7.78416 4.28571 7.5ZM0 1.07143C0 0.787268 0.112883 0.514746 0.313814 0.313814C0.514746 0.112883 0.787268 0 1.07143 0H24.6429C24.927 0 25.1995 0.112883 25.4005 0.313814C25.6014 0.514746 25.7143 0.787268 25.7143 1.07143C25.7143 1.35559 25.6014 1.62811 25.4005 1.82904C25.1995 2.02997 24.927 2.14286 24.6429 2.14286H1.07143C0.787268 2.14286 0.514746 2.02997 0.313814 1.82904C0.112883 1.62811 0 1.35559 0 1.07143Z" fill="white"/>
</svg>
