<svg width="19" height="19" viewBox="0 0 19 19" fill="none" xmlns="http://www.w3.org/2000/svg">
<g clip-path="url(#clip0_530_75)">
<path d="M11.2709 0.877441H5.31632C4.71959 0.877441 4.14729 1.11449 3.72533 1.53645C3.30338 1.95841 3.06632 2.5307 3.06632 3.12744V16.6274C3.06632 17.2242 3.30338 17.7965 3.72533 18.2184C4.14729 18.6404 4.71959 18.8774 5.31632 18.8774H14.3163C14.9131 18.8774 15.4854 18.6404 15.9073 18.2184C16.3293 17.7965 16.5663 17.2242 16.5663 16.6274V6.17282C16.5663 5.87447 16.4477 5.58837 16.2367 5.37744L12.0663 1.20707C11.8554 0.996073 11.5693 0.877505 11.2709 0.877441V0.877441ZM11.5038 4.81494V2.56494L14.8788 5.93994H12.6288C12.3305 5.93994 12.0443 5.82141 11.8333 5.61044C11.6223 5.39946 11.5038 5.11331 11.5038 4.81494ZM8.29307 9.47919C8.34537 9.42689 8.40746 9.38541 8.47579 9.3571C8.54412 9.3288 8.61736 9.31423 8.69132 9.31423C8.76528 9.31423 8.83852 9.3288 8.90685 9.3571C8.97519 9.38541 9.03727 9.42689 9.08957 9.47919C9.14187 9.53149 9.18336 9.59358 9.21166 9.66191C9.23996 9.73024 9.25453 9.80348 9.25453 9.87744C9.25453 9.9514 9.23996 10.0246 9.21166 10.093C9.18336 10.1613 9.14187 10.2234 9.08957 10.2757L7.2367 12.1274L9.08957 13.9792C9.19519 14.0848 9.25453 14.2281 9.25453 14.3774C9.25453 14.5268 9.19519 14.6701 9.08957 14.7757C8.98395 14.8813 8.84069 14.9407 8.69132 14.9407C8.54195 14.9407 8.39869 14.8813 8.29307 14.7757L6.04307 12.5257C5.99069 12.4734 5.94913 12.4114 5.92077 12.343C5.89241 12.2747 5.87782 12.2014 5.87782 12.1274C5.87782 12.0535 5.89241 11.9802 5.92077 11.9119C5.94913 11.8435 5.99069 11.7814 6.04307 11.7292L8.29307 9.47919V9.47919ZM11.3396 9.47919L13.5896 11.7292C13.642 11.7814 13.6835 11.8435 13.7119 11.9119C13.7402 11.9802 13.7548 12.0535 13.7548 12.1274C13.7548 12.2014 13.7402 12.2747 13.7119 12.343C13.6835 12.4114 13.642 12.4734 13.5896 12.5257L11.3396 14.7757C11.2339 14.8813 11.0907 14.9407 10.9413 14.9407C10.7919 14.9407 10.6487 14.8813 10.5431 14.7757C10.4374 14.6701 10.3781 14.5268 10.3781 14.3774C10.3781 14.2281 10.4374 14.0848 10.5431 13.9792L12.3959 12.1274L10.5431 10.2757C10.4908 10.2234 10.4493 10.1613 10.421 10.093C10.3927 10.0246 10.3781 9.9514 10.3781 9.87744C10.3781 9.80348 10.3927 9.73024 10.421 9.66191C10.4493 9.59358 10.4908 9.53149 10.5431 9.47919C10.5954 9.42689 10.6575 9.38541 10.7258 9.3571C10.7941 9.3288 10.8674 9.31423 10.9413 9.31423C11.0153 9.31423 11.0885 9.3288 11.1569 9.3571C11.2252 9.38541 11.2873 9.42689 11.3396 9.47919V9.47919Z" fill="white"/>
</g>
<defs>
<clipPath id="clip0_530_75">
<rect width="18" height="18" fill="white" transform="translate(0.81633 0.877441)"/>
</clipPath>
</defs>
</svg>
