<svg width="68" height="68" viewBox="0 0 68 68" fill="none" xmlns="http://www.w3.org/2000/svg">
<circle cx="33.9998" cy="33.9998" r="33.9998" fill="#1D1F32"/>
<path d="M32.5628 13.0585C33.5577 12.5157 35.0716 12.5157 36.0665 13.0585L46.2185 18.5974C46.8177 18.9244 47.1468 19.4115 47.2057 19.9144H47.2154V47.7561C47.2022 48.3046 46.87 48.8495 46.2185 49.2051L36.0665 54.744C35.0716 55.2869 33.5577 55.2869 32.5628 54.744L22.4108 49.2051C21.762 48.8511 21.4506 48.3023 21.4352 47.7561C21.4337 47.7023 21.4335 47.6575 21.435 47.6203L21.4349 20.0932C21.4339 20.0631 21.4338 20.033 21.4346 20.003L21.4352 19.9144L21.4397 19.9144C21.4848 19.406 21.799 18.9313 22.4108 18.5974L32.5628 13.0585ZM45.6172 35.4471L36.0665 40.6581C35.0716 41.2009 33.5577 41.2009 32.5628 40.6581L23.0329 35.4588V47.701L32.5628 52.873C33.1009 53.1702 33.6595 53.4597 34.2056 53.4966L34.3147 53.5002C34.8837 53.5022 35.4362 53.2037 35.9965 52.9211L45.6172 47.6565V35.4471ZM19.784 47.1508C19.784 48.2173 19.904 48.9185 20.1423 49.4126C20.3398 49.822 20.6361 50.1348 21.1773 50.5156L21.2081 50.5372C21.3269 50.6199 21.4577 50.7065 21.6169 50.8081L21.8047 50.927L22.3814 51.2866L21.5543 52.699L20.9089 52.2963L20.8004 52.2275C20.6138 52.1083 20.4592 52.0064 20.3149 51.9058C18.7727 50.8317 18.1976 49.661 18.1862 47.2249L18.186 47.1508H19.784ZM33.5154 27.9847C33.4415 28.011 33.3723 28.0413 33.3091 28.0757L23.1571 33.6147C23.1464 33.6205 23.1363 33.6263 23.1266 33.6319L23.118 33.6371L23.1339 33.6465L23.1571 33.6595L33.3091 39.1985C33.3723 39.2329 33.4415 39.2632 33.5154 39.2895V27.9847ZM35.1139 27.9847V39.2895C35.1878 39.2632 35.257 39.2329 35.3202 39.1985L45.4722 33.6595C45.4829 33.6537 45.493 33.6479 45.5027 33.6423L45.5113 33.6371L45.4953 33.6277L45.4722 33.6147L35.3202 28.0757C35.257 28.0413 35.1878 28.011 35.1139 27.9847ZM45.6172 21.8894L36.5103 26.8582L45.6172 31.827V21.8894ZM23.0329 21.901V31.8154L32.1188 26.8582L23.0329 21.901ZM35.3202 14.5181C34.7922 14.23 33.8371 14.23 33.3091 14.5181L23.1571 20.0571C23.1464 20.0629 23.1363 20.0686 23.1266 20.0743L23.118 20.0794L23.1339 20.0889L23.1571 20.1019L33.3091 25.6408C33.8371 25.9289 34.7922 25.9289 35.3202 25.6408L45.4722 20.1019C45.4829 20.0961 45.493 20.0903 45.5027 20.0846L45.5113 20.0794L45.4953 20.07L45.4722 20.0571L35.3202 14.5181ZM47.1176 15.1255L47.763 15.5281L47.8715 15.5969C48.0581 15.7159 48.2127 15.8182 48.357 15.9186C49.8992 16.9926 50.4744 18.1636 50.4855 20.5995L50.4859 20.6737H48.8879C48.8879 19.607 48.7679 18.9059 48.5296 18.4119C48.3321 18.0025 48.0357 17.6896 47.4946 17.3089L47.4638 17.2873C47.345 17.2046 47.2142 17.118 47.055 17.0162L46.8672 16.8974L46.2905 16.5379L47.1176 15.1255Z" fill="white"/>
</svg>
