<svg width="108" height="108" viewBox="0 0 108 108" fill="none" xmlns="http://www.w3.org/2000/svg">
<path d="M49.0534 3.97708C51.5484 2.67431 55.3447 2.67431 57.8397 3.97708L83.2985 17.2706C84.8011 18.0552 85.6264 19.2244 85.7742 20.4314H85.7985V87.2518C85.7654 88.5683 84.9324 89.8759 83.2985 90.7294L57.8397 104.023C55.3447 105.326 51.5484 105.326 49.0534 104.023L23.5946 90.7294C21.9676 89.8799 21.1868 88.5627 21.1481 87.2518C21.1443 87.1227 21.1438 87.0152 21.1475 86.9259L21.1473 20.8606C21.1448 20.7882 21.1445 20.7159 21.1466 20.644L21.1481 20.4314L21.1595 20.4313C21.2726 19.2111 22.0604 18.0718 23.5946 17.2706L49.0534 3.97708ZM81.7907 57.7101L57.8397 70.2164C55.3447 71.5192 51.5484 71.5192 49.0534 70.2164L25.1548 57.738V87.1195L49.0534 99.5324C50.4029 100.246 51.8036 100.941 53.1731 101.029L53.4466 101.038C54.8737 101.043 56.2592 100.326 57.6642 99.648L81.7907 87.0128V57.7101ZM17.0073 85.7991C17.0073 88.3587 17.3082 90.0417 17.9058 91.2274C18.4011 92.21 19.1443 92.9606 20.5012 93.8746L20.5787 93.9264C20.8765 94.1249 21.2046 94.3329 21.6039 94.5767L22.0748 94.862L23.5209 95.725L21.4469 99.1149L19.8283 98.1483L19.5563 97.9833C19.0883 97.6972 18.7004 97.4526 18.3386 97.2112C14.4712 94.6333 13.0289 91.8235 13.0004 85.9768L13 85.7991H17.0073ZM51.4424 39.8003C51.257 39.8632 51.0833 39.936 50.9249 40.0187L25.4661 53.3123C25.4394 53.3262 25.4139 53.34 25.3897 53.3536L25.3681 53.3661L25.4081 53.3886L25.4661 53.4198L50.9249 66.7134C51.0833 66.7961 51.257 66.8688 51.4424 66.9318V39.8003ZM55.4508 39.8003V66.9318C55.6362 66.8688 55.8099 66.7961 55.9682 66.7134L81.427 53.4198C81.4537 53.4058 81.4792 53.392 81.5035 53.3784L81.525 53.3661L81.485 53.3434L81.427 53.3123L55.9682 40.0187C55.8099 39.936 55.6362 39.8632 55.4508 39.8003ZM81.7907 25.1714L58.9527 37.0966L81.7907 49.0218V25.1714ZM25.1548 25.1993V48.9939L47.9399 37.0966L25.1548 25.1993ZM55.9682 7.48015C54.6443 6.78884 52.2489 6.78884 50.9249 7.48015L25.4661 20.7738C25.4394 20.7877 25.4139 20.8015 25.3897 20.8151L25.3681 20.8275L25.4081 20.8501L25.4661 20.8813L50.9249 34.1749C52.2489 34.8662 54.6443 34.8662 55.9682 34.1749L81.427 20.8813C81.4537 20.8673 81.4792 20.8536 81.5035 20.8398L81.525 20.8275L81.485 20.8049L81.427 20.7738L55.9682 7.48015ZM85.5531 8.93793L87.1717 9.9043L87.4437 10.0694C87.9117 10.355 88.2995 10.6003 88.6614 10.8415C92.5288 13.4191 93.9711 16.2295 93.9992 22.0756L94 22.2537H89.9927C89.9927 19.6935 89.6918 18.0109 89.0942 16.8254C88.5989 15.8428 87.8557 15.0919 86.4988 14.1782L86.4213 14.1263C86.1235 13.9278 85.7954 13.7199 85.3961 13.4755L84.9252 13.1904L83.4791 12.3277L85.5531 8.93793Z" fill="white"/>
</svg>
