<svg width="67" height="67" viewBox="0 0 67 67" fill="none" xmlns="http://www.w3.org/2000/svg">
<path d="M41.8749 20.351V8.37468C41.8749 6.83926 40.6187 5.58301 39.0833 5.58301H27.9166C26.3812 5.58301 25.1249 6.83926 25.1249 8.37468V20.351C25.1249 20.7139 25.2645 21.0768 25.5437 21.3281L32.5228 28.3072C33.0812 28.8656 33.9466 28.8656 34.5049 28.3072L41.4841 21.3281C41.7353 21.0768 41.8749 20.7418 41.8749 20.351ZM20.3512 25.1247H8.37492C6.8395 25.1247 5.58325 26.381 5.58325 27.9164V39.0831C5.58325 40.6185 6.8395 41.8747 8.37492 41.8747H20.3512C20.7141 41.8747 21.077 41.7351 21.3283 41.456L28.3074 34.4768C28.8658 33.9185 28.8658 33.0531 28.3074 32.4947L21.3283 25.5156C21.1999 25.3882 21.0473 25.288 20.8794 25.2209C20.7116 25.1537 20.5319 25.121 20.3512 25.1247ZM25.1249 46.6485V58.6247C25.1249 60.1601 26.3812 61.4164 27.9166 61.4164H39.0833C40.6187 61.4164 41.8749 60.1601 41.8749 58.6247V46.6485C41.8772 46.4654 41.841 46.2839 41.7689 46.1156C41.6968 45.9473 41.5903 45.796 41.4562 45.6714L34.477 38.6922C33.9187 38.1339 33.0533 38.1339 32.4949 38.6922L25.5158 45.6714C25.2645 45.9226 25.1249 46.2576 25.1249 46.6485ZM45.6437 25.5435L38.6645 32.5226C38.1062 33.081 38.1062 33.9464 38.6645 34.5047L45.6437 41.4839C45.8949 41.7351 46.2578 41.9026 46.6208 41.9026H58.6249C60.1603 41.9026 61.4166 40.6464 61.4166 39.111V27.9443C61.4166 26.4089 60.1603 25.1526 58.6249 25.1526H46.6487C46.4626 25.1385 46.2757 25.1663 46.1018 25.2339C45.9278 25.3015 45.7713 25.4073 45.6437 25.5435Z" fill="url(#paint0_linear_1966_1258)"/>
<defs>
<linearGradient id="paint0_linear_1966_1258" x1="14.0796" y1="14.0794" x2="43.2101" y2="61.4164" gradientUnits="userSpaceOnUse">
<stop stop-color="#6500B4"/>
<stop offset="1" stop-color="#B02FFF"/>
</linearGradient>
</defs>
</svg>
