<svg width="29" height="29" viewBox="0 0 29 29" fill="none" xmlns="http://www.w3.org/2000/svg">
<path d="M14.5 1.8125C7.49356 1.8125 1.8125 7.49356 1.8125 14.5C1.8125 21.5064 7.49356 27.1875 14.5 27.1875C21.5064 27.1875 27.1875 21.5064 27.1875 14.5C27.1875 7.49356 21.5064 1.8125 14.5 1.8125ZM14.5 25.0352C8.68301 25.0352 3.96484 20.317 3.96484 14.5C3.96484 8.68301 8.68301 3.96484 14.5 3.96484C20.317 3.96484 25.0352 8.68301 25.0352 14.5C25.0352 20.317 20.317 25.0352 14.5 25.0352Z" fill="#9F7B8D"/>
<path d="M17.6605 8.96904C16.8109 8.22422 15.6895 7.81641 14.5 7.81641C13.3105 7.81641 12.1891 8.22705 11.3395 8.96904C10.4559 9.74219 9.96875 10.7815 9.96875 11.8945V12.1098C9.96875 12.2344 10.0707 12.3363 10.1953 12.3363H11.5547C11.6793 12.3363 11.7812 12.2344 11.7812 12.1098V11.8945C11.7812 10.6456 13.0019 9.62891 14.5 9.62891C15.9981 9.62891 17.2188 10.6456 17.2188 11.8945C17.2188 12.7753 16.5957 13.5824 15.63 13.9534C15.0296 14.1828 14.5198 14.585 14.1545 15.1117C13.7835 15.6498 13.5909 16.2955 13.5909 16.9497V17.5586C13.5909 17.6832 13.6929 17.7852 13.8175 17.7852H15.1769C15.3015 17.7852 15.4034 17.6832 15.4034 17.5586V16.9157C15.4049 16.6408 15.4892 16.3727 15.6453 16.1464C15.8014 15.92 16.022 15.746 16.2785 15.647C17.9494 15.0041 19.0284 13.5314 19.0284 11.8945C19.0313 10.7815 18.5441 9.74219 17.6605 8.96904ZM13.3672 20.7305C13.3672 21.0309 13.4865 21.319 13.699 21.5315C13.9114 21.7439 14.1996 21.8633 14.5 21.8633C14.8004 21.8633 15.0886 21.7439 15.301 21.5315C15.5135 21.319 15.6328 21.0309 15.6328 20.7305C15.6328 20.43 15.5135 20.1419 15.301 19.9294C15.0886 19.717 14.8004 19.5977 14.5 19.5977C14.1996 19.5977 13.9114 19.717 13.699 19.9294C13.4865 20.1419 13.3672 20.43 13.3672 20.7305Z" fill="#9F7B8D"/>
</svg>
