<svg version="1.1" xmlns="http://www.w3.org/2000/svg" x="0px" y="0px" xmlns:xlink="http://www.w3.org/1999/xlink" viewBox="0 0 420 420" style="enable-background:new 0 0 420 420;" xml:space="preserve"><g id="background"><g id="Bloody"><radialGradient id="radial-gradient" cx="210" cy="212" r="210" gradientTransform="matrix(1, 0, 0, -1, 0, 422)" gradientUnits="userSpaceOnUse"> <stop offset="0" stop-color="#8c134f"/> <stop offset="1" stop-color="#6d0738"/> </radialGradient><path d="M389.9,419.5H30.1a30,30,0,0,1-30-30V29.5a30,30,0,0,1,30-30H390a30,30,0,0,1,30,30v360A30.11,30.11,0,0,1,389.9,419.5Z" transform="translate(0 0.5)" fill="url(#radial-gradient)"/> <g> <path id="Main_Spin" fill="#410824" stroke="#410824" stroke-miterlimit="10" d="M210,63.3c-192.6,3.5-192.6,290,0,293.4 C402.6,353.2,402.6,66.7,210,63.3z M340.8,237.5c-0.6,2.9-1.4,5.7-2.2,8.6c-43.6-13.6-80.9,37.8-54.4,75.1 c-4.9,3.2-10.1,6.1-15.4,8.8c-33.9-50.6,14.8-117.8,73.3-101.2C341.7,231.7,341.4,234.6,340.8,237.5z M331.4,265.5 c-7.9,17.2-19.3,32.4-33.3,44.7c-15.9-23.3,7.6-55.7,34.6-47.4C332.3,263.7,331.8,264.6,331.4,265.5z M332.5,209.6 C265,202.4,217,279,252.9,336.5c-5.8,1.9-11.7,3.5-17.7,4.7c-40.3-73.8,24.6-163.5,107.2-148c0.6,6,1.2,12.2,1.1,18.2 C339.9,210.6,336.2,210,332.5,209.6z M87.8,263.9c28.7-11.9,56,24,36.3,48.4C108.5,299.2,96.2,282.5,87.8,263.9z M144.3,312.7 c17.8-38.8-23.4-81.6-62.6-65.5c-1.7-5.7-2.9-11.5-3.7-17.4c60-20.6,112.7,49.4,76,101.5c-5.5-2.4-10.7-5.3-15.6-8.5 C140.7,319.6,142.7,316.3,144.3,312.7z M174.2,330.4c32.6-64-28.9-138.2-97.7-118c-0.3-6.1,0.4-12.4,0.9-18.5 c85-18.6,151.7,71.7,110.8,147.8c-6.1-1-12.2-2.4-18.1-4.1C171.6,335.3,173,332.9,174.2,330.4z M337,168.6c-7-0.7-14.4-0.8-21.4-0.2 c-43.1-75.9-167.4-75.9-210.7-0.2c-7.3-0.6-14.9,0-22.1,0.9C118.2,47.7,301.1,47.3,337,168.6z M281.1,175.9c-3,1.1-5.9,2.3-8.7,3.6 c-29.6-36.1-93.1-36.7-123.4-1.2c-5.8-2.5-11.9-4.5-18-6.1c36.6-50.4,122.9-50,159,0.7C286.9,173.8,284,174.8,281.1,175.9z M249.6,193.1c-2.4,1.8-4.7,3.6-7,5.6c-16.4-15.6-46-16.4-63.2-1.5c-4.7-3.8-9.6-7.3-14.7-10.5c23.9-24.1,69.1-23.5,92.2,1.3 C254.4,189.6,252,191.3,249.6,193.1z M211.9,239.2c-5.2-10.8-11.8-20.7-19.7-29.4c10.7-8.1,27.9-7.3,37.9,1.6 C222.8,219.7,216.7,229.1,211.9,239.2z"> <animateTransform attributeName="transform" begin="0s" dur="20s" type="rotate" from="-360 210 210" to="0 210 210" repeatCount="indefinite" /> </path> <g id="Spin_Inverse"> <circle fill="none" stroke="#410824" stroke-width="7" stroke-dasharray="22.2609,22.2609" cx="210" cy="210" r="163"> <animateTransform attributeName="transform" begin="0s" dur="20s" type="rotate" from="360 210 210" to="0 210 210" repeatCount="indefinite" /> </circle> </g> <g id="Spin"> <circle fill="none" stroke="#410824" stroke-width="7" stroke-dasharray="22.2041,22.2041" cx="210" cy="210" r="183.8"> <animateTransform attributeName="transform" begin="0s" dur="20s" type="rotate" from="-360 210 210" to="0 210 210" repeatCount="indefinite" /> </circle> </g> </g></g></g><g id="body"><g id="Yokai Blood"><path id="Neck" display="inline"  fill="#E31466" stroke="#000000" stroke-width="3" stroke-linecap="round" stroke-miterlimit="10" d="M175.8,276.8c0.8,10,1.1,20.2-0.7,30.4c-0.5,2.6-2.2,4.9-4.7,6.3c-16.4,8.9-41.4,17.2-70.2,25.2c-8.1,2.3-9.5,12.4-2.1,16.4c71.9,38.5,146.3,42.5,224.4,7c7.2-3.3,7.3-12.7,0.1-16c-22.3-10.3-43.5-23.1-54.9-29.9c-3-1.8-4.8-5.2-5.1-8.3c-0.7-7.7-0.7-12.5-0.1-22.2c0.7-11.3,2.6-21.2,4.6-29.3"  /><path id="Shadow" display="inline" opacity="0.51"  enable-background="new    " d="M178.1,279c0,0,24.2,35,41,30.6s41.7-21.6,41.7-21.6c1.2-9.1,1.9-17.1,3.7-26c-4.8,4.9-10.4,9.2-18.8,14.5c-11.3,7.1-22,11.3-29.8,13.3L178.1,279z"  /><path id="Head" display="inline"  fill="#E31466" stroke="#000000" stroke-width="3" stroke-linecap="round" stroke-miterlimit="10" d="M313.9,168.8c-0.6-0.8-12.2,8.3-12.2,8.3c0.3-4.9,11.8-53.1-17.3-86c-15.9-17.4-42.2-27.1-69.9-27.7c-24.5-0.5-48.7,10.9-61.6,24.4c-33.5,35-20.1,98.2-20.1,98.2c0.6,10.9,9.1,63.4,21.3,74.6c0,0,33.7,25.7,42.4,30.6c8.8,5,17.1,2.3,17.1,2.3c16-5.9,47.7-25.9,56.8-37.6l0.2-0.2c6.9-9.1,3.9-5.8,11.2-14.8c1.3-1.5,3-2.2,4.8-1.8c4.1,0.8,11.7,1.3,13.3-7c2.4-11.5,2.6-25.1,8.6-35.5C311.7,190.8,315.9,184.6,313.9,168.8z"  /><path id="Ear" display="inline"  fill="#E31466" stroke="#000000" stroke-width="3" stroke-linecap="round" stroke-miterlimit="10" d="M141.9,236c0.1,1.1-8.3,3-9.7-12.1s-7.3-31-12.6-48c-3.8-12.2,12.2,6.7,12.2,6.7"  /><g id="Ear2" display="inline" ><path d="M304,174.7c-0.5,1.3-0.3,2.2-1.2,3.1c-0.9,0.8-2.3,2.1-3.2,2.9c-1.8,1.7-4.4,3-6,5s-2.9,4.1-4.2,6.3c-0.6,1-1.3,2.2-1.9,3.3l-1.7,3.4l-0.2-0.1l1.4-3.6c0.5-1.1,0.9-2.4,1.5-3.5c1.1-2.3,2.3-4.6,3.8-6.8s3-4.4,5.1-5.9c1-0.8,2.2-1.5,3.2-2.1c1.1-0.6,2.2-1.1,3.1-2L304,174.7z" /></g><g id="Body" display="inline" ><g><path d="M222.2,339.7c18.6-1.3,37.3-2,55.9-2C259.5,339,240.9,339.8,222.2,339.7z" /></g><g><path d="M142.3,337.2c16.9,0.1,33.7,1,50.6,2.3C176,339.2,159.3,338.5,142.3,337.2z" /></g><g><path d="M199.3,329.2c7.3,14.3,4.6,10.4,17.1,0.1C207.5,339,204.7,346.2,199.3,329.2z" /></g><path opacity="0.19"  enable-background="new    " d="M199.3,329.2c0,0,3.5,9.3,5.3,10.1c1.8,0.8,11.6-10,11.6-10C209.9,330.9,204,331.1,199.3,329.2z" /></g> <line x1="132.69" y1="184.23" x2="130.73" y2="182.28" fill="#e31466" stroke="#000" stroke-linecap="round" stroke-miterlimit="10" stroke-width="2"/></g></g><g id="mark"><g id="Double Scar"><path id="Scar" display="inline" fill="#FF7478" d="M239.9,133.5c0,0-7.5,51,0.2,101.2C240.1,234.7,248.8,188.3,239.9,133.5z"  /><path id="Scar" display="inline" fill="#FF7478" d="M163.7,135.1c0,0-6.9,51.1,1.6,101.2C165.2,236.2,173.1,189.8,163.7,135.1z"  /></g></g><g id="mouth"><g id="Stitch"><g display="inline" ><path d="M146.7,249c10.6,1.8,21.4,2.9,32.1,3.9c2.7,0.2,5.3,0.5,8,0.7s5.4,0.3,8,0.5c5.4,0.2,10.7,0.2,16.2,0.1c5.4-0.1,10.7-0.5,16.2-0.7l8-0.6c1.4-0.1,2.7-0.2,4.1-0.3l4-0.4c10.7-1,21.3-2.9,31.9-4.8v0.1l-7.9,1.9l-4,0.8c-1.4,0.3-2.6,0.5-4,0.7l-8,1.4c-2.7,0.4-5.3,0.6-8,1c-5.3,0.7-10.7,0.9-16.2,1.4c-5.4,0.2-10.7,0.4-16.2,0.3c-10.7-0.1-21.6-0.3-32.3-0.9C167.9,252.9,157.1,251.5,146.7,249L146.7,249z" /></g><path display="inline" stroke="#000000" stroke-width="0.75" stroke-miterlimit="10" d="M192.9,254.2c0,0,7.8-2.1,17.5,0.2C210.4,254.4,201.6,257.3,192.9,254.2z"  /><g display="inline" ><path fill="#FFFFFF" stroke="#000000" stroke-width="0.75" stroke-miterlimit="10" d="M215.2,250.7c0,0,1.1-3.4,2.8-1c0,0,0.5,5.3-0.7,9.9c0,0-1,2.2-1.6-0.6C215.2,256.2,216.3,255.9,215.2,250.7z" /><path fill="#FFFFFF" stroke="#000000" stroke-width="0.75" stroke-miterlimit="10" d="M223.3,250.9c0,0,1-3.1,2.5-0.9c0,0,0.5,4.7-0.6,8.9c0,0-0.9,1.9-1.4-0.5C223.3,255.8,224.2,255.5,223.3,250.9z" /><path fill="#FFFFFF" stroke="#000000" stroke-width="0.75" stroke-miterlimit="10" d="M229.7,250.8c0,0,0.9-2.7,2.2-0.8c0,0,0.4,4.1-0.5,7.7c0,0-0.8,1.7-1.1-0.4C229.7,255,230.6,254.8,229.7,250.8z" /><path fill="#FFFFFF" stroke="#000000" stroke-width="0.75" stroke-miterlimit="10" d="M235.2,250.5c0,0,0.8-2.4,2-0.7c0,0,0.4,3.6-0.5,6.9c0,0-0.7,1.5-1-0.4C235.4,254.3,236,254.1,235.2,250.5z" /></g><g display="inline" ><path fill="#FFFFFF" stroke="#000000" stroke-width="0.75" stroke-miterlimit="10" d="M188.4,250.3c0,0-1.1-3.4-2.8-1c0,0-0.5,5.3,0.7,9.9c0,0,1,2.2,1.6-0.6S187.1,255.5,188.4,250.3z" /><path fill="#FFFFFF" stroke="#000000" stroke-width="0.75" stroke-miterlimit="10" d="M180.4,250.5c0,0-1-3.1-2.5-0.9c0,0-0.5,4.7,0.6,8.9c0,0,0.9,1.9,1.4-0.5C180.3,255.5,179.4,255,180.4,250.5z" /><path fill="#FFFFFF" stroke="#000000" stroke-width="0.75" stroke-miterlimit="10" d="M173.8,250.4c0,0-0.9-2.7-2.2-0.8c0,0-0.4,4.1,0.5,7.7c0,0,0.8,1.7,1.1-0.4C173.6,254.7,172.9,254.4,173.8,250.4z" /><path fill="#FFFFFF" stroke="#000000" stroke-width="0.75" stroke-miterlimit="10" d="M168.2,250c0,0-0.8-2.4-2-0.7c0,0-0.4,3.6,0.5,6.9c0,0,0.7,1.5,1-0.4C168.2,253.9,167.5,253.7,168.2,250z" /></g></g></g><g id="nose"><g id="Kitsune Moon"><path display="inline" stroke="#000000" stroke-miterlimit="10" d="M193.2,224.9c5.1,0.6,10.3,1,16.4,0c0.4-0.1,0.7,0.5,0.3,0.8l-7.4,5.9c-0.5,0.4-1.3,0.4-1.8,0l-7.9-6C192.5,225.4,192.7,224.8,193.2,224.9z"  /></g></g><g id="eyes"><g id="Stitch"><g id="No_Fill"> <g> <path stroke="#000000" stroke-miterlimit="10" d="M219.1,197.3c0,0,3.1-22.5,37.9-15.5C257.1,181.7,261,208.8,219.1,197.3z"/> <g> <path d="M227.3,182.1c-1,0.5-1.9,1.3-2.7,2s-1.6,1.6-2.3,2.3c-0.7,0.8-1.5,1.7-2.1,2.5l-1,1.4c-0.3,0.4-0.6,0.9-1,1.4 c0.2-0.5,0.4-1,0.6-1.6c0.2-0.5,0.5-1,0.8-1.6c0.6-0.9,1.3-2,2.1-2.8s1.7-1.7,2.6-2.3C225,182.7,226.1,182.2,227.3,182.1z"/> </g> <g> <path d="M245.4,200.9c1.3-0.2,2.5-0.5,3.6-1s2.2-1,3.2-1.8c1-0.7,1.9-1.6,2.7-2.5s1.6-2,2.3-3c-0.3,1.3-0.8,2.5-1.7,3.5 c-0.7,1-1.7,2.1-2.8,2.8c-1,0.7-2.3,1.4-3.5,1.7C248,201,246.7,201.2,245.4,200.9z"/> </g> </g> <g> <path stroke="#000000" stroke-miterlimit="10" d="M183.9,197.3c0,0-3.1-22.5-37.9-15.5C146,181.7,142,208.8,183.9,197.3z"/> <g> <path d="M175.8,182.1c1,0.5,1.9,1.3,2.7,2s1.6,1.6,2.3,2.3c0.7,0.8,1.5,1.7,2.1,2.5l1,1.4c0.3,0.4,0.6,0.9,1,1.4 c-0.2-0.5-0.4-1-0.6-1.6c-0.2-0.5-0.5-1-0.8-1.6c-0.6-0.9-1.3-2-2.1-2.8s-1.7-1.7-2.6-2.3 C178.1,182.7,176.9,182.2,175.8,182.1z"/> </g> <g> <path d="M157.6,200.9c-1.3-0.2-2.5-0.5-3.6-1s-2.2-1-3.2-1.8c-1-0.7-1.9-1.6-2.7-2.5s-1.6-2-2.3-3c0.3,1.3,0.8,2.5,1.7,3.5 c0.7,1,1.7,2.1,2.8,2.8c1,0.7,2.3,1.4,3.5,1.7C155,201,156.5,201.2,157.6,200.9z"/> </g> </g> </g> <g id="Shadow" opacity="0.43"> <path opacity="0.5" enable-background="new " d="M218.3,191.6c0,0,4.6-10.8,19.9-13.6c0,0-12.2,0-16.1,2.8 C218.9,183.8,218.3,191.6,218.3,191.6z"/> </g> <g id="Shadow_00000029025467326919416900000002242143269665406345_" opacity="0.43"> <path opacity="0.5" enable-background="new " d="M184.9,191.3c0,0-4.8-10.6-20.1-13.4c0,0,12.4-0.2,16.3,2.6 C184.4,183.6,184.9,191.3,184.9,191.3z"/> </g><g id="Strip"> <path d="M231.3,188.2s1-3.2,2.6-.9a30.48,30.48,0,0,1-.6,9.2s-.9,2-1.5-.5C231.3,193.3,232.3,193,231.3,188.2Z" transform="translate(-0.4)" fill="#fff" stroke="#000" stroke-miterlimit="10" stroke-width="0.75"/> <path d="M239.4,187.7s1-3.1,2.5-.9a28.56,28.56,0,0,1-.6,8.9s-.9,1.9-1.4-.5S240.5,192.4,239.4,187.7Z" transform="translate(-0.4)" fill="#fff" stroke="#000" stroke-miterlimit="10" stroke-width="0.75"/> <path d="M245.9,187.7s.9-2.7,2.2-.8a26.25,26.25,0,0,1-.5,7.7s-.8,1.7-1.1-.4S246.9,191.8,245.9,187.7Z" transform="translate(-0.4)" fill="#fff" stroke="#000" stroke-miterlimit="10" stroke-width="0.75"/> <path d="M251.4,187.4s.8-2.4,2-.7a21.16,21.16,0,0,1-.5,6.9s-.7,1.5-1-.4C251.4,191.2,252.1,191,251.4,187.4Z" transform="translate(-0.4)" fill="#fff" stroke="#000" stroke-miterlimit="10" stroke-width="0.75"/> </g> <g id="Strip-2" > <path d="M173.2,187.9s-1-3.1-2.5-.9a27.9,27.9,0,0,0,.6,8.8s.9,1.9,1.4-.5S172.2,192.5,173.2,187.9Z" transform="translate(-0.4)" fill="#fff" stroke="#000" stroke-miterlimit="10" stroke-width="0.75"/> <path d="M165.4,187.7s-1-3.1-2.5-.9a28.56,28.56,0,0,0,.6,8.9s.9,1.9,1.4-.5S164.4,192.4,165.4,187.7Z" transform="translate(-0.4)" fill="#fff" stroke="#000" stroke-miterlimit="10" stroke-width="0.75"/> <path d="M158.9,187.7s-.9-2.7-2.2-.8a26.25,26.25,0,0,0,.5,7.7s.8,1.7,1.1-.4C158.9,192,158.1,191.8,158.9,187.7Z" transform="translate(-0.4)" fill="#fff" stroke="#000" stroke-miterlimit="10" stroke-width="0.75"/> <path d="M153.4,187.4s-.8-2.4-2-.7a21.16,21.16,0,0,0,.5,6.9s.7,1.5,1-.4C153.4,191.2,152.6,191,153.4,187.4Z" transform="translate(-0.4)" fill="#fff" stroke="#000" stroke-miterlimit="10" stroke-width="0.75"/> </g></g></g><g id="eyebrow"><g id="Kitsune Blood"><path display="inline"  fill="#B50D5E" d="M238.3,166.9c-12.3-3.9-19-1.1-21.3,0.2c-0.1,0-0.2,0.1-0.3,0.2c-0.3,0.1-0.5,0.4-0.6,0.4l0,0l0,0l0,0c-0.9,0.8-1.6,2-1.6,3.3c-0.2,2.7,1.9,5,4.6,5.2c2.7,0.2,5-1.9,5.2-4.6c0.1-0.3,0-0.6,0-1C228.9,166.5,238.3,166.9,238.3,166.9z"  /><path display="inline"  fill="#B50D5E" d="M162.6,166.8c12.3-3.9,19-1,21.3,0.3c0.1,0,0.2,0.1,0.3,0.2c0.3,0.1,0.5,0.4,0.6,0.4l0,0l0,0l0,0c0.9,0.8,1.6,2,1.6,3.3c0.2,2.7-1.9,5-4.6,5.2c-2.7,0.2-5-1.9-5.2-4.6c-0.1-0.3,0-0.6,0-1C172,166.5,162.6,166.8,162.6,166.8z"  /></g></g><g id="earrings"><g id="Tomoe Drop Moon"><g display="inline" ><ellipse cx="291.2" cy="231.8" rx="3.5" ry="3.5" /><line fill="none" stroke="#000000" stroke-miterlimit="10" x1="291.2" y1="231.8" x2="291.2" y2="259.8" /><path  d="M292.2,258.2c-2.5-1.2-5.5,0-6.7,2.5c-1.1,2.5,0,5.5,2.5,6.7c0.1,0.1,0.2,0.1,0.4,0.1c-0.9,3.2-4.1,5.5-4.1,5.5c6.6-1.9,9.1-5.6,10-7.4c0.1-0.2,0.3-0.4,0.4-0.7C295.8,262.4,294.7,259.4,292.2,258.2z M288.5,262.1c0.4-0.8,1.4-1.3,2.2-0.8c0.8,0.4,1.3,1.4,0.8,2.2c-0.4,0.8-1.4,1.3-2.2,0.8C288.5,264,288.1,262.9,288.5,262.1z" /></g><g display="inline" ><ellipse cx="139" cy="231.7" rx="2.6" ry="2.8" /><line fill="none" stroke="#000000" stroke-miterlimit="10" x1="138.5" y1="231.8" x2="138.5" y2="259.8" /><path  d="M140.2,258.9c-2.5-1.1-5.5,0-6.7,2.5c-1.1,2.5,0,5.5,2.5,6.7c0.1,0.1,0.2,0.1,0.4,0.1c-0.9,3.2-4.1,5.5-4.1,5.5c6.8-2,9.3-5.9,10.1-7.6c0.1-0.2,0.2-0.3,0.3-0.5C143.8,263.1,142.7,260.1,140.2,258.9z M136.5,262.8c0.4-0.8,1.4-1.3,2.2-0.8s1.3,1.4,0.8,2.2c-0.4,0.8-1.4,1.3-2.2,0.8C136.5,264.7,136,263.7,136.5,262.8z" /></g></g></g><g id="hair"><g id="Flame Pure"><path display="inline" fill="#FFDAEA" d="M292.2,168.8c-2.7,2.1-7.7,6-10.4,8.1c3.5-8,7-18.9,7.2-24c-2.4,1.6-6.8,4.7-9.3,4.1 c3.9-12.3,4.2-11.6,4.6-24.2c-2.5,2-8.9,9.3-11.5,11.2c0.5-5.9,0.8-14.3,1.4-20.1c-3.3,3.4-7.6,2.6-12.5,4c-0.5-5,1.3-7,3.5-11.6 c-9.8,4-24.7,6-34.9,8.6c-0.1-2.4-0.6-6.3,0.7-8.1c-10.4,5-26.7,9.3-31.8,12.4c-4.1-2.8-16.9-9.3-19.7-12.9 c-0.1,1.6,0.7,8,0.6,9.6c-5.4-3.8-6.2-3-12-6.8c0.5,2.6,0.3,3.6,0.8,6.2c-7.2-2.8-14.4-5.7-21.6-8.5c1.8,4,3.5,8,5.3,12 c-3.6,0.6-9.9-1.8-12-4.9c-3,7.8-0.1,12.2,0,20.5c-2-2-3.9-6.4-5.4-8.6c0.5,9.6,1,19.1,1.6,28.7c-1.6-0.6-2.7-2-3.1-3.5 c-0.1,5.8,2.6,20.6,4,26.4c-0.8-0.8-5.5-10.9-5.7-12.1c4.3,7.9,4.1,10.5,5.4,26.3c0.9-0.9-5.5-17-8-19.4 c-1.7-15.4-5.3-33.7-9.1-48.8c2,3.6,3.9,7.3,5.8,11c-0.7-13.8-0.7-27.6-0.1-41.4c-0.2,5.9,0.7,11.9,2.6,17.4 c0.5-11.3,2.2-22.4,5.2-33.3c-0.1,4.1,0.4,8.1,1.6,12c2.8-10,6.3-19.8,10.3-29.3c0.8,4.7,1.7,9.4,2.4,14.1 c3.6-9.9,7.9-15.5,14.6-23.7c0.2,4,0.4,7.8,0.7,11.8c6.9-8.9,15-16.8,24.1-23.2c-0.5,4.4-1,8.8-1.6,13.1 c6.1-5.7,11.7-9.7,17.8-15.4c0.3,4.4,1.3,7,1.6,11.5c4-5.4,8.1-9.6,12.1-15c1.4,6.1,2,11.3,2.2,17.6c4.8-4.7,8.1-10,8.4-16.7 c4.2,7.4,7.9,10.6,9.8,18.9c2.5-8.4,4.8-11,4.7-19.8c4.4,10.1,6.8,14.3,9.6,24c0.9-4.6,4.1-11.5,5-16c6.3,6.7,9.1,14.6,12.4,23 c0.7-7.6,5.7-10.6,3.5-17.9c6.5,10.7,4.6,15.2,8.6,27.7c2.9-5.3,4.4-13.3,5.5-19.4c2.7,8,7.7,23.1,9.4,31.5 c0.7-2.7,3.1-3.3,3.5-9.9c2.8,7.7,3.3,8.4,3.5,23.4c1.1-7.4,4.3-3.3,4.5-10.8c3.8,9.6,1.4,14.8,0.4,22.6c-0.1,0.9,4.2-0.4,5.1-1.5 c1-1.3-2.1,12.4-2.8,14.3c-0.5,1.4-1.9,2.7-1.4,8.4c2.2-3.1,2.5-3,4.3-6.4c1.3,11.3-2.3,6-4.7,25.5c1.9-2.5,3.9-1.1,5.6-3.5 c-2.8,7.8-0.4,9.8-6.9,14c-3.3,2.1-11.2,10.3-14.2,13.5c1.6-3.3-2.9,9.8-8.2,18.8C284.5,199.5,289.7,170.7,292.2,168.8z"/></g></g><g id="accessory"><g id="Horn Kin"><g display="inline" ><linearGradient id="Gradientkinhorn" gradientUnits="userSpaceOnUse" x1="255.6" y1="-356" x2="304.8" y2="-356" gradientTransform="matrix(1 0 0 -1 0 -270)"><stop offset="0" stop-color="#FFB451" /><stop offset="0.5259" stop-color="#F7EC94" /><stop offset="1" stop-color="#FF9121" /></linearGradient><path  fill="url(#Gradientkinhorn)" stroke="#000000" stroke-miterlimit="10" d="M255.6,94.5c0,0,36.9-18,49.2-42.8c0,0-1.8,38.5-25.6,68.6C267.8,114.5,259.6,105.9,255.6,94.5z" /><linearGradient id="SVGID_00000038399919860379428020000001905538202183111590_" gradientUnits="userSpaceOnUse" x1="255.4985" y1="-377.2515" x2="279.7115" y2="-377.2515" gradientTransform="matrix(1 0 0 -1 0 -270)"><stop offset="0" style="stop-color:#FF9519" /><stop offset="1" style="stop-color:#FAF299" /></linearGradient><path fill="none" stroke="url(#SVGID_00000038399919860379428020000001905538202183111590_)" stroke-width="2" stroke-miterlimit="10" d="M256.5,94.8c-0.1,0.2,4.9,18.5,22.9,24.4" /></g><g display="inline" ><linearGradient id="SVGID_00000104701910233288470920000016524603851795941768_" gradientUnits="userSpaceOnUse" x1="113.3" y1="-355.45" x2="162.5" y2="-355.45" gradientTransform="matrix(1 0 0 -1 0 -270)"><stop offset="0" style="stop-color:#FFB451" /><stop offset="0.5259" style="stop-color:#F7EC94" /><stop offset="1" style="stop-color:#FF9121" /></linearGradient><path  fill="url(#SVGID_00000104701910233288470920000016524603851795941768_)" stroke="#000000" stroke-miterlimit="10" d="M162.5,94c0,0-36.9-18.1-49.2-43c0,0,1.8,38.6,25.6,68.9C150.3,114.1,158.5,105.4,162.5,94z" /><linearGradient id="SVGID_00000029029394541148799170000005544420656428366773_" gradientUnits="userSpaceOnUse" x1="138.6048" y1="-376.8041" x2="162.8014" y2="-376.8041" gradientTransform="matrix(1 0 0 -1 0 -270)"><stop offset="0" style="stop-color:#FAF299" /><stop offset="1" style="stop-color:#FF9121" /></linearGradient><path fill="none" stroke="url(#SVGID_00000029029394541148799170000005544420656428366773_)" stroke-width="2" stroke-miterlimit="10" d="M161.8,94.3c0.1,0.2-5.1,19-22.9,24.5" /></g></g></g><g id="mask"><g id="Stitch"><g display="inline"><path d="M175.8,299.3c7.2,1.8,14.4,2.9,21.7,3.9c1.9,0.2,3.5,0.5,5.4,0.7s3.6,0.3,5.4,0.5c3.6,0.2,7.2,0.2,10.9,0.1c3.6-0.1,7.2-0.5,10.9-0.7l5.4-0.6c0.9-0.1,1.9-0.2,2.7-0.3l2.7-0.4c7.2-1,14.4-2.9,21.5-4.8v0.1l-5.5,1.9l-2.7,0.8c-0.9,0.3-1.8,0.5-2.7,0.7l-5.4,1.4c-1.9,0.4-3.5,0.6-5.4,1c-3.5,0.7-7.2,0.9-10.9,1.4c-3.6,0.2-7.2,0.4-10.9,0.3c-7.2-0.1-14.6-0.3-21.8-0.9C190.1,303.1,182.8,301.8,175.8,299.3L175.8,299.3z" /></g><path display="inline" stroke="#000000" stroke-width="0.75" stroke-miterlimit="10" d="M206.9,304.5c0,0,5.3-2.1,11.8,0.2C218.8,304.7,212.8,307.6,206.9,304.5z" /><g display="inline"><path fill="#FFFFFF" stroke="#000000" stroke-width="0.75" stroke-miterlimit="10" d="M222.1,301c0,0,0.7-3.4,1.9-1c0,0,0.3,5.3-0.5,9.9c0,0-0.7,2.2-1-0.6C222.1,306.5,222.7,306.2,222.1,301z" /><path fill="#FFFFFF" stroke="#000000" stroke-width="0.75" stroke-miterlimit="10" d="M227.4,301.2c0,0,0.7-3.1,1.7-0.9c0,0,0.3,4.7-0.4,8.9c0,0-0.6,1.9-0.9-0.5C227.4,306.1,228.2,305.8,227.4,301.2z" /><path fill="#FFFFFF" stroke="#000000" stroke-width="0.75" stroke-miterlimit="10" d="M231.8,301.1c0,0,0.6-2.7,1.5-0.8c0,0,0.3,4.1-0.3,7.7c0,0-0.5,1.7-0.7-0.4C231.8,305.3,232.3,305.1,231.8,301.1z" /><path fill="#FFFFFF" stroke="#000000" stroke-width="0.75" stroke-miterlimit="10" d="M235.5,300.8c0,0,0.5-2.4,1.4-0.7c0,0,0.3,3.6-0.3,6.9c0,0-0.5,1.5-0.7-0.4C235.6,304.6,236,304.4,235.5,300.8z" /></g><g display="inline"><path fill="#FFFFFF" stroke="#000000" stroke-width="0.75" stroke-miterlimit="10" d="M203.8,300.5c0,0-0.7-3.4-1.9-1c0,0-0.3,5.3,0.5,9.9c0,0,0.7,2.2,1-0.6C203.8,306,203.1,305.8,203.8,300.5z" /><path fill="#FFFFFF" stroke="#000000" stroke-width="0.75" stroke-miterlimit="10" d="M198.5,300.8c0,0-0.7-3.1-1.7-0.9c0,0-0.3,4.7,0.4,8.9c0,0,0.6,1.9,0.9-0.5C198.5,305.8,197.7,305.3,198.5,300.8z" /><path fill="#FFFFFF" stroke="#000000" stroke-width="0.75" stroke-miterlimit="10" d="M194.1,300.6c0,0-0.6-2.7-1.5-0.8c0,0-0.3,4.1,0.3,7.7c0,0,0.5,1.7,0.7-0.4C193.9,305,193.6,304.7,194.1,300.6z" /><path fill="#FFFFFF" stroke="#000000" stroke-width="0.75" stroke-miterlimit="10" d="M190.4,300.3c0,0-0.5-2.4-1.4-0.7c0,0-0.3,3.6,0.3,6.9c0,0,0.5,1.5,0.7-0.4C190.4,304.2,189.9,304,190.4,300.3z" /></g></g></g></svg>