<svg width="32" height="32" viewBox="0 0 32 32" fill="none" xmlns="http://www.w3.org/2000/svg">
<path d="M3 1H7.33333V5.19047H3V1Z" fill="white"/>
<path d="M20.3333 30.3333H11.6667V1H20.3333C22.6319 1 24.8363 1.88299 26.4616 3.45472C28.0869 5.02645 29 7.15818 29 9.38094V21.9524C29 24.1751 28.0869 26.3068 26.4616 27.8786C24.8363 29.4503 22.6319 30.3333 20.3333 30.3333ZM16 26.1428H20.3333C21.4826 26.1428 22.5848 25.7013 23.3975 24.9155C24.2101 24.1296 24.6667 23.0637 24.6667 21.9524V9.38094C24.6667 8.26956 24.2101 7.2037 23.3975 6.41783C22.5848 5.63197 21.4826 5.19047 20.3333 5.19047H16V26.1428Z" fill="white"/>
<path d="M3 9.38086H7.33333V30.3332H3V9.38086Z" fill="white"/>
</svg>
