<svg width="44" height="44" viewBox="0 0 44 44" fill="none" xmlns="http://www.w3.org/2000/svg">
<path d="M22.0001 3.66699C18.3741 3.66699 14.8295 4.74222 11.8146 6.75672C8.79973 8.77121 6.4499 11.6345 5.0623 14.9845C3.67469 18.3344 3.31163 22.0207 4.01903 25.577C4.72642 29.1333 6.4725 32.4 9.03647 34.9639C11.6004 37.5279 14.8671 39.274 18.4234 39.9814C21.9798 40.6888 25.666 40.3257 29.016 38.9381C32.3659 37.5505 35.2292 35.2007 37.2437 32.1858C39.2582 29.1709 40.3334 25.6263 40.3334 22.0003C40.3334 19.5928 39.8592 17.2088 38.9379 14.9845C38.0165 12.7602 36.6661 10.7391 34.9637 9.0367C33.2613 7.33429 31.2403 5.98387 29.016 5.06253C26.7917 4.1412 24.4077 3.66699 22.0001 3.66699V3.66699ZM23.8334 29.3337C23.8334 29.8199 23.6403 30.2862 23.2965 30.63C22.9526 30.9738 22.4863 31.167 22.0001 31.167C21.5139 31.167 21.0475 30.9738 20.7037 30.63C20.3599 30.2862 20.1668 29.8199 20.1668 29.3337V20.167C20.1668 19.6808 20.3599 19.2144 20.7037 18.8706C21.0475 18.5268 21.5139 18.3337 22.0001 18.3337C22.4863 18.3337 22.9526 18.5268 23.2965 18.8706C23.6403 19.2144 23.8334 19.6808 23.8334 20.167V29.3337ZM22.0001 16.5003C21.6375 16.5003 21.283 16.3928 20.9815 16.1914C20.6801 15.9899 20.4451 15.7036 20.3063 15.3686C20.1675 15.0336 20.1312 14.665 20.202 14.3093C20.2727 13.9537 20.4473 13.627 20.7037 13.3706C20.9601 13.1142 21.2868 12.9396 21.6424 12.8689C21.9981 12.7981 22.3667 12.8345 22.7017 12.9732C23.0367 13.112 23.323 13.347 23.5245 13.6484C23.7259 13.9499 23.8334 14.3044 23.8334 14.667C23.8334 15.1532 23.6403 15.6195 23.2965 15.9634C22.9526 16.3072 22.4863 16.5003 22.0001 16.5003Z" fill="url(#paint0_linear_2263_182)"/>
<defs>
<linearGradient id="paint0_linear_2263_182" x1="14.5" y1="12" x2="35" y2="37" gradientUnits="userSpaceOnUse">
<stop stop-color="#036471"/>
<stop offset="1" stop-color="#1CD9C2"/>
</linearGradient>
</defs>
</svg>
