<svg width="19" height="19" viewBox="0 0 19 19" fill="none" xmlns="http://www.w3.org/2000/svg">
<path d="M9.5 18C10.6164 18.0014 11.7222 17.7822 12.7536 17.355C13.7851 16.9277 14.7219 16.3008 15.5103 15.5103C16.3008 14.7219 16.9277 13.7851 17.355 12.7536C17.7822 11.7222 18.0014 10.6164 18 9.5C18.0014 8.38356 17.7822 7.27784 17.3549 6.24638C16.9277 5.21493 16.3008 4.27807 15.5103 3.48965C14.7219 2.69917 13.7851 2.07228 12.7536 1.64502C11.7222 1.21777 10.6164 0.998561 9.5 1.00001C8.38356 0.998584 7.27784 1.2178 6.24638 1.64506C5.21493 2.07231 4.27807 2.69919 3.48965 3.48965C2.69919 4.27807 2.07231 5.21493 1.64506 6.24638C1.2178 7.27784 0.998584 8.38356 1.00001 9.5C0.998561 10.6164 1.21777 11.7222 1.64502 12.7536C2.07228 13.7851 2.69917 14.7219 3.48965 15.5103C4.27807 16.3008 5.21493 16.9277 6.24638 17.3549C7.27784 17.7822 8.38356 18.0014 9.5 18V18Z" stroke="white" stroke-width="1.7" stroke-linejoin="round"/>
<path fill-rule="evenodd" clip-rule="evenodd" d="M9.5 3.9751C9.78179 3.9751 10.052 4.08704 10.2513 4.2863C10.4506 4.48555 10.5625 4.7558 10.5625 5.0376C10.5625 5.31939 10.4506 5.58964 10.2513 5.7889C10.052 5.98815 9.78179 6.1001 9.5 6.1001C9.21821 6.1001 8.94796 5.98815 8.7487 5.7889C8.54944 5.58964 8.4375 5.31939 8.4375 5.0376C8.4375 4.7558 8.54944 4.48555 8.7487 4.2863C8.94796 4.08704 9.21821 3.9751 9.5 3.9751V3.9751Z" fill="white"/>
<path d="M9.71255 13.75V7.80005H8.86255" stroke="white" stroke-width="1.7" stroke-linecap="round" stroke-linejoin="round"/>
<path d="M8.2251 13.75H11.2001" stroke="white" stroke-width="1.7" stroke-linecap="round" stroke-linejoin="round"/>
</svg>
