<svg width="16" height="16" viewBox="0 0 16 16" fill="none" xmlns="http://www.w3.org/2000/svg">
<path d="M1 3.8C1 3.05739 1.295 2.3452 1.8201 1.8201C2.3452 1.295 3.05739 1 3.8 1H12.2C12.9426 1 13.6548 1.295 14.1799 1.8201C14.705 2.3452 15 3.05739 15 3.8V12.2C15 12.9426 14.705 13.6548 14.1799 14.1799C13.6548 14.705 12.9426 15 12.2 15H3.8C3.05739 15 2.3452 14.705 1.8201 14.1799C1.295 13.6548 1 12.9426 1 12.2V3.8Z" stroke="white" stroke-linecap="round" stroke-linejoin="round"/>
<path d="M5.55005 7.30005C6.51655 7.30005 7.30005 6.51655 7.30005 5.55005C7.30005 4.58355 6.51655 3.80005 5.55005 3.80005C4.58355 3.80005 3.80005 4.58355 3.80005 5.55005C3.80005 6.51655 4.58355 7.30005 5.55005 7.30005Z" stroke="white" stroke-linecap="round" stroke-linejoin="round"/>
<path d="M9.76825 8.43471L3.80005 15H12.2931C13.0111 15 13.6996 14.7148 14.2072 14.2072C14.7149 13.6995 15 13.011 15 12.2931V12.2C15 11.8738 14.8775 11.7485 14.657 11.507L11.836 8.43051C11.7046 8.28709 11.5446 8.17265 11.3665 8.09449C11.1883 8.01633 10.9958 7.97617 10.8012 7.97657C10.6067 7.97696 10.4143 8.01791 10.2365 8.09679C10.0586 8.17567 9.89914 8.29076 9.76825 8.43471V8.43471Z" stroke="white" stroke-linecap="round" stroke-linejoin="round"/>
</svg>
