<svg width="112" height="112" viewBox="0 0 112 112" fill="none" xmlns="http://www.w3.org/2000/svg">
<path d="M7 14C7 12.1435 7.7375 10.363 9.05025 9.05025C10.363 7.7375 12.1435 7 14 7H28C29.8565 7 31.637 7.7375 32.9497 9.05025C34.2625 10.363 35 12.1435 35 14V28C35 29.8565 34.2625 31.637 32.9497 32.9497C31.637 34.2625 29.8565 35 28 35H14C12.1435 35 10.363 34.2625 9.05025 32.9497C7.7375 31.637 7 29.8565 7 28V14ZM42 14C42 12.1435 42.7375 10.363 44.0503 9.05025C45.363 7.7375 47.1435 7 49 7H63C64.8565 7 66.637 7.7375 67.9497 9.05025C69.2625 10.363 70 12.1435 70 14V28C70 29.8565 69.2625 31.637 67.9497 32.9497C66.637 34.2625 64.8565 35 63 35H49C47.1435 35 45.363 34.2625 44.0503 32.9497C42.7375 31.637 42 29.8565 42 28V14ZM77 14C77 12.1435 77.7375 10.363 79.0503 9.05025C80.363 7.7375 82.1435 7 84 7H98C99.8565 7 101.637 7.7375 102.95 9.05025C104.263 10.363 105 12.1435 105 14V28C105 29.8565 104.263 31.637 102.95 32.9497C101.637 34.2625 99.8565 35 98 35H84C82.1435 35 80.363 34.2625 79.0503 32.9497C77.7375 31.637 77 29.8565 77 28V14ZM7 49C7 47.1435 7.7375 45.363 9.05025 44.0503C10.363 42.7375 12.1435 42 14 42H28C29.8565 42 31.637 42.7375 32.9497 44.0503C34.2625 45.363 35 47.1435 35 49V63C35 64.8565 34.2625 66.637 32.9497 67.9497C31.637 69.2625 29.8565 70 28 70H14C12.1435 70 10.363 69.2625 9.05025 67.9497C7.7375 66.637 7 64.8565 7 63V49ZM42 49C42 47.1435 42.7375 45.363 44.0503 44.0503C45.363 42.7375 47.1435 42 49 42H63C64.8565 42 66.637 42.7375 67.9497 44.0503C69.2625 45.363 70 47.1435 70 49V63C70 64.8565 69.2625 66.637 67.9497 67.9497C66.637 69.2625 64.8565 70 63 70H49C47.1435 70 45.363 69.2625 44.0503 67.9497C42.7375 66.637 42 64.8565 42 63V49ZM77 49C77 47.1435 77.7375 45.363 79.0503 44.0503C80.363 42.7375 82.1435 42 84 42H98C99.8565 42 101.637 42.7375 102.95 44.0503C104.263 45.363 105 47.1435 105 49V63C105 64.8565 104.263 66.637 102.95 67.9497C101.637 69.2625 99.8565 70 98 70H84C82.1435 70 80.363 69.2625 79.0503 67.9497C77.7375 66.637 77 64.8565 77 63V49ZM7 84C7 82.1435 7.7375 80.363 9.05025 79.0503C10.363 77.7375 12.1435 77 14 77H28C29.8565 77 31.637 77.7375 32.9497 79.0503C34.2625 80.363 35 82.1435 35 84V98C35 99.8565 34.2625 101.637 32.9497 102.95C31.637 104.263 29.8565 105 28 105H14C12.1435 105 10.363 104.263 9.05025 102.95C7.7375 101.637 7 99.8565 7 98V84ZM42 84C42 82.1435 42.7375 80.363 44.0503 79.0503C45.363 77.7375 47.1435 77 49 77H63C64.8565 77 66.637 77.7375 67.9497 79.0503C69.2625 80.363 70 82.1435 70 84V98C70 99.8565 69.2625 101.637 67.9497 102.95C66.637 104.263 64.8565 105 63 105H49C47.1435 105 45.363 104.263 44.0503 102.95C42.7375 101.637 42 99.8565 42 98V84ZM77 84C77 82.1435 77.7375 80.363 79.0503 79.0503C80.363 77.7375 82.1435 77 84 77H98C99.8565 77 101.637 77.7375 102.95 79.0503C104.263 80.363 105 82.1435 105 84V98C105 99.8565 104.263 101.637 102.95 102.95C101.637 104.263 99.8565 105 98 105H84C82.1435 105 80.363 104.263 79.0503 102.95C77.7375 101.637 77 99.8565 77 98V84Z" fill="white"/>
</svg>
