<svg width="24" height="24" viewBox="0 0 24 24" fill="none" xmlns="http://www.w3.org/2000/svg">
<path d="M13.2012 10.7993C12.5641 10.1624 11.7002 9.80469 10.7994 9.80469C9.89861 9.80469 9.03469 10.1624 8.3976 10.7993L5.99502 13.2011C5.35792 13.8382 5 14.7022 5 15.6032C5 16.5042 5.35792 17.3683 5.99502 18.0054C6.63212 18.6425 7.49621 19.0005 8.39721 19.0005C9.2982 19.0005 10.1623 18.6425 10.7994 18.0054L12.0003 16.8045" stroke="white" stroke-width="2" stroke-linecap="round" stroke-linejoin="round"/>
<path d="M10.7993 13.2012C11.4364 13.838 12.3003 14.1958 13.2011 14.1958C14.1019 14.1958 14.9658 13.838 15.6029 13.2012L18.0055 10.7994C18.6426 10.1623 19.0005 9.2982 19.0005 8.39721C19.0005 7.49621 18.6426 6.63212 18.0055 5.99502C17.3684 5.35792 16.5043 5 15.6033 5C14.7023 5 13.8382 5.35792 13.2011 5.99502L12.0002 7.19592" stroke="white" stroke-width="2" stroke-linecap="round" stroke-linejoin="round"/>
</svg>
