<svg width="17" height="17" viewBox="0 0 17 17" fill="none" xmlns="http://www.w3.org/2000/svg">
<path d="M15.1655 8.20283L8.7905 1.82783C8.5355 1.57283 8.18133 1.41699 7.79175 1.41699H2.83341C2.05425 1.41699 1.41675 2.05449 1.41675 2.83366V7.79199C1.41675 8.18158 1.57258 8.53574 1.83466 8.79783L8.20967 15.1728C8.46467 15.4278 8.81883 15.5837 9.20842 15.5837C9.598 15.5837 9.95217 15.4278 10.2072 15.1657L15.1655 10.2074C15.4276 9.95241 15.5834 9.59824 15.5834 9.20866C15.5834 8.81908 15.4205 8.45783 15.1655 8.20283ZM3.89591 4.95866C3.308 4.95866 2.83341 4.48408 2.83341 3.89616C2.83341 3.30824 3.308 2.83366 3.89591 2.83366C4.48383 2.83366 4.95841 3.30824 4.95841 3.89616C4.95841 4.48408 4.48383 4.95866 3.89591 4.95866Z" fill="white" fill-opacity="0.9"/>
</svg>
