<svg width="15" height="15" viewBox="0 0 15 15" fill="none" xmlns="http://www.w3.org/2000/svg">
<path d="M2.21875 3C1.9777 3 1.74207 3.06767 1.54165 3.19446C1.34123 3.32124 1.18502 3.50145 1.09277 3.71229C1.00053 3.92313 0.976393 4.15513 1.02342 4.37895C1.07044 4.60277 1.18652 4.80837 1.35696 4.96974C1.52741 5.13111 1.74457 5.241 1.98098 5.28552C2.2174 5.33004 2.46245 5.30719 2.68515 5.21986C2.90784 5.13253 3.09819 4.98464 3.2321 4.79489C3.36602 4.60514 3.4375 4.38206 3.4375 4.15385C3.4375 3.84783 3.3091 3.55434 3.08054 3.33795C2.85198 3.12157 2.54198 3 2.21875 3ZM2.21875 6.84615C1.9777 6.84615 1.74207 6.91383 1.54165 7.04061C1.34123 7.1674 1.18502 7.3476 1.09277 7.55844C1.00053 7.76928 0.976393 8.00128 1.02342 8.2251C1.07044 8.44893 1.18652 8.65452 1.35696 8.81589C1.52741 8.97726 1.74457 9.08715 1.98098 9.13168C2.2174 9.1762 2.46245 9.15335 2.68515 9.06601C2.90784 8.97868 3.09819 8.83079 3.2321 8.64104C3.36602 8.45129 3.4375 8.22821 3.4375 8C3.4375 7.69398 3.3091 7.4005 3.08054 7.18411C2.85198 6.96772 2.54198 6.84615 2.21875 6.84615ZM2.21875 10.6923C1.9777 10.6923 1.74207 10.76 1.54165 10.8868C1.34123 11.0136 1.18502 11.1938 1.09277 11.4046C1.00053 11.6154 0.976393 11.8474 1.02342 12.0713C1.07044 12.2951 1.18652 12.5007 1.35696 12.662C1.52741 12.8234 1.74457 12.9333 1.98098 12.9778C2.2174 13.0224 2.46245 12.9995 2.68515 12.9122C2.90784 12.8248 3.09819 12.6769 3.2321 12.4872C3.36602 12.2974 3.4375 12.0744 3.4375 11.8462C3.4375 11.5401 3.3091 11.2466 3.08054 11.0303C2.85198 10.8139 2.54198 10.6923 2.21875 10.6923ZM13.5938 11.0769H5.46875C5.36101 11.0769 5.25767 11.1174 5.18149 11.1896C5.1053 11.2617 5.0625 11.3595 5.0625 11.4615V12.2308C5.0625 12.3328 5.1053 12.4306 5.18149 12.5027C5.25767 12.5749 5.36101 12.6154 5.46875 12.6154H13.5938C13.7015 12.6154 13.8048 12.5749 13.881 12.5027C13.9572 12.4306 14 12.3328 14 12.2308V11.4615C14 11.3595 13.9572 11.2617 13.881 11.1896C13.8048 11.1174 13.7015 11.0769 13.5938 11.0769ZM13.5938 3.38462H5.46875C5.36101 3.38462 5.25767 3.42514 5.18149 3.49727C5.1053 3.5694 5.0625 3.66722 5.0625 3.76923V4.53846C5.0625 4.64047 5.1053 4.7383 5.18149 4.81043C5.25767 4.88255 5.36101 4.92308 5.46875 4.92308H13.5938C13.7015 4.92308 13.8048 4.88255 13.881 4.81043C13.9572 4.7383 14 4.64047 14 4.53846V3.76923C14 3.66722 13.9572 3.5694 13.881 3.49727C13.8048 3.42514 13.7015 3.38462 13.5938 3.38462V3.38462ZM13.5938 7.23077H5.46875C5.36101 7.23077 5.25767 7.27129 5.18149 7.34342C5.1053 7.41555 5.0625 7.51338 5.0625 7.61538V8.38462C5.0625 8.48662 5.1053 8.58445 5.18149 8.65658C5.25767 8.72871 5.36101 8.76923 5.46875 8.76923H13.5938C13.7015 8.76923 13.8048 8.72871 13.881 8.65658C13.9572 8.58445 14 8.48662 14 8.38462V7.61538C14 7.51338 13.9572 7.41555 13.881 7.34342C13.8048 7.27129 13.7015 7.23077 13.5938 7.23077Z" fill="white"/>
</svg>
