<svg width="15" height="15" viewBox="0 0 15 15" fill="none" xmlns="http://www.w3.org/2000/svg">
<path d="M7.47205 12.4187C8.1624 12.4187 8.72205 11.8591 8.72205 11.1687C8.72205 10.4783 8.1624 9.9187 7.47205 9.9187C6.78169 9.9187 6.22205 10.4783 6.22205 11.1687C6.22205 11.8591 6.78169 12.4187 7.47205 12.4187Z" fill="#5FD05D"/>
<path d="M13.6221 2.76875C11.7752 1.61293 9.64037 1 7.46164 1C5.2829 1 3.1481 1.61293 1.30122 2.76875C1.2295 2.81256 1.16728 2.87029 1.11823 2.93854C1.06919 3.00679 1.03432 3.08417 1.01567 3.16612C0.997032 3.24807 0.994996 3.33293 1.00969 3.41568C1.02438 3.49843 1.0555 3.57739 1.10122 3.64792L1.14705 3.71875C1.23493 3.8514 1.37039 3.94525 1.52546 3.98092C1.68053 4.01659 1.84338 3.99135 1.98039 3.91042C3.61933 2.88066 5.51562 2.33437 7.45122 2.33437C9.38681 2.33437 11.2831 2.88066 12.9221 3.91042C13.0591 3.99135 13.2219 4.01659 13.377 3.98092C13.532 3.94525 13.6675 3.8514 13.7554 3.71875L13.8012 3.64792C13.8479 3.57865 13.8803 3.50079 13.8965 3.41887C13.9128 3.33695 13.9126 3.25262 13.8959 3.17078C13.8792 3.08895 13.8464 3.01126 13.7994 2.94223C13.7524 2.87321 13.6921 2.81423 13.6221 2.76875V2.76875Z" fill="#5FD05D"/>
<path d="M11.9804 5.29389C10.6227 4.45211 9.05699 4.0061 7.45954 4.0061C5.86209 4.0061 4.29637 4.45211 2.93871 5.29389C2.86823 5.33837 2.8073 5.39641 2.75944 5.46464C2.71159 5.53286 2.67776 5.60991 2.65993 5.69132C2.6421 5.77273 2.64061 5.85686 2.65557 5.93885C2.67052 6.02083 2.70161 6.09903 2.74704 6.16889L2.79287 6.23973C2.88075 6.37238 3.01621 6.46623 3.17128 6.5019C3.32636 6.53756 3.4892 6.51233 3.62621 6.43139C4.77455 5.71821 6.09942 5.34028 7.45121 5.34028C8.80299 5.34028 10.1279 5.71821 11.2762 6.43139C11.4132 6.51233 11.5761 6.53756 11.7311 6.5019C11.8862 6.46623 12.0217 6.37238 12.1095 6.23973L12.1554 6.16889C12.2016 6.10003 12.2337 6.02271 12.2499 5.94138C12.2661 5.86005 12.2661 5.77632 12.2498 5.695C12.2336 5.61369 12.2014 5.53639 12.1551 5.46755C12.1089 5.39871 12.0495 5.3397 11.9804 5.29389V5.29389Z" fill="#5FD05D"/>
<path d="M10.3387 7.81478C9.46931 7.29205 8.474 7.01587 7.45955 7.01587C6.4451 7.01587 5.44979 7.29205 4.58038 7.81478C4.51005 7.85887 4.4492 7.91652 4.4014 7.98438C4.35359 8.05224 4.31978 8.12894 4.30193 8.21001C4.28409 8.29107 4.28257 8.37488 4.29747 8.45654C4.31238 8.5382 4.34339 8.61608 4.38872 8.68562L4.43038 8.75228C4.52207 8.88779 4.66264 8.98257 4.82264 9.01674C4.98265 9.05092 5.14967 9.02184 5.28872 8.93562C5.94661 8.54833 6.69613 8.3441 7.45955 8.3441C8.22297 8.3441 8.97249 8.54833 9.63038 8.93562C9.76993 9.02144 9.9373 9.04986 10.0973 9.0149C10.2574 8.97994 10.3977 8.88431 10.4887 8.74812L10.5304 8.68145C10.5756 8.61223 10.6066 8.53468 10.6214 8.45335C10.6362 8.37201 10.6347 8.28853 10.6168 8.2078C10.599 8.12707 10.5652 8.05072 10.5174 7.98323C10.4697 7.91574 10.4089 7.85847 10.3387 7.81478V7.81478Z" fill="#5FD05D"/>
</svg>
