<svg width="48" height="48" viewBox="0 0 48 48" fill="none" xmlns="http://www.w3.org/2000/svg">
<path d="M38 14H10C8.89543 14 8 14.8954 8 16V42C8 43.1046 8.89543 44 10 44H38C39.1046 44 40 43.1046 40 42V16C40 14.8954 39.1046 14 38 14Z" stroke="white" stroke-width="4" stroke-linecap="round" stroke-linejoin="round"/>
<path d="M17 18V11C17 10.0807 17.1811 9.17049 17.5328 8.32122C17.8846 7.47194 18.4002 6.70026 19.0503 6.05025C19.7003 5.40024 20.4719 4.88463 21.3212 4.53284C22.1705 4.18106 23.0807 4 24 4C24.9193 4 25.8295 4.18106 26.6788 4.53284C27.5281 4.88463 28.2997 5.40024 28.9497 6.05025C29.5998 6.70026 30.1154 7.47194 30.4672 8.32122C30.8189 9.17049 31 10.0807 31 11V18" stroke="white" stroke-width="4" stroke-linecap="round" stroke-linejoin="round"/>
</svg>
