<svg width="16" height="16" viewBox="0 0 16 16" fill="none" xmlns="http://www.w3.org/2000/svg">
<path d="M9.025 7.5C9.025 9.985 7.005 12 4.512 12C3.92026 12.0008 3.33417 11.885 2.78717 11.6593C2.24018 11.4336 1.743 11.1023 1.32402 10.6845C0.90504 10.2666 0.572469 9.7703 0.345294 9.22391C0.118118 8.67752 0.000787407 8.09174 0 7.5C0 5.014 2.02 3.00001 4.512 3.00001C5.10382 2.99909 5.69003 3.11476 6.23714 3.34042C6.78425 3.56608 7.28154 3.89731 7.70063 4.31518C8.11971 4.73306 8.45237 5.2294 8.67961 5.77586C8.90685 6.32231 9.02421 6.90818 9.025 7.5ZM13.975 7.5C13.975 9.84 12.965 11.736 11.719 11.736C10.473 11.736 9.463 9.839 9.463 7.5C9.463 5.16 10.473 3.26401 11.719 3.26401C12.965 3.26401 13.975 5.161 13.975 7.5ZM16 7.5C16 9.596 15.645 11.295 15.206 11.295C14.768 11.295 14.413 9.595 14.413 7.5C14.413 5.404 14.768 3.705 15.207 3.705C15.645 3.705 16 5.404 16 7.5Z" fill="white"/>
</svg>
