<svg width="2333" height="691" viewBox="0 0 2333 691" fill="none" xmlns="http://www.w3.org/2000/svg">
<g filter="url(#filter0_i_1434_2288)">
<path d="M45.7261 155.196V132.383H57.4807V155.248L45.7261 155.196ZM57.4807 172.663V189.746H0.0697194V132.383H28.26V172.715L57.4807 172.663ZM45.7261 114.864V91.2658H91.3999V45.5892H114.839V74.7943H155.396V155.248H74.9468V114.916L45.7261 114.864ZM45.7261 73.7463V45.5892H73.9338V73.7987L45.7261 73.7463ZM155.396 57.2747H132.306V45.5892H155.396V57.2747ZM762.534 0V28.1221H242.848V114.916H172.862V74.7419H207.113V0H762.534ZM189.647 0V57.397H172.792V28.1221H132.236V0H189.647ZM114.77 0V28.1221H91.33V0H114.77ZM0 0H73.8639V28.1221H28.26V73.7987H0.0697194L0 0ZM0 91.3357H28.1903V114.986H0V91.3357ZM74.8771 207.335V172.715H114.77V242.793H27.998V496.608H0.0522352V207.265L74.8771 207.335Z" fill="#11061B"/>
</g>
<g filter="url(#filter1_i_1434_2288)">
<path d="M2287.27 155.196V132.383H2275.52V155.248L2287.27 155.196ZM2275.52 172.663V189.746H2332.93V132.383H2304.74V172.715L2275.52 172.663ZM2287.27 114.864V91.2658H2241.6V45.5892H2218.16V74.7943H2177.6V155.248H2258.05V114.916L2287.27 114.864ZM2287.27 73.7463V45.5892H2259.07V73.7987L2287.27 73.7463ZM2177.6 57.2747H2200.69V45.5892H2177.6V57.2747ZM1570.47 0V28.1221H2090.15V114.916H2160.14V74.7419H2125.89V0H1570.47ZM2143.35 0V57.397H2160.21V28.1221H2200.76V0H2143.35ZM2218.23 0V28.1221H2241.67V0H2218.23ZM2333 0H2259.14V28.1221H2304.74V73.7987H2332.93L2333 0ZM2333 91.3357H2304.81V114.986H2333V91.3357ZM2258.12 207.335V172.715H2218.23V242.793H2305V496.608H2332.95V207.265L2258.12 207.335Z" fill="#11061B"/>
</g>
<defs>
<filter id="filter0_i_1434_2288" x="0" y="0" width="780" height="694" filterUnits="userSpaceOnUse" color-interpolation-filters="sRGB">
<feFlood flood-opacity="0" result="BackgroundImageFix"/>
<feBlend mode="normal" in="SourceGraphic" in2="BackgroundImageFix" result="shape"/>
<feColorMatrix in="SourceAlpha" type="matrix" values="0 0 0 0 0 0 0 0 0 0 0 0 0 0 0 0 0 0 127 0" result="hardAlpha"/>
<feOffset dy="6"/>
<feGaussianBlur stdDeviation="1.5"/>
<feComposite in2="hardAlpha" operator="arithmetic" k2="-1" k3="1"/>
<feColorMatrix type="matrix" values="0 0 0 0 0 0 0 0 0 0 0 0 0 0 0 0 0 0 0.25 0"/>
<feBlend mode="normal" in2="shape" result="effect1_innerShadow_1434_2288"/>
</filter>
<filter id="filter1_i_1434_2288" x="1553" y="0" width="780" height="697" filterUnits="userSpaceOnUse" color-interpolation-filters="sRGB">
<feFlood flood-opacity="0" result="BackgroundImageFix"/>
<feBlend mode="normal" in="SourceGraphic" in2="BackgroundImageFix" result="shape"/>
<feColorMatrix in="SourceAlpha" type="matrix" values="0 0 0 0 0 0 0 0 0 0 0 0 0 0 0 0 0 0 127 0" result="hardAlpha"/>
<feOffset dy="6"/>
<feGaussianBlur stdDeviation="4"/>
<feComposite in2="hardAlpha" operator="arithmetic" k2="-1" k3="1"/>
<feColorMatrix type="matrix" values="0 0 0 0 0 0 0 0 0 0 0 0 0 0 0 0 0 0 0.5 0"/>
<feBlend mode="normal" in2="shape" result="effect1_innerShadow_1434_2288"/>
</filter>
</defs>
</svg>
