<svg width="1920" height="691" viewBox="0 0 1920 691" fill="none" xmlns="http://www.w3.org/2000/svg">
<g filter="url(#filter0_i_2702_32)">
<path d="M45.7261 155.196V132.383H57.4807V155.248L45.7261 155.196ZM57.4807 172.663V189.746H0.0697194V132.383H28.26V172.715L57.4807 172.663ZM45.7261 114.864V91.2658H91.3999V45.5892H114.839V74.7943H155.396V155.248H74.9468V114.916L45.7261 114.864ZM45.7261 73.7463V45.5892H73.9338V73.7987L45.7261 73.7463ZM155.396 57.2747H132.306V45.5892H155.396V57.2747ZM762.534 0V28.1221H242.848V114.916H172.862V74.7419H207.113V0H762.534ZM189.647 0V57.397H172.792V28.1221H132.236V0H189.647ZM114.77 0V28.1221H91.33V0H114.77ZM0 0H73.8639V28.1221H28.26V73.7987H0.0697194L0 0ZM0 91.3357H28.1903V114.986H0V91.3357ZM74.8771 207.335V172.715H114.77V242.793H27.998V496.608H0.0522352V207.265L74.8771 207.335Z" fill="#34253F"/>
</g>
<g filter="url(#filter1_i_2702_32)">
<path d="M1874.27 155.196V132.383H1862.52V155.248L1874.27 155.196ZM1862.52 172.663V189.746H1919.93V132.383H1891.74V172.715L1862.52 172.663ZM1874.27 114.864V91.2658H1828.6V45.5892H1805.16V74.7943H1764.6V155.248H1845.05V114.916L1874.27 114.864ZM1874.27 73.7463V45.5892H1846.07V73.7987L1874.27 73.7463ZM1764.6 57.2747H1787.69V45.5892H1764.6V57.2747ZM1157.47 0V28.1221H1677.15V114.916H1747.14V74.7419H1712.89V0H1157.47ZM1730.35 0V57.397H1747.21V28.1221H1787.76V0H1730.35ZM1805.23 0V28.1221H1828.67V0H1805.23ZM1920 0H1846.14V28.1221H1891.74V73.7987H1919.93L1920 0ZM1920 91.3357H1891.81V114.986H1920V91.3357ZM1845.12 207.335V172.715H1805.23V242.793H1892V496.608H1919.95V207.265L1845.12 207.335Z" fill="#34253F"/>
</g>
<defs>
<filter id="filter0_i_2702_32" x="0" y="0" width="780" height="697" filterUnits="userSpaceOnUse" color-interpolation-filters="sRGB">
<feFlood flood-opacity="0" result="BackgroundImageFix"/>
<feBlend mode="normal" in="SourceGraphic" in2="BackgroundImageFix" result="shape"/>
<feColorMatrix in="SourceAlpha" type="matrix" values="0 0 0 0 0 0 0 0 0 0 0 0 0 0 0 0 0 0 127 0" result="hardAlpha"/>
<feOffset dy="6"/>
<feGaussianBlur stdDeviation="4"/>
<feComposite in2="hardAlpha" operator="arithmetic" k2="-1" k3="1"/>
<feColorMatrix type="matrix" values="0 0 0 0 0 0 0 0 0 0 0 0 0 0 0 0 0 0 0.5 0"/>
<feBlend mode="normal" in2="shape" result="effect1_innerShadow_2702_32"/>
</filter>
<filter id="filter1_i_2702_32" x="1140" y="0" width="780" height="697" filterUnits="userSpaceOnUse" color-interpolation-filters="sRGB">
<feFlood flood-opacity="0" result="BackgroundImageFix"/>
<feBlend mode="normal" in="SourceGraphic" in2="BackgroundImageFix" result="shape"/>
<feColorMatrix in="SourceAlpha" type="matrix" values="0 0 0 0 0 0 0 0 0 0 0 0 0 0 0 0 0 0 127 0" result="hardAlpha"/>
<feOffset dy="6"/>
<feGaussianBlur stdDeviation="4"/>
<feComposite in2="hardAlpha" operator="arithmetic" k2="-1" k3="1"/>
<feColorMatrix type="matrix" values="0 0 0 0 0 0 0 0 0 0 0 0 0 0 0 0 0 0 0.5 0"/>
<feBlend mode="normal" in2="shape" result="effect1_innerShadow_2702_32"/>
</filter>
</defs>
</svg>
