<svg width="32" height="32" viewBox="0 0 32 32" fill="none" xmlns="http://www.w3.org/2000/svg">
<path d="M27 13C27.5523 13 28 13.4477 28 14L28 17.219C28 17.7713 27.5523 18.219 27 18.219L23.781 18.219C23.2287 18.219 22.781 17.7713 22.781 17.219L22.781 14C22.781 13.4477 23.2287 13 23.781 13L27 13ZM17.61 13C18.1623 13 18.61 13.4477 18.61 14L18.61 17.219C18.61 17.7713 18.1623 18.219 17.61 18.219L14.391 18.219C13.8387 18.219 13.391 17.7713 13.391 17.219L13.391 14C13.391 13.4477 13.8387 13 14.391 13L17.61 13ZM8.219 13C8.77128 13 9.219 13.4477 9.219 14L9.219 17.219C9.219 17.7713 8.77128 18.219 8.219 18.219L5 18.219C4.44772 18.219 4 17.7713 4 17.219L4 14C4 13.4477 4.44772 13 5 13L8.219 13Z" fill="white"/>
</svg>
