<svg width="36" height="36" viewBox="0 0 36 36" fill="none" xmlns="http://www.w3.org/2000/svg">
<path d="M18.0001 34.28C18.63 34.2655 19.2345 34.0287 19.7067 33.6114C20.1788 33.1942 20.4882 32.6234 20.5801 32H15.3201C15.4145 32.6403 15.7384 33.2245 16.2314 33.6439C16.7244 34.0633 17.3529 34.2894 18.0001 34.28V34.28Z" fill="white"/>
<path d="M32.85 28.1304L32.51 27.8304C31.5455 26.971 30.7012 25.9854 30 24.9004C29.2343 23.4029 28.7753 21.7676 28.65 20.0904V15.1504C28.646 14.5503 28.5925 13.9516 28.49 13.3604C26.7962 13.0122 25.2746 12.0894 24.1831 10.7482C23.0915 9.40693 22.4969 7.72968 22.5 6.00039V5.37039C21.456 4.85658 20.3342 4.5187 19.18 4.37039V3.11039C19.18 2.75633 19.0394 2.41676 18.789 2.1664C18.5387 1.91604 18.1991 1.77539 17.845 1.77539C17.491 1.77539 17.1514 1.91604 16.9011 2.1664C16.6507 2.41676 16.51 2.75633 16.51 3.11039V4.42039C13.9258 4.78494 11.5606 6.07213 9.85127 8.04432C8.14192 10.0165 7.20378 12.5405 7.21005 15.1504V20.0904C7.0848 21.7676 6.62583 23.4029 5.86005 24.9004C5.17093 25.9827 4.34024 26.9681 3.39005 27.8304L3.05005 28.1304V30.9504H32.85V28.1304Z" fill="white"/>
<path d="M30 11C32.7614 11 35 8.76142 35 6C35 3.23858 32.7614 1 30 1C27.2386 1 25 3.23858 25 6C25 8.76142 27.2386 11 30 11Z" fill="#FF00A8"/>
</svg>
