<svg width="40" height="40" viewBox="0 0 40 40" fill="none" xmlns="http://www.w3.org/2000/svg">
<path d="M40 20C40 8.9543 31.0457 0 20 0C8.9543 0 0 8.9543 0 20C0 31.0457 8.9543 40 20 40C31.0457 40 40 31.0457 40 20Z" fill="white"/>
<path d="M28 15.7998C28 11.3815 24.4183 7.7998 20 7.7998C15.5817 7.7998 12 11.3815 12 15.7998C12 20.2181 15.5817 23.7998 20 23.7998C24.4183 23.7998 28 20.2181 28 15.7998Z" fill="black"/>
<path d="M23.2998 15.75C23.2998 13.9551 21.8447 12.5 20.0498 12.5C18.2549 12.5 16.7998 13.9551 16.7998 15.75C16.7998 17.5449 18.2549 19 20.0498 19C21.8447 19 23.2998 17.5449 23.2998 15.75Z" fill="white"/>
<path d="M22.8994 32.2002V23.2002H17.0994V32.2002H22.8994Z" fill="black"/>
</svg>
