<svg width="36" height="36" viewBox="0 0 36 36" fill="none" xmlns="http://www.w3.org/2000/svg">
<path d="M32.85 28.1304L32.51 27.8304C31.5455 26.971 30.7012 25.9854 30 24.9004C29.2343 23.4029 28.7753 21.7676 28.65 20.0904V15.1504C28.6567 12.516 27.7011 9.96987 25.9628 7.99036C24.2245 6.01086 21.8232 4.73425 19.21 4.40039V3.11039C19.21 2.75633 19.0694 2.41676 18.819 2.1664C18.5687 1.91604 18.2291 1.77539 17.875 1.77539C17.521 1.77539 17.1814 1.91604 16.9311 2.1664C16.6807 2.41676 16.54 2.75633 16.54 3.11039V4.42039C13.9503 4.77832 11.578 6.06265 9.86258 8.0355C8.14713 10.0083 7.20478 12.536 7.21005 15.1504V20.0904C7.0848 21.7676 6.62583 23.4029 5.86005 24.9004C5.17093 25.9827 4.34024 26.9681 3.39005 27.8304L3.05005 28.1304V30.9504H32.85V28.1304Z" fill="white"/>
<path d="M15.3201 32C15.4078 32.6339 15.7219 33.2146 16.2044 33.635C16.6869 34.0553 17.3052 34.2869 17.9451 34.2869C18.585 34.2869 19.2033 34.0553 19.6858 33.635C20.1683 33.2146 20.4824 32.6339 20.5701 32H15.3201Z" fill="white"/>
</svg>
