<svg width="20" height="20" viewBox="0 0 20 20" fill="none" xmlns="http://www.w3.org/2000/svg">
<path d="M4.37527 4.74468V15.6277H15.2815V17H4.37527C3.99147 17 3.66631 16.867 3.39979 16.6011C3.13326 16.3351 3 16.0106 3 15.6277V4.74468H4.37527ZM16.6567 2C17.0192 2 17.3337 2.13298 17.6002 2.39894C17.8667 2.66489 18 2.98936 18 3.37234V12.9149C18 13.2766 17.8667 13.5904 17.6002 13.8564C17.3337 14.1223 17.0192 14.2553 16.6567 14.2553H7.09382C6.71002 14.2553 6.38486 14.1223 6.11834 13.8564C5.85181 13.5904 5.71855 13.2766 5.71855 12.9149V3.37234C5.71855 2.98936 5.85181 2.66489 6.11834 2.39894C6.38486 2.13298 6.71002 2 7.09382 2H16.6567ZM16.6567 12.9149V3.37234H7.09382V12.9149H16.6567Z" fill="white"/>
</svg>
