<svg width="24" height="24" viewBox="0 0 24 24" fill="none" xmlns="http://www.w3.org/2000/svg">
<path fill-rule="evenodd" clip-rule="evenodd" d="M12.5 3C14.2239 3 15.8772 3.71391 17.0962 4.98469C18.3152 6.25547 19 7.97901 19 9.77616C19 12.0104 17.2617 15.0906 13.7851 19.0179L13.1565 19.7168L13.1407 19.7332C12.9769 19.8958 12.7617 19.9904 12.5357 19.9993C12.3097 20.0082 12.0883 19.9308 11.9131 19.7816L11.8277 19.6994L11.5166 19.3567C7.8395 15.2678 6 12.0742 6 9.77616C6 7.97901 6.68482 6.25547 7.90381 4.98469C9.12279 3.71391 10.7761 3 12.5 3ZM12.5 6.87209C11.7612 6.87209 11.0526 7.17806 10.5302 7.72267C10.0078 8.26729 9.71429 9.00595 9.71429 9.77616C9.71429 10.5464 10.0078 11.285 10.5302 11.8296C11.0526 12.3743 11.7612 12.6802 12.5 12.6802C13.2388 12.6802 13.9474 12.3743 14.4698 11.8296C14.9922 11.285 15.2857 10.5464 15.2857 9.77616C15.2857 9.00595 14.9922 8.26729 14.4698 7.72267C13.9474 7.17806 13.2388 6.87209 12.5 6.87209Z" fill="white"/>
</svg>
