<svg width="18" height="18" viewBox="0 0 18 18" fill="none" xmlns="http://www.w3.org/2000/svg">
<path fill-rule="evenodd" clip-rule="evenodd" d="M2 12.9538H8V18H3C2.73478 18 2.48043 17.8937 2.29289 17.7044C2.10536 17.5151 2 17.2584 2 16.9908V12.9538ZM16 12.9538V16.9908C16 17.2584 15.8946 17.5151 15.7071 17.7044C15.5196 17.8937 15.2652 18 15 18H10V12.9538H16ZM11.44 0.0861061C11.51 0.118402 11.605 0.173909 11.716 0.247584L11.959 0.417135C12.003 0.447412 12.048 0.481726 12.094 0.51604L12.44 0.783486L12.8 1.07919L13.155 1.38196L13.48 1.67565L13.602 1.7907L13.812 1.99961C13.904 2.0965 13.976 2.17926 14.02 2.24284C14.0954 2.35138 14.1489 2.47384 14.1774 2.60324C14.2058 2.73264 14.2088 2.86644 14.186 2.99699C14.1633 3.12754 14.1153 3.25229 14.0448 3.36411C13.9742 3.47593 13.8826 3.57264 13.775 3.6487L12.032 4.87996H17C17.2652 4.87996 17.5196 4.98629 17.7071 5.17556C17.8946 5.36483 18 5.62153 18 5.8892V7.40305C18 7.67071 17.8946 7.92742 17.7071 8.11668C17.5196 8.30595 17.2652 8.41228 17 8.41228H16V10.9354H10V4.87996H8V10.9354H2V8.41228H1C0.734784 8.41228 0.48043 8.30595 0.292893 8.11668C0.105357 7.92742 0 7.67071 0 7.40305V5.8892C0 5.62153 0.105357 5.36483 0.292893 5.17556C0.48043 4.98629 0.734784 4.87996 1 4.87996H6.274L4.532 3.6487C4.42436 3.57271 4.3326 3.47607 4.26198 3.36428C4.19135 3.25249 4.14325 3.12776 4.1204 2.99721C4.09756 2.86665 4.10042 2.73283 4.12884 2.60339C4.15725 2.47396 4.21066 2.35144 4.286 2.24284C4.33 2.18027 4.401 2.09448 4.49 1.99356L4.693 1.77254L4.998 1.45967L5.336 1.13066L5.68 0.807708L5.927 0.586686L6.151 0.394932C6.25814 0.302476 6.3714 0.217503 6.49 0.140605L6.594 0.0871152C6.81776 -0.0132928 7.07025 -0.027346 7.3036 0.0476199C7.53695 0.122586 7.73492 0.281359 7.86 0.493836L7.914 0.598797L9.017 3.09867L10.12 0.598797C10.2278 0.35431 10.4275 0.163059 10.675 0.0671046C10.9226 -0.0288503 11.1977 -0.0216525 11.44 0.0871152V0.0861061Z" fill="white"/>
</svg>
