<svg width="67" height="67" viewBox="0 0 67 67" fill="none" xmlns="http://www.w3.org/2000/svg">
<path d="M58.625 48.1562V25.125H30.6902C32.8776 26.8898 34.6416 29.1225 35.8525 31.6588C37.0635 34.1952 37.6905 36.9707 37.6875 39.7812C37.6875 42.6916 37.0301 45.4469 35.8492 47.905L44.2242 56.28C44.9068 56.9626 45.4009 57.7666 45.7066 58.625H48.1563C50.9327 58.625 53.5955 57.522 55.5588 55.5588C57.522 53.5955 58.625 50.9327 58.625 48.1562ZM58.625 18.8438C58.625 16.0673 57.522 13.4045 55.5588 11.4412C53.5955 9.47795 50.9327 8.375 48.1563 8.375H18.8437C16.0673 8.375 13.4045 9.47795 11.4412 11.4412C9.47795 13.4045 8.375 16.0673 8.375 18.8438V20.9375H58.625V18.8438ZM27.6208 51.5188C24.6532 53.7378 20.9554 54.7505 17.2713 54.3529C13.5873 53.9554 10.1906 52.1772 7.76478 49.3761C5.33898 46.5751 4.06417 42.9593 4.19692 39.2562C4.32966 35.5532 5.8601 32.0379 8.48023 29.4177C11.1004 26.7976 14.6157 25.2672 18.3187 25.1344C22.0218 25.0017 25.6376 26.2765 28.4387 28.7023C31.2397 31.1281 33.0179 34.5248 33.4154 38.2088C33.813 41.8929 32.8003 45.5907 30.5813 48.5582L41.2594 59.2364C41.6526 59.629 41.8737 60.1617 41.8741 60.7173C41.8745 61.2729 41.6541 61.8059 41.2615 62.199C40.8689 62.5922 40.3362 62.8133 39.7806 62.8137C39.225 62.8141 38.692 62.5937 38.2989 62.2011L27.6208 51.523V51.5188ZM29.3125 39.7812C29.3125 37.0048 28.2095 34.342 26.2463 32.3787C24.283 30.4155 21.6202 29.3125 18.8437 29.3125C16.0673 29.3125 13.4045 30.4155 11.4412 32.3787C9.47795 34.342 8.375 37.0048 8.375 39.7812C8.375 42.5577 9.47795 45.2205 11.4412 47.1838C13.4045 49.147 16.0673 50.25 18.8437 50.25C21.6202 50.25 24.283 49.147 26.2463 47.1838C28.2095 45.2205 29.3125 42.5577 29.3125 39.7812Z" fill="url(#paint0_linear_1966_1262)"/>
<defs>
<linearGradient id="paint0_linear_1966_1262" x1="12.4715" y1="16.6592" x2="40.8746" y2="62.8131" gradientUnits="userSpaceOnUse">
<stop stop-color="#6500B4"/>
<stop offset="1" stop-color="#B02FFF"/>
</linearGradient>
</defs>
</svg>
