<?xml version="1.0" encoding="utf-8"?>
<!-- Generator: Adobe Illustrator 26.0.2, SVG Export Plug-In . SVG Version: 6.00 Build 0)  -->
<svg version="1.1" id="Layer_1" xmlns="http://www.w3.org/2000/svg" xmlns:xlink="http://www.w3.org/1999/xlink" x="0px" y="0px"
	 width="2303.3px" height="691px" viewBox="0 0 2303.3 691" style="enable-background:new 0 0 2303.3 691;" xml:space="preserve">
<style type="text/css">
	.st0{fill:#430A26;}
</style>
<g>
	<path class="st0" d="M46.1,155.2v-22.8h11.8v22.9L46.1,155.2z M57.8,172.7v17.1H0.4v-57.4h28.2v40.3L57.8,172.7z M46.1,114.9V91.3
		h45.7V45.6h23.4v29.2h40.6v80.5H75.3v-40.3L46.1,114.9z M46.1,73.7V45.6h28.2v28.2L46.1,73.7z M155.7,57.3h-23.1V45.6h23.1V57.3z
		 M762.9,0v28.1H243.2v86.8h-70V74.7h34.3V0H762.9z M190,0v57.4h-16.9V28.1h-40.6V0H190z M115.1,0v28.1H91.7V0H115.1z M0.3,0h73.9
		v28.1H28.6v45.7H0.4L0.3,0z M0.3,91.3h28.2V115H0.3V91.3z M75.2,207.3v-34.6h39.9v70.1H28.3v253.8H0.4V207.3L75.2,207.3z"/>
</g>
<g>
	<path class="st0" d="M2257.6,155.2v-22.8h-11.8v22.9L2257.6,155.2z M2245.9,172.7v17.1h57.4v-57.4h-28.2v40.3L2245.9,172.7z
		 M2257.6,114.9V91.3h-45.7V45.6h-23.4v29.2h-40.6v80.5h80.4v-40.3L2257.6,114.9z M2257.6,73.7V45.6h-28.2v28.2L2257.6,73.7z
		 M2147.9,57.3h23.1V45.6h-23.1V57.3z M1540.8,0v28.1h519.7v86.8h70V74.7h-34.2V0H1540.8z M2113.7,0v57.4h16.9V28.1h40.6V0H2113.7z
		 M2188.6,0v28.1h23.4V0H2188.6z M2303.3,0h-73.9v28.1h45.6v45.7h28.2L2303.3,0z M2303.3,91.3h-28.2V115h28.2V91.3z M2228.5,207.3
		v-34.6h-39.9v70.1h86.8v253.8h27.9V207.3L2228.5,207.3z"/>
</g>
</svg>
