<svg width="36" height="36" viewBox="0 0 36 36" fill="none" xmlns="http://www.w3.org/2000/svg">
<path d="M29.7229 6.29122C29.5878 6.1569 29.4171 6.0639 29.2308 6.02316C29.0446 5.98242 28.8506 5.99563 28.6717 6.06123L6.6461 14.0608C6.45615 14.1328 6.29261 14.2608 6.17721 14.4278C6.06181 14.5947 6 14.7929 6 14.9958C6 15.1987 6.06181 15.3968 6.17721 15.5638C6.29261 15.7308 6.45615 15.8588 6.6461 15.9307L15.2461 19.3605L21.5934 13.0009L23.0051 14.4108L16.6277 20.7805L20.0717 29.37C20.1459 29.5561 20.2743 29.7156 20.4403 29.8279C20.6063 29.9402 20.8022 30.0002 21.0028 30C21.2051 29.9959 21.4014 29.9306 21.5658 29.8128C21.7302 29.6949 21.8551 29.5301 21.9238 29.34L29.9331 7.34117C30.0013 7.16425 30.0178 6.97161 29.9806 6.78572C29.9433 6.59982 29.854 6.42832 29.7229 6.29122Z" fill="white"/>
</svg>
