<svg width="24" height="24" viewBox="0 0 24 24" fill="none" xmlns="http://www.w3.org/2000/svg">
<path d="M18.9537 2H15.815C15.5375 2 15.2714 2.10899 15.0752 2.30299C14.8789 2.497 14.7687 2.76012 14.7687 3.03448C14.7687 3.30884 14.8789 3.57197 15.0752 3.76597C15.2714 3.95998 15.5375 4.06897 15.815 4.06897H16.4253L15.1175 5.37069C14.0222 4.52433 12.6713 4.06594 11.2812 4.06897C9.70653 4.06806 8.18903 4.65232 7.02965 5.70588C5.87026 6.75944 5.15368 8.20534 5.022 9.75683C4.89032 11.3083 5.35317 12.8521 6.31876 14.0819C7.28435 15.3118 8.68215 16.138 10.2349 16.3966V17.5172H8.49118C8.2137 17.5172 7.94758 17.6262 7.75136 17.8202C7.55515 18.0142 7.44492 18.2774 7.44492 18.5517C7.44492 18.8261 7.55515 19.0892 7.75136 19.2832C7.94758 19.4772 8.2137 19.5862 8.49118 19.5862H10.2349V20.9655C10.2349 21.2399 10.3452 21.503 10.5414 21.697C10.7376 21.891 11.0037 22 11.2812 22C11.5587 22 11.8248 21.891 12.021 21.697C12.2172 21.503 12.3275 21.2399 12.3275 20.9655V19.5862H14.0712C14.3487 19.5862 14.6148 19.4772 14.811 19.2832C15.0072 19.0892 15.1175 18.8261 15.1175 18.5517C15.1175 18.2774 15.0072 18.0142 14.811 17.8202C14.6148 17.6262 14.3487 17.5172 14.0712 17.5172H12.3275V16.3966C13.3543 16.2246 14.3217 15.8028 15.1426 15.1691C15.9634 14.5354 16.612 13.7098 17.0297 12.7665C17.4475 11.8233 17.6213 10.7921 17.5356 9.76586C17.4498 8.73964 17.1072 7.75062 16.5386 6.88793L17.9075 5.53448V6.13793C17.9075 6.41229 18.0177 6.67542 18.2139 6.86942C18.4101 7.06342 18.6763 7.17241 18.9537 7.17241C19.2312 7.17241 19.4973 7.06342 19.6936 6.86942C19.8898 6.67542 20 6.41229 20 6.13793V3.03448C20 2.76012 19.8898 2.497 19.6936 2.30299C19.4973 2.10899 19.2312 2 18.9537 2ZM11.2812 14.4138C10.4535 14.4138 9.64434 14.1711 8.95612 13.7164C8.2679 13.2617 7.73149 12.6155 7.41474 11.8594C7.09798 11.1033 7.01511 10.2713 7.17659 9.46859C7.33807 8.66591 7.73665 7.9286 8.32194 7.3499C8.90722 6.7712 9.65292 6.3771 10.4647 6.21744C11.2766 6.05778 12.118 6.13972 12.8827 6.45291C13.6475 6.7661 14.3011 7.29647 14.7609 7.97695C15.2208 8.65743 15.4662 9.45746 15.4662 10.2759C15.4662 11.3733 15.0253 12.4258 14.2405 13.2018C13.4556 13.9778 12.3911 14.4138 11.2812 14.4138Z" fill="white"/>
</svg>
