<svg width="24" height="24" viewBox="0 0 24 24" fill="none" xmlns="http://www.w3.org/2000/svg">
<path d="M6.3126 14.3174C7.13862 14.3127 7.93311 13.9987 8.54027 13.4369L14.4492 16.8265C14.374 17.0881 14.3358 17.359 14.336 17.6313C14.3299 18.3997 14.588 19.1467 15.0667 19.7465C15.5455 20.3464 16.2157 20.7625 16.9645 20.9247C17.7133 21.0869 18.495 20.9853 19.1778 20.6371C19.8607 20.2889 20.4032 19.7154 20.7138 19.013C21.0244 18.3106 21.0843 17.5222 20.8832 16.7808C20.6822 16.0393 20.2327 15.3899 19.6102 14.942C18.9877 14.4941 18.2304 14.275 17.4658 14.3216C16.7011 14.3683 15.9758 14.6777 15.4121 15.198L9.50307 11.8084C9.57438 11.5751 9.61252 11.3328 9.61634 11.0888L15.4215 7.75602C15.9822 8.2643 16.7002 8.56373 17.4549 8.60408C18.2096 8.64443 18.9552 8.42324 19.5667 7.97762C20.1781 7.532 20.6182 6.88904 20.8131 6.15658C21.008 5.42413 20.9459 4.64671 20.6372 3.95473C20.3285 3.26275 19.792 2.69828 19.1176 2.35599C18.4433 2.0137 17.6721 1.91442 16.9334 2.07478C16.1947 2.23515 15.5334 2.64541 15.0605 3.23677C14.5876 3.82813 14.3318 4.56462 14.336 5.32271C14.3392 5.59473 14.3772 5.86522 14.4492 6.1275L9.0783 9.20464C8.7671 8.72173 8.33597 8.32835 7.8273 8.06317C7.31863 7.79799 6.74992 7.67014 6.17707 7.69219C5.60423 7.71424 5.04696 7.88542 4.56004 8.18892C4.07312 8.49241 3.67331 8.91777 3.39992 9.42319C3.12652 9.9286 2.98894 10.4967 3.0007 11.0716C3.01246 11.6465 3.17315 12.2084 3.46699 12.7022C3.76083 13.1959 4.17769 13.6045 4.67661 13.8877C5.17553 14.1709 5.73933 14.319 6.3126 14.3174V14.3174ZM17.6397 16.2111C17.9198 16.2111 18.1935 16.2944 18.4263 16.4504C18.6592 16.6065 18.8407 16.8283 18.9478 17.0878C19.055 17.3473 19.083 17.6329 19.0284 17.9084C18.9738 18.1838 18.8389 18.4369 18.6409 18.6355C18.4429 18.8341 18.1906 18.9694 17.9159 19.0242C17.6413 19.079 17.3566 19.0509 17.0979 18.9434C16.8392 18.8359 16.618 18.6539 16.4625 18.4203C16.3069 18.1868 16.2238 17.9122 16.2238 17.6313C16.2238 17.2546 16.373 16.8934 16.6385 16.627C16.9041 16.3607 17.2642 16.2111 17.6397 16.2111ZM17.6397 3.90249C17.9198 3.90249 18.1935 3.98578 18.4263 4.14184C18.6592 4.29789 18.8407 4.5197 18.9478 4.77921C19.055 5.03872 19.083 5.32428 19.0284 5.59978C18.9738 5.87527 18.8389 6.12833 18.6409 6.32695C18.4429 6.52558 18.1906 6.66084 17.9159 6.71564C17.6413 6.77044 17.3566 6.74231 17.0979 6.63482C16.8392 6.52733 16.618 6.34529 16.4625 6.11174C16.3069 5.87819 16.2238 5.6036 16.2238 5.32271C16.2238 4.94604 16.373 4.5848 16.6385 4.31846C16.9041 4.05212 17.2642 3.90249 17.6397 3.90249ZM6.3126 9.58337C6.59263 9.58337 6.86638 9.66666 7.09923 9.82272C7.33207 9.97877 7.51355 10.2006 7.62071 10.4601C7.72788 10.7196 7.75592 11.0052 7.70128 11.2807C7.64665 11.5562 7.5118 11.8092 7.31378 12.0078C7.11577 12.2065 6.86348 12.3417 6.58882 12.3965C6.31417 12.4513 6.02948 12.4232 5.77076 12.3157C5.51204 12.2082 5.29091 12.0262 5.13533 11.7926C4.97975 11.5591 4.89671 11.2845 4.89671 11.0036C4.89671 10.6269 5.04588 10.2657 5.31141 9.99934C5.57694 9.733 5.93708 9.58337 6.3126 9.58337V9.58337Z" fill="white"/>
</svg>
