<svg width="67" height="67" viewBox="0 0 67 67" fill="none" xmlns="http://www.w3.org/2000/svg">
<path d="M6.38889 30.1111H26.7222C27.621 30.1111 28.483 29.7541 29.1185 29.1185C29.7541 28.483 30.1111 27.621 30.1111 26.7222V6.38889C30.1111 5.4901 29.7541 4.62812 29.1185 3.99258C28.483 3.35704 27.621 3 26.7222 3H6.38889C5.4901 3 4.62812 3.35704 3.99258 3.99258C3.35704 4.62812 3 5.4901 3 6.38889V26.7222C3 27.621 3.35704 28.483 3.99258 29.1185C4.62812 29.7541 5.4901 30.1111 6.38889 30.1111ZM40.2778 30.1111H60.6111C61.5099 30.1111 62.3719 29.7541 63.0074 29.1185C63.643 28.483 64 27.621 64 26.7222V6.38889C64 5.4901 63.643 4.62812 63.0074 3.99258C62.3719 3.35704 61.5099 3 60.6111 3H40.2778C39.379 3 38.517 3.35704 37.8815 3.99258C37.2459 4.62812 36.8889 5.4901 36.8889 6.38889V26.7222C36.8889 27.621 37.2459 28.483 37.8815 29.1185C38.517 29.7541 39.379 30.1111 40.2778 30.1111ZM6.38889 64H26.7222C27.621 64 28.483 63.643 29.1185 63.0074C29.7541 62.3719 30.1111 61.5099 30.1111 60.6111V40.2778C30.1111 39.379 29.7541 38.517 29.1185 37.8815C28.483 37.2459 27.621 36.8889 26.7222 36.8889H6.38889C5.4901 36.8889 4.62812 37.2459 3.99258 37.8815C3.35704 38.517 3 39.379 3 40.2778V60.6111C3 61.5099 3.35704 62.3719 3.99258 63.0074C4.62812 63.643 5.4901 64 6.38889 64ZM40.2778 64H60.6111C61.5099 64 62.3719 63.643 63.0074 63.0074C63.643 62.3719 64 61.5099 64 60.6111V40.2778C64 39.379 63.643 38.517 63.0074 37.8815C62.3719 37.2459 61.5099 36.8889 60.6111 36.8889H40.2778C39.379 36.8889 38.517 37.2459 37.8815 37.8815C37.2459 38.517 36.8889 39.379 36.8889 40.2778V60.6111C36.8889 61.5099 37.2459 62.3719 37.8815 63.0074C38.517 63.643 39.379 64 40.2778 64Z" fill="white"/>
</svg>
