<svg width="46" height="46" viewBox="0 0 46 46" fill="none" xmlns="http://www.w3.org/2000/svg">
<path d="M12.125 14.9658C13.035 14.9658 13.88 15.2038 14.6112 15.632C14.3675 17.9003 15.05 20.1527 16.4475 21.9134C15.635 23.4362 14.01 24.4831 12.125 24.4831C10.8321 24.4831 9.59209 23.9817 8.67785 23.0893C7.76361 22.1969 7.25 20.9865 7.25 19.7244C7.25 18.4624 7.76361 17.252 8.67785 16.3596C9.59209 15.4672 10.8321 14.9658 12.125 14.9658ZM4 34.0003V31.621C4 29.4162 7.07125 27.5603 11.2312 27.021C10.2725 28.0996 9.6875 29.5906 9.6875 31.2244V34.0003H4Z" fill="#D8DAFF"/>
<path d="M38.3221 16.3596C37.4079 15.4672 36.1679 14.9658 34.875 14.9658C33.965 14.9658 33.12 15.2038 32.3887 15.632C32.6269 17.8784 31.9693 20.128 30.5525 21.9134C31.365 23.4362 32.99 24.4831 34.875 24.4831C36.1679 24.4831 37.4079 23.9817 38.3221 23.0893C39.2364 22.1969 39.75 20.9865 39.75 19.7244C39.75 18.4624 39.2364 17.252 38.3221 16.3596Z" fill="#CF6EF1"/>
<path d="M37.3125 34.0003H43V31.621C43 29.4162 39.9287 27.5603 35.7687 27.021C36.7275 28.0996 37.3125 29.5906 37.3125 31.2244V34.0003Z" fill="#CF6EF1"/>
<path d="M27.5217 12.6261C26.4551 11.5849 25.0084 11 23.5 11C21.9916 11 20.5449 11.5849 19.4783 12.6261C18.4117 13.6672 17.8125 15.0793 17.8125 16.5517C17.8125 18.0241 18.4117 19.4362 19.4783 20.4774C20.5449 21.5185 21.9916 22.1034 23.5 22.1034C25.0084 22.1034 26.4551 21.5185 27.5217 20.4774C28.5883 19.4362 29.1875 18.0241 29.1875 16.5517C29.1875 15.0793 28.5883 13.6672 27.5217 12.6261Z" fill="url(#paint0_linear_1959_1227)"/>
<path d="M23.5 25.2759C17.6663 25.2759 12.9375 27.9407 12.9375 31.2241V34H34.0625V31.2241C34.0625 27.9407 29.3337 25.2759 23.5 25.2759Z" fill="url(#paint1_linear_1959_1227)"/>
<defs>
<linearGradient id="paint0_linear_1959_1227" x1="16.1522" y1="14.5" x2="28.5842" y2="33.0551" gradientUnits="userSpaceOnUse">
<stop stop-color="#6500B4"/>
<stop offset="1" stop-color="#B02FFF"/>
</linearGradient>
<linearGradient id="paint1_linear_1959_1227" x1="16.1522" y1="14.5" x2="28.5842" y2="33.0551" gradientUnits="userSpaceOnUse">
<stop stop-color="#6500B4"/>
<stop offset="1" stop-color="#B02FFF"/>
</linearGradient>
</defs>
</svg>
