<svg width="24" height="24" viewBox="0 0 24 24" fill="none" xmlns="http://www.w3.org/2000/svg">
<path d="M2.4 22H21.6C22.92 22 24 20.875 24 19.5C24 18.125 22.92 17 21.6 17H2.4C1.08 17 0 18.125 0 19.5C0 20.875 1.08 22 2.4 22ZM2.4 18.25H4.8V20.75H2.4V18.25ZM0 4.5C0 5.875 1.08 7 2.4 7H21.6C22.92 7 24 5.875 24 4.5C24 3.125 22.92 2 21.6 2H2.4C1.08 2 0 3.125 0 4.5ZM4.8 5.75H2.4V3.25H4.8V5.75ZM2.4 14.5H21.6C22.92 14.5 24 13.375 24 12C24 10.625 22.92 9.5 21.6 9.5H2.4C1.08 9.5 0 10.625 0 12C0 13.375 1.08 14.5 2.4 14.5ZM2.4 10.75H4.8V13.25H2.4V10.75Z" fill="white"/>
</svg>
