<svg width="6" height="6" viewBox="0 0 6 6" fill="none" xmlns="http://www.w3.org/2000/svg">
<path d="M5.90234 3.625C5.90234 3.63802 5.90104 3.64714 5.89844 3.65234C5.73177 4.35026 5.38281 4.91602 4.85156 5.34961C4.32031 5.7832 3.69792 6 2.98438 6C2.60417 6 2.23633 5.92839 1.88086 5.78516C1.52539 5.64193 1.20833 5.4375 0.929688 5.17188L0.425781 5.67578C0.376302 5.72526 0.317708 5.75 0.25 5.75C0.182292 5.75 0.123698 5.72526 0.0742188 5.67578C0.0247396 5.6263 0 5.56771 0 5.5V3.75C0 3.68229 0.0247396 3.6237 0.0742188 3.57422C0.123698 3.52474 0.182292 3.5 0.25 3.5H2C2.06771 3.5 2.1263 3.52474 2.17578 3.57422C2.22526 3.6237 2.25 3.68229 2.25 3.75C2.25 3.81771 2.22526 3.8763 2.17578 3.92578L1.64062 4.46094C1.82552 4.63281 2.03516 4.76562 2.26953 4.85938C2.50391 4.95312 2.7474 5 3 5C3.34896 5 3.67448 4.91536 3.97656 4.74609C4.27865 4.57682 4.52083 4.34375 4.70312 4.04688C4.73177 4.0026 4.80078 3.85026 4.91016 3.58984C4.93099 3.52995 4.97005 3.5 5.02734 3.5H5.77734C5.8112 3.5 5.84049 3.51237 5.86523 3.53711C5.88997 3.56185 5.90234 3.59115 5.90234 3.625ZM6 0.5V2.25C6 2.31771 5.97526 2.3763 5.92578 2.42578C5.8763 2.47526 5.81771 2.5 5.75 2.5H4C3.93229 2.5 3.8737 2.47526 3.82422 2.42578C3.77474 2.3763 3.75 2.31771 3.75 2.25C3.75 2.18229 3.77474 2.1237 3.82422 2.07422L4.36328 1.53516C3.97786 1.17839 3.52344 1 3 1C2.65104 1 2.32552 1.08464 2.02344 1.25391C1.72135 1.42318 1.47917 1.65625 1.29688 1.95312C1.26823 1.9974 1.19922 2.14974 1.08984 2.41016C1.06901 2.47005 1.02995 2.5 0.972656 2.5H0.195312C0.161458 2.5 0.132161 2.48763 0.107422 2.46289C0.0826823 2.43815 0.0703125 2.40885 0.0703125 2.375V2.34766C0.239583 1.64974 0.591146 1.08398 1.125 0.650391C1.65885 0.216797 2.28385 0 3 0C3.38021 0 3.75 0.0722656 4.10938 0.216797C4.46875 0.361328 4.78776 0.565104 5.06641 0.828125L5.57422 0.324219C5.6237 0.27474 5.68229 0.25 5.75 0.25C5.81771 0.25 5.8763 0.27474 5.92578 0.324219C5.97526 0.373698 6 0.432292 6 0.5Z" fill="white"/>
</svg>
