<svg width="78" height="78" viewBox="0 0 78 78" fill="none" xmlns="http://www.w3.org/2000/svg">
<path d="M39 12.1875C32.9739 12.1875 27.083 13.9745 22.0725 17.3224C17.0619 20.6704 13.1567 25.4289 10.8506 30.9964C8.54445 36.5638 7.94107 42.69 9.11671 48.6004C10.2924 54.5108 13.1942 59.9398 17.4554 64.2009C21.7165 68.462 27.1455 71.3639 33.0559 72.5395C38.9662 73.7152 45.0925 73.1118 50.6599 70.8057C56.2273 68.4996 60.9859 64.5943 64.3339 59.5838C67.6818 54.5732 69.4688 48.6824 69.4688 42.6562C69.4527 34.5804 66.2374 26.8399 60.5269 21.1294C54.8164 15.4189 47.0759 12.2036 39 12.1875V12.1875ZM39 65.8125C34.4201 65.8125 29.9431 64.4544 26.1351 61.91C22.3271 59.3655 19.3591 55.749 17.6064 51.5178C15.8538 47.2865 15.3952 42.6306 16.2887 38.1387C17.1822 33.6468 19.3876 29.5208 22.6261 26.2823C25.8645 23.0438 29.9906 20.8384 34.4825 19.9449C38.9743 19.0515 43.6303 19.51 47.8615 21.2627C52.0928 23.0153 55.7093 25.9833 58.2537 29.7913C60.7982 33.5994 62.1563 38.0764 62.1563 42.6562C62.1482 48.7952 59.7059 54.6804 55.3651 59.0213C51.0242 63.3622 45.139 65.8044 39 65.8125V65.8125ZM51.9188 29.7375C52.2587 30.0746 52.5285 30.4756 52.7126 30.9175C52.8968 31.3594 52.9916 31.8334 52.9916 32.3121C52.9916 32.7908 52.8968 33.2648 52.7126 33.7067C52.5285 34.1486 52.2587 34.5496 51.9188 34.8867L41.5899 45.2461C40.8999 45.9271 39.9695 46.309 39 46.309C38.0306 46.309 37.1001 45.9271 36.4102 45.2461C36.0693 44.9064 35.7989 44.5028 35.6143 44.0584C35.4298 43.6139 35.3348 43.1375 35.3348 42.6562C35.3348 42.175 35.4298 41.6986 35.6143 41.2541C35.7989 40.8097 36.0693 40.4061 36.4102 40.0664L46.7695 29.7375C47.1066 29.3976 47.5077 29.1278 47.9496 28.9436C48.3915 28.7595 48.8654 28.6647 49.3442 28.6647C49.8229 28.6647 50.2969 28.7595 50.7387 28.9436C51.1806 29.1278 51.5817 29.3976 51.9188 29.7375V29.7375ZM28.0313 3.65625C28.0313 2.68655 28.4165 1.75657 29.1022 1.07089C29.7878 0.385211 30.7178 0 31.6875 0L46.3125 0C47.2822 0 48.2122 0.385211 48.8979 1.07089C49.5836 1.75657 49.9688 2.68655 49.9688 3.65625C49.9688 4.62595 49.5836 5.55593 48.8979 6.24161C48.2122 6.92729 47.2822 7.3125 46.3125 7.3125H31.6875C30.7178 7.3125 29.7878 6.92729 29.1022 6.24161C28.4165 5.55593 28.0313 4.62595 28.0313 3.65625V3.65625Z" fill="white"/>
</svg>
