<svg width="420" height="420" viewBox="0 0 420 420" fill="none" xmlns="http://www.w3.org/2000/svg">
<g filter="url(#filter0_i_2039_2)">
<path d="M209.914 36.4971C114.114 36.4971 36.1777 114.386 36.1777 210.128C36.1777 305.87 114.114 383.759 209.914 383.759C305.714 383.759 383.65 305.87 383.65 210.128C383.65 114.386 305.714 36.4971 209.914 36.4971ZM364.919 242.645C364.198 246.079 363.247 249.422 362.312 252.771C360.808 252.327 359.29 251.921 357.74 251.591C353.851 250.771 349.825 250.326 345.698 250.326C340.176 250.326 334.852 251.146 329.79 252.587C325.863 253.707 322.089 255.201 318.546 257.079C313.959 259.509 309.756 262.545 305.997 266.063C296.095 275.316 289.392 287.933 287.827 302.107C287.597 304.222 287.451 306.361 287.451 308.538C287.451 311.604 287.758 314.586 288.218 317.522C288.832 321.47 289.837 325.279 291.209 328.921C292.92 333.474 295.152 337.759 297.882 341.691C294.975 343.638 291.93 345.401 288.893 347.157C285.879 348.897 282.788 350.514 279.651 352.063C277.541 348.881 275.708 345.509 274.074 342.029C272.586 338.863 271.229 335.62 270.163 332.24C269.043 328.675 268.253 324.98 267.639 321.224C266.964 317.085 266.527 312.869 266.527 308.546C266.527 303.678 267.033 298.933 267.877 294.311C270.654 279.125 277.779 265.473 287.919 254.634C294.07 248.05 301.303 242.515 309.38 238.33C312.663 236.628 316.091 235.171 319.62 233.937C322.971 232.764 326.392 231.737 329.928 231.017C335.021 229.982 340.298 229.43 345.69 229.43C349.817 229.43 353.836 229.844 357.794 230.457C360.778 230.917 363.7 231.53 366.568 232.312C366.085 235.762 365.633 239.25 364.919 242.645ZM353.851 275.814C344.517 296.158 331.017 314.157 314.419 328.775C310.776 323.164 308.621 316.525 308.46 309.381C308.452 309.09 308.375 308.814 308.375 308.523C308.375 295.913 314.68 284.813 324.268 278.06C330.342 273.783 337.706 271.222 345.698 271.222C348.827 271.222 351.819 271.721 354.726 272.449C354.948 272.502 355.163 272.594 355.385 272.656C354.91 273.737 354.342 274.748 353.851 275.814ZM355.071 209.684C351.98 209.392 348.858 209.208 345.69 209.208C339.171 209.208 332.812 209.883 326.638 211.086C323.194 211.753 319.811 212.581 316.506 213.593C313.138 214.628 309.848 215.847 306.634 217.219C300.061 220.04 293.902 223.597 288.149 227.698C284.782 230.097 281.591 232.719 278.554 235.509C274.749 239.004 271.19 242.76 267.969 246.808C259.601 257.309 253.373 269.528 249.798 282.851C248.448 287.879 247.375 293.023 246.83 298.335C246.485 301.685 246.309 305.088 246.309 308.523C246.309 309.22 246.401 309.902 246.416 310.592C246.569 317.844 247.52 324.888 249.154 331.68C249.983 335.122 250.987 338.479 252.169 341.776C253.342 345.072 254.684 348.268 256.188 351.396C257.591 354.316 259.133 357.145 260.805 359.897C257.392 361.054 253.925 362.058 250.412 362.994C246.907 363.921 243.402 364.826 239.804 365.516C238.431 362.978 237.227 360.349 236.038 357.712C234.604 354.523 233.323 351.258 232.165 347.931C231.014 344.619 230.017 341.247 229.15 337.82C227.824 332.546 226.742 327.18 226.144 321.661C226.006 320.419 225.96 319.155 225.868 317.905C225.63 314.801 225.392 311.688 225.392 308.523C225.392 308.093 225.453 307.679 225.453 307.258C225.492 303.571 225.645 299.914 226.006 296.319C226.036 296.005 226.105 295.698 226.144 295.392C227.072 286.906 228.92 278.712 231.528 270.847C235.264 259.571 240.625 249.046 247.336 239.525C252.36 232.389 258.167 225.873 264.586 219.994C267.302 217.51 270.117 215.149 273.054 212.919C275.854 210.788 278.738 208.771 281.722 206.893C287.397 203.314 293.342 200.117 299.608 197.511C302.837 196.169 306.128 194.951 309.495 193.885C312.847 192.827 316.283 191.961 319.758 191.187C328.118 189.339 336.778 188.297 345.69 188.297C346.726 188.297 347.723 188.427 348.751 188.45C354.941 188.604 361 189.224 366.929 190.29C367.374 193.816 367.642 197.396 367.849 200.991C368.026 204.034 368.31 207.047 368.31 210.136C368.31 210.726 368.225 211.293 368.218 211.884C363.93 210.879 359.558 210.105 355.071 209.684ZM65.0328 273.867C65.2782 273.767 65.5467 273.721 65.7998 273.629C69.8112 272.157 74.0912 271.23 78.6166 271.23C84.5149 271.23 90.022 272.725 94.9846 275.162C107.349 281.241 115.939 293.828 115.939 308.53C115.939 310.477 115.656 312.348 115.364 314.21C114.382 320.565 111.821 326.33 108.062 331.197C90.697 316.579 76.6146 298.266 66.7969 277.539C66.2216 276.305 65.585 275.109 65.0328 273.867ZM132.031 331.665C133.535 328.208 134.716 324.574 135.529 320.803C136.388 316.84 136.863 312.739 136.863 308.523C136.863 308.07 136.81 307.633 136.794 307.189C136.373 288.546 127.145 272.081 113.101 261.725C109.466 259.042 105.554 256.727 101.343 254.941C97.8456 253.454 94.1792 252.296 90.3672 251.514C86.5705 250.732 82.6357 250.318 78.6166 250.318C73.0327 250.318 67.6483 251.154 62.5323 252.626C60.9522 253.078 59.4106 253.615 57.8842 254.197C56.9101 250.847 56.0127 247.459 55.261 244.017C54.5093 240.583 53.9724 237.088 53.4509 233.577C56.3655 232.596 59.3262 231.737 62.3789 231.093C67.6253 229.997 73.048 229.407 78.6166 229.407C82.5973 229.407 86.4861 229.798 90.3135 230.365C93.8418 230.894 97.301 231.607 100.66 232.588C104.196 233.615 107.617 234.88 110.931 236.367C118.524 239.778 125.466 244.362 131.571 249.874C145.4 262.353 154.819 279.585 157.159 299.01C157.534 302.13 157.788 305.295 157.788 308.515C157.788 313.72 157.251 318.802 156.284 323.731C155.579 327.341 154.581 330.837 153.4 334.248C152.25 337.582 150.877 340.81 149.312 343.93C147.609 347.318 145.699 350.576 143.544 353.657C140.33 352.17 137.109 350.698 134.018 349.004C130.934 347.318 127.981 345.424 125.028 343.539C127.797 339.898 130.175 335.927 132.031 331.665ZM167.506 352.676C169.055 349.571 170.436 346.383 171.655 343.102C172.875 339.844 173.918 336.509 174.785 333.098C176.48 326.475 177.5 319.599 177.784 312.524C177.837 311.19 177.983 309.872 177.983 308.523C177.983 305.939 177.791 303.402 177.592 300.872C177.231 296.212 176.587 291.636 175.605 287.174C171.801 269.889 163.448 254.335 151.912 241.702C148.791 238.284 145.508 235.01 141.941 232.052C138.927 229.553 135.728 227.284 132.43 225.153C126.647 221.412 120.442 218.284 113.922 215.793C110.67 214.551 107.341 213.493 103.943 212.589C100.599 211.707 97.1859 211.002 93.7114 210.466C88.7718 209.707 83.7555 209.193 78.6012 209.193C73.9685 209.193 69.4431 209.622 64.9791 210.236C60.4307 210.864 55.982 211.776 51.6484 213.003C51.633 212.029 51.5026 211.094 51.5026 210.121C51.5026 207.43 51.7711 204.801 51.9092 202.141C52.0932 198.446 52.3157 194.774 52.7529 191.148C58.7969 189.822 65.0251 189.025 71.3759 188.642C73.7844 188.496 76.1698 188.274 78.6089 188.274C86.2023 188.274 93.604 189.063 100.806 190.413C104.327 191.072 107.778 191.915 111.184 192.873C114.597 193.831 117.934 194.958 121.209 196.208C127.552 198.622 133.627 201.535 139.41 204.939C142.44 206.717 145.385 208.611 148.238 210.642C151.153 212.719 153.976 214.896 156.683 217.211C162.812 222.454 168.38 228.311 173.35 234.666C182.37 246.202 189.381 259.371 193.73 273.721C195.839 280.689 197.342 287.925 198.155 295.361C198.102 295.997 198.109 296.649 198.056 297.285C197.795 300.773 197.542 304.261 197.527 307.81C197.527 308.04 197.488 308.262 197.488 308.5C197.488 311.857 197.772 315.138 197.987 318.442C198.056 319.5 198.056 320.58 198.148 321.638C197.519 327.364 196.391 332.937 194.988 338.395C194.106 341.822 193.086 345.194 191.912 348.498C190.708 351.886 189.381 355.198 187.893 358.44C186.696 361.039 185.507 363.63 184.134 366.129C180.468 365.523 176.848 364.826 173.274 363.975C169.715 363.124 166.14 362.311 162.673 361.223C164.43 358.471 166.033 355.619 167.506 352.676ZM360.463 161.169C355.6 160.686 350.684 160.425 345.69 160.425C342.101 160.425 338.58 160.709 335.044 160.962C308.736 119.714 262.669 92.2789 210.098 92.2789C157.611 92.2789 111.606 119.629 85.2742 160.762C83.0499 160.663 80.8562 160.425 78.6089 160.425C71.9819 160.425 65.5006 161.008 59.1037 161.851C79.5907 98.12 139.418 51.8357 209.906 51.8357C280.141 51.8281 339.769 97.7904 360.463 161.169ZM294.178 169.8C290.673 171.103 287.236 172.498 283.861 174.054C265.66 153.856 239.382 141.062 210.098 141.062C181.488 141.062 155.732 153.281 137.584 172.682C134.148 171.188 130.612 169.907 127.046 168.681C123.494 167.454 119.874 166.381 116.2 165.415C138.267 137.866 172.123 120.151 210.098 120.151C248.464 120.151 282.611 138.257 304.655 166.297C301.104 167.324 297.629 168.52 294.178 169.8ZM256.87 190.175C254.04 192.298 251.271 194.491 248.602 196.806C238.324 187.73 224.871 182.172 210.106 182.172C196.338 182.172 183.697 186.994 173.718 194.997C170.98 192.705 168.096 190.589 165.197 188.489C162.298 186.396 159.314 184.426 156.261 182.54C170.405 169.379 189.304 161.253 210.106 161.253C231.705 161.253 251.294 169.961 265.599 184.027C262.6 185.967 259.716 188.036 256.87 190.175ZM212.153 244.631C206.04 231.891 198.178 220.178 188.844 209.776C194.88 205.575 202.19 203.076 210.106 203.076C219.11 203.076 227.264 206.395 233.714 211.707C225.124 221.619 217.891 232.68 212.153 244.631Z" fill="#3F2552">
<animateTransform attributeName="transform" begin="0s" dur="20s" type="rotate" from="-360 210 210" to="0 210 210" repeatCount="indefinite" />
 </path>
</g>
<g filter="url(#filter1_i_2039_2)">
<path fill-rule="evenodd" clip-rule="evenodd" d="M416.003 250.984C418.625 237.729 420 224.025 420 210C420 195.975 418.625 182.271 416.003 169.016L394.721 173.226C397.071 185.102 398.306 197.396 398.306 210C398.306 222.604 397.071 234.898 394.721 246.774L416.003 250.984ZM384.629 326.679L366.602 314.61C352.847 335.155 335.155 352.847 314.61 366.602L326.679 384.629C349.58 369.297 369.297 349.58 384.629 326.679ZM250.984 416.003L246.774 394.721C234.898 397.071 222.604 398.306 210 398.306C197.396 398.306 185.102 397.071 173.226 394.721L169.016 416.003C182.271 418.625 195.975 420 210 420C224.025 420 237.729 418.625 250.984 416.003ZM93.3207 384.629L105.39 366.602C84.8453 352.847 67.1526 335.155 53.3985 314.61L35.3713 326.679C50.703 349.58 70.4199 369.297 93.3207 384.629ZM3.99715 250.984C1.37486 237.729 0 224.025 0 210C0 195.975 1.37486 182.271 3.99715 169.016L25.2789 173.226C22.9295 185.102 21.6942 197.396 21.6942 210C21.6942 222.604 22.9295 234.898 25.2789 246.774L3.99715 250.984ZM35.3712 93.3207L53.3985 105.39C67.1526 84.8453 84.8452 67.1526 105.39 53.3985L93.3207 35.3713C70.4199 50.703 50.7029 70.4199 35.3712 93.3207ZM169.016 3.99715L173.226 25.2789C185.102 22.9295 197.396 21.6942 210 21.6942C222.604 21.6942 234.898 22.9295 246.774 25.2789L250.984 3.99715C237.729 1.37486 224.025 0 210 0C195.975 0 182.271 1.37486 169.016 3.99715ZM326.679 35.3712L314.61 53.3985C335.155 67.1526 352.847 84.8452 366.602 105.39L384.629 93.3207C369.297 70.4199 349.58 50.7029 326.679 35.3712Z" fill="#3F2552"> 
<animateTransform attributeName="transform" begin="0s" dur="20s" type="rotate" from="360 210 210" to="0 210 210" repeatCount="indefinite" />
</path>
</g>
<defs>
<filter id="filter0_i_2039_2" x="36.1777" y="36.4971" width="347.473" height="352.434" filterUnits="userSpaceOnUse" color-interpolation-filters="sRGB">
<feFlood flood-opacity="0" result="BackgroundImageFix"/>
<feBlend mode="normal" in="SourceGraphic" in2="BackgroundImageFix" result="shape"/>
<feColorMatrix in="SourceAlpha" type="matrix" values="0 0 0 0 0 0 0 0 0 0 0 0 0 0 0 0 0 0 127 0" result="hardAlpha"/>
<feOffset dy="5.17155"/>
<feGaussianBlur stdDeviation="6"/>
<feComposite in2="hardAlpha" operator="arithmetic" k2="-1" k3="1"/>
<feColorMatrix type="matrix" values="0 0 0 0 0 0 0 0 0 0 0 0 0 0 0 0 0 0 0.57 0"/>
<feBlend mode="normal" in2="shape" result="effect1_innerShadow_2039_2"/>
</filter>
<filter id="filter1_i_2039_2" x="0" y="0" width="420" height="425.172" filterUnits="userSpaceOnUse" color-interpolation-filters="sRGB">
<feFlood flood-opacity="0" result="BackgroundImageFix"/>
<feBlend mode="normal" in="SourceGraphic" in2="BackgroundImageFix" result="shape"/>
<feColorMatrix in="SourceAlpha" type="matrix" values="0 0 0 0 0 0 0 0 0 0 0 0 0 0 0 0 0 0 127 0" result="hardAlpha"/>
<feOffset dy="5.17155"/>
<feGaussianBlur stdDeviation="4.5"/>
<feComposite in2="hardAlpha" operator="arithmetic" k2="-1" k3="1"/>
<feColorMatrix type="matrix" values="0 0 0 0 0 0 0 0 0 0 0 0 0 0 0 0 0 0 0.46 0"/>
<feBlend mode="normal" in2="shape" result="effect1_innerShadow_2039_2"/>
</filter>
</defs>
</svg>
