<svg width="24" height="24" viewBox="0 0 24 24" fill="none" xmlns="http://www.w3.org/2000/svg">
<path d="M12 2C-1.33333 2.23858 -1.33333 21.7682 12 22C25.3333 21.7614 25.3333 2.23177 12 2ZM21.055 13.8746C21.0135 14.0723 20.9581 14.2631 20.9027 14.4608C17.8844 13.5337 15.3022 17.0375 17.1367 19.5801C16.7975 19.7982 16.4375 19.9959 16.0706 20.18C13.7238 16.7307 17.0952 12.15 21.145 13.2815C21.1173 13.4792 21.0966 13.6769 21.055 13.8746ZM20.4043 15.7832C19.8574 16.9557 19.0682 17.9918 18.099 18.8303C16.9983 17.242 18.6251 15.0334 20.4943 15.5992C20.4666 15.6605 20.432 15.7219 20.4043 15.7832ZM20.4804 11.9727C15.8075 11.4819 12.4846 16.7035 14.9699 20.623C14.5684 20.7526 14.1599 20.8616 13.7445 20.9434C10.9547 15.9127 15.4476 9.79823 21.1658 10.8548C21.2073 11.2638 21.2489 11.6864 21.242 12.0954C20.9927 12.0409 20.7366 12 20.4804 11.9727ZM3.54033 15.6742C5.52717 14.863 7.4171 17.3102 6.05331 18.9734C4.97335 18.0804 4.12184 16.9421 3.54033 15.6742ZM7.45171 19.0007C8.68397 16.3558 5.83178 13.4383 3.11803 14.5358C3.00035 14.1472 2.91727 13.7519 2.86189 13.3497C7.01558 11.9455 10.6639 16.7171 8.12323 20.2686C7.74247 20.105 7.38248 19.9073 7.04327 19.6892C7.20249 19.471 7.34095 19.2461 7.45171 19.0007ZM9.52163 20.2072C11.7785 15.8446 7.52094 10.7866 2.75805 12.1636C2.73728 11.7478 2.78574 11.3183 2.82035 10.9025C8.70474 9.63463 13.3223 15.79 10.4908 20.9775C10.0685 20.9093 9.64624 20.8139 9.2378 20.698C9.34164 20.5412 9.43856 20.3776 9.52163 20.2072ZM20.792 9.17791C20.3074 9.1302 19.7951 9.12338 19.3105 9.16428C16.3268 3.99046 7.7217 3.99046 4.72413 9.15065C4.21876 9.10975 3.69263 9.15065 3.19419 9.212C5.64486 0.936605 18.3067 0.909339 20.792 9.17791ZM16.9221 9.67553C16.7144 9.75051 16.5137 9.83231 16.3198 9.92093C14.2707 7.46012 9.8747 7.41922 7.77709 9.83913C7.37556 9.66871 6.95327 9.53238 6.53098 9.42331C9.06473 5.98773 15.0391 6.015 17.5382 9.47103C17.3236 9.53238 17.1229 9.60054 16.9221 9.67553ZM14.7414 10.848C14.5753 10.9707 14.4161 11.0934 14.2568 11.2297C13.1215 10.1663 11.0723 10.1118 9.88162 11.1275C9.55625 10.8684 9.21703 10.6299 8.86397 10.4117C10.5185 8.76892 13.6476 8.80982 15.2468 10.5003C15.0737 10.6094 14.9076 10.7253 14.7414 10.848ZM12.1315 13.9905C11.7715 13.2543 11.3146 12.5794 10.7677 11.9864C11.5085 11.4342 12.6992 11.4888 13.3915 12.0954C12.8861 12.6612 12.4638 13.302 12.1315 13.9905Z" fill="white" stroke="white" stroke-width="0.0500119" stroke-miterlimit="10"/>
</svg>
