<svg width="11" height="15" viewBox="0 0 11 15" fill="none" xmlns="http://www.w3.org/2000/svg">
<g clip-path="url(#clip0_958_5)">
<path d="M9.15714 13.2917C8.23333 14.2083 7.31429 14.6667 6.4 14.6667C6.93333 14.151 7.29524 13.6283 7.48571 13.0983C7.67619 12.5684 7.77143 11.8689 7.77143 11C7.77143 10.599 7.60238 10.0189 7.26429 9.25977C6.92619 8.50065 6.58571 7.82986 6.24286 7.2474C5.9 6.66493 5.72857 6.38802 5.72857 6.41667C5.70952 6.51215 5.68333 6.63628 5.65 6.78906C5.61667 6.94184 5.53095 7.23307 5.39286 7.66276C5.25476 8.09245 5.1 8.49349 4.92857 8.86589C4.75714 9.23828 4.51667 9.62977 4.20714 10.0404C3.89762 10.451 3.56191 10.7708 3.2 11C2.90476 11.191 2.74762 11.5085 2.72857 11.9525C2.70952 12.3965 2.79048 12.8548 2.97143 13.3275C3.15238 13.8001 3.38095 14.2465 3.65714 14.6667C3.14286 14.6667 2.30476 14.1128 1.14286 13.0052C0.752381 12.6424 0.464286 12.2318 0.278571 11.7734C0.0928571 11.3151 0 10.9045 0 10.5417C0 9.93056 0.169048 9.29319 0.507143 8.62956C0.845238 7.96593 1.3 7.38108 1.87143 6.875C2.35714 6.43576 2.75 5.97266 3.05 5.48568C3.35 4.9987 3.54286 4.53798 3.62857 4.10352C3.71429 3.66905 3.75 3.24175 3.73571 2.82161C3.72143 2.40148 3.65714 2.02431 3.54286 1.6901C3.42857 1.3559 3.31429 1.0599 3.2 0.802083C3.08571 0.544271 2.98095 0.348524 2.88571 0.214844L2.74286 0C2.86667 0.0477431 3.03095 0.119358 3.23571 0.214844C3.44048 0.31033 3.83571 0.520399 4.42143 0.845052C5.00714 1.1697 5.56191 1.50868 6.08571 1.86198C6.60952 2.21528 7.18095 2.67122 7.8 3.22982C8.41905 3.78841 8.92857 4.35894 9.32857 4.94141C9.88095 5.74349 10.3024 6.6148 10.5929 7.55534C10.8833 8.49588 11.0143 9.33854 10.9857 10.0833C10.9667 10.4653 10.8286 10.895 10.5714 11.3724C10.3143 11.8498 10.0667 12.2342 9.82857 12.5254C9.59048 12.8166 9.36667 13.072 9.15714 13.2917Z" fill="url(#paint0_linear_958_5)"/>
</g>
<defs>
<linearGradient id="paint0_linear_958_5" x1="5.49478" y1="0" x2="5.49478" y2="14.6667" gradientUnits="userSpaceOnUse">
<stop stop-color="#FF6C6C"/>
<stop offset="1" stop-color="#F3B367"/>
</linearGradient>
<clipPath id="clip0_958_5">
<rect width="11" height="14.6667" fill="white"/>
</clipPath>
</defs>
</svg>
