<svg width="3167" height="512" viewBox="0 0 3167 512" fill="none" xmlns="http://www.w3.org/2000/svg">
<g filter="url(#filter0_i_2044_48)">
<path d="M125.039 125.856C74.3915 125.856 33.1855 167.062 33.1855 217.71C33.1855 268.359 74.3915 309.565 125.039 309.565C175.687 309.565 216.893 268.359 216.893 217.71C216.893 167.062 175.687 125.856 125.039 125.856ZM125.039 289.524C85.4415 289.524 53.2255 257.308 53.2255 217.709C53.2255 178.111 85.4415 145.895 125.039 145.895C164.637 145.895 196.853 178.111 196.853 217.709C196.853 257.309 164.637 289.524 125.039 289.524Z" fill="#241334"/>
<path d="M250.059 217.709C250.059 194.9 243.857 172.577 232.121 153.151C229.26 148.414 223.1 146.895 218.363 149.755C213.626 152.617 212.106 158.776 214.967 163.513C224.814 179.813 230.018 198.553 230.018 217.709C230.018 275.596 182.925 322.69 125.031 322.69C67.1485 322.681 20.0585 275.587 20.0585 217.709C20.0585 159.931 66.9755 112.91 124.713 112.734C124.822 112.737 124.929 112.75 125.04 112.75C125.141 112.75 125.24 112.738 125.341 112.735C145.173 112.791 164.457 118.393 181.13 128.954C185.807 131.917 191.995 130.525 194.957 125.85C197.918 121.176 196.528 114.984 191.853 112.023C174.707 101.162 155.247 94.713 135.059 93.103V73.436C150.831 69.042 162.442 54.559 162.442 37.406C162.442 16.781 145.661 0 125.036 0C104.412 0 87.6305 16.781 87.6305 37.406C87.6305 54.561 99.2435 69.046 115.019 73.438V93.092C50.7505 98.212 0.0195312 152.146 0.0195312 217.709C0.0195312 283.259 50.7415 337.19 115.01 342.326V358.333C104.266 362.4 96.6025 372.791 96.6025 384.935C96.6025 394.006 100.881 402.092 107.519 407.301L96.3115 419.168C94.5545 421.028 93.5775 423.49 93.5775 426.048V501.979C93.5775 507.512 98.0635 511.999 103.598 511.999H146.484C152.016 511.999 156.503 507.512 156.503 501.979V426.048C156.503 423.489 155.525 421.028 153.77 419.168L142.559 407.298C149.193 402.09 153.468 394.004 153.468 384.935C153.468 372.779 145.801 362.384 135.051 358.324V342.329C199.323 337.213 250.059 283.277 250.059 217.709ZM107.672 37.406C107.672 27.83 115.462 20.04 125.038 20.04C134.613 20.04 142.403 27.83 142.403 37.406C142.403 46.981 134.613 54.771 125.038 54.771C115.462 54.771 107.672 46.981 107.672 37.406ZM125.04 376.539C129.664 376.539 133.426 380.306 133.426 384.936C133.426 389.56 129.664 393.323 125.04 393.323C120.41 393.323 116.643 389.56 116.643 384.936C116.643 380.31 120.41 376.544 125.04 376.539ZM136.463 430.032V491.96H113.617V430.032L125.04 417.937L136.463 430.032Z" fill="#241334"/>
<path d="M148.906 183.812H101.17C95.6364 183.812 91.1504 188.299 91.1504 193.832V241.577C91.1504 247.11 95.6364 251.597 101.17 251.597H148.906C154.439 251.597 158.926 247.11 158.926 241.577V193.832C158.926 188.299 154.44 183.812 148.906 183.812ZM138.886 231.558H111.19V203.853H138.886V231.558Z" fill="#241334"/>
<path d="M207.539 126.925C194.644 126.925 194.623 146.965 207.539 146.965C220.434 146.966 220.456 126.925 207.539 126.925Z" fill="#241334"/>
</g>
<g filter="url(#filter1_i_2044_48)">
<path d="M3042.02 125.856C2991.37 125.856 2950.17 167.062 2950.17 217.71C2950.17 268.359 2991.37 309.565 3042.02 309.565C3092.67 309.565 3133.87 268.359 3133.87 217.71C3133.87 167.062 3092.67 125.856 3042.02 125.856ZM3042.02 289.524C3002.42 289.524 2970.21 257.308 2970.21 217.709C2970.21 178.111 3002.42 145.895 3042.02 145.895C3081.62 145.895 3113.83 178.111 3113.83 217.709C3113.83 257.309 3081.62 289.524 3042.02 289.524Z" fill="#241334"/>
<path d="M3167.04 217.709C3167.04 194.9 3160.84 172.577 3149.1 153.151C3146.24 148.414 3140.08 146.895 3135.34 149.755C3130.61 152.617 3129.09 158.776 3131.95 163.513C3141.8 179.813 3147 198.553 3147 217.709C3147 275.596 3099.91 322.69 3042.01 322.69C2984.13 322.681 2937.04 275.587 2937.04 217.709C2937.04 159.931 2983.96 112.91 3041.69 112.734C3041.8 112.737 3041.91 112.75 3042.02 112.75C3042.12 112.75 3042.22 112.738 3042.32 112.735C3062.15 112.791 3081.44 118.393 3098.11 128.954C3102.79 131.917 3108.98 130.525 3111.94 125.85C3114.9 121.176 3113.51 114.984 3108.83 112.023C3091.69 101.162 3072.23 94.713 3052.04 93.103V73.436C3067.81 69.042 3079.42 54.559 3079.42 37.406C3079.42 16.781 3062.64 0 3042.02 0C3021.39 0 3004.61 16.781 3004.61 37.406C3004.61 54.561 3016.22 69.046 3032 73.438V93.092C2967.73 98.212 2917 152.146 2917 217.709C2917 283.259 2967.72 337.19 3031.99 342.326V358.333C3021.25 362.4 3013.58 372.791 3013.58 384.935C3013.58 394.006 3017.86 402.092 3024.5 407.301L3013.29 419.168C3011.54 421.028 3010.56 423.49 3010.56 426.048V501.979C3010.56 507.512 3015.04 511.999 3020.58 511.999H3063.46C3069 511.999 3073.48 507.512 3073.48 501.979V426.048C3073.48 423.489 3072.51 421.028 3070.75 419.168L3059.54 407.298C3066.17 402.09 3070.45 394.004 3070.45 384.935C3070.45 372.779 3062.78 362.384 3052.03 358.324V342.329C3116.3 337.213 3167.04 283.277 3167.04 217.709ZM3024.65 37.406C3024.65 27.83 3032.44 20.04 3042.02 20.04C3051.59 20.04 3059.38 27.83 3059.38 37.406C3059.38 46.981 3051.59 54.771 3042.02 54.771C3032.44 54.771 3024.65 46.981 3024.65 37.406ZM3042.02 376.539C3046.64 376.539 3050.41 380.306 3050.41 384.936C3050.41 389.56 3046.64 393.323 3042.02 393.323C3037.39 393.323 3033.62 389.56 3033.62 384.936C3033.62 380.31 3037.39 376.544 3042.02 376.539ZM3053.44 430.032V491.96H3030.6V430.032L3042.02 417.937L3053.44 430.032Z" fill="#241334"/>
<path d="M3065.89 183.812H3018.15C3012.62 183.812 3008.13 188.299 3008.13 193.832V241.577C3008.13 247.11 3012.62 251.597 3018.15 251.597H3065.89C3071.42 251.597 3075.91 247.11 3075.91 241.577V193.832C3075.91 188.299 3071.42 183.812 3065.89 183.812ZM3055.87 231.558H3028.17V203.853H3055.87V231.558Z" fill="#241334"/>
<path d="M3124.52 126.925C3111.62 126.925 3111.6 146.965 3124.52 146.965C3137.41 146.966 3137.44 126.925 3124.52 126.925Z" fill="#241334"/>
</g>
<defs>
<filter id="filter0_i_2044_48" x="0.0195312" y="0" width="250.039" height="515.999" filterUnits="userSpaceOnUse" color-interpolation-filters="sRGB">
<feFlood flood-opacity="0" result="BackgroundImageFix"/>
<feBlend mode="normal" in="SourceGraphic" in2="BackgroundImageFix" result="shape"/>
<feColorMatrix in="SourceAlpha" type="matrix" values="0 0 0 0 0 0 0 0 0 0 0 0 0 0 0 0 0 0 127 0" result="hardAlpha"/>
<feOffset dy="7"/>
<feGaussianBlur stdDeviation="2"/>
<feComposite in2="hardAlpha" operator="arithmetic" k2="-1" k3="1"/>
<feColorMatrix type="matrix" values="0 0 0 0 0 0 0 0 0 0 0 0 0 0 0 0 0 0 0.39 0"/>
<feBlend mode="normal" in2="shape" result="effect1_innerShadow_2044_48"/>
</filter>
<filter id="filter1_i_2044_48" x="2917" y="0" width="250.04" height="515.999" filterUnits="userSpaceOnUse" color-interpolation-filters="sRGB">
<feFlood flood-opacity="0" result="BackgroundImageFix"/>
<feBlend mode="normal" in="SourceGraphic" in2="BackgroundImageFix" result="shape"/>
<feColorMatrix in="SourceAlpha" type="matrix" values="0 0 0 0 0 0 0 0 0 0 0 0 0 0 0 0 0 0 127 0" result="hardAlpha"/>
<feOffset dy="7"/>
<feGaussianBlur stdDeviation="2"/>
<feComposite in2="hardAlpha" operator="arithmetic" k2="-1" k3="1"/>
<feColorMatrix type="matrix" values="0 0 0 0 0 0 0 0 0 0 0 0 0 0 0 0 0 0 0.39 0"/>
<feBlend mode="normal" in2="shape" result="effect1_innerShadow_2044_48"/>
</filter>
</defs>
</svg>
