<svg width="17" height="15" viewBox="0 0 17 15" fill="none" xmlns="http://www.w3.org/2000/svg">
<path d="M17 2.02509C16.4051 2.30501 15.7661 2.49414 15.0943 2.57963C15.7875 2.13917 16.3061 1.44594 16.5533 0.629291C15.902 1.04008 15.1893 1.32923 14.446 1.48417C13.9461 0.917428 13.284 0.54178 12.5626 0.415552C11.8411 0.289323 11.1005 0.419574 10.4559 0.786084C9.81121 1.15259 9.29855 1.73486 8.99747 2.44247C8.69638 3.15009 8.62372 3.94347 8.79075 4.69943C7.47112 4.62907 6.18017 4.26484 5.00168 3.63038C3.82319 2.99592 2.78349 2.10541 1.95007 1.01664C1.6651 1.53864 1.50124 2.14387 1.50124 2.78843C1.50093 3.36869 1.63549 3.94006 1.89299 4.45184C2.15049 4.96363 2.52297 5.40001 2.97738 5.72226C2.45039 5.70445 1.93502 5.55324 1.47417 5.2812V5.32659C1.47412 6.14043 1.73922 6.92921 2.22448 7.55911C2.70975 8.18902 3.3853 8.62123 4.1365 8.78243C3.64762 8.92293 3.13507 8.94362 2.63756 8.84295C2.8495 9.54321 3.26235 10.1556 3.8183 10.5943C4.37426 11.033 5.04549 11.2761 5.73802 11.2896C4.56241 12.2696 3.11053 12.8012 1.61594 12.7989C1.35119 12.7989 1.08667 12.7825 0.82373 12.7497C2.34082 13.7855 4.10682 14.3352 5.91043 14.3331C12.0159 14.3331 15.3536 8.96324 15.3536 4.30603C15.3536 4.15473 15.35 4.00191 15.3436 3.8506C15.9928 3.35203 16.5532 2.73464 16.9986 2.02736L17 2.02509V2.02509Z" fill="white"/>
</svg>
