<svg width="29" height="29" viewBox="0 0 29 29" fill="none" xmlns="http://www.w3.org/2000/svg">
<path d="M17.7024 25.5651L25.4839 18.44C25.8803 18.0294 26.089 17.3723 25.9638 16.8385L23.7315 7.31111C23.6064 6.79779 23.1265 6.26394 22.5841 6.12024L12.4243 3.04022C11.8281 2.92405 11.2282 3.06119 10.797 3.43032L3.51609 10.1036C3.11969 10.4527 2.91102 11.1508 3.03626 11.6436L5.41456 21.8485C5.53971 22.3619 6.01954 22.8958 6.56199 23.0395L16.0751 25.9552C16.8319 26.0966 17.3109 25.8862 17.7024 25.5651V25.5651ZM13.4882 5.29889L20.477 7.41381C20.7482 7.49592 20.7482 7.6191 20.477 7.68073L16.8053 8.50199C16.5341 8.58411 16.1377 8.46093 15.95 8.2556L13.4047 5.54524C13.1752 5.31937 13.2169 5.21668 13.4881 5.29884L13.4882 5.29889ZM17.8484 17.6187C17.9319 17.8857 17.7441 18.0499 17.4729 17.9678L9.94163 15.6681C9.67043 15.5859 9.60785 15.3601 9.81643 15.1753L15.5744 9.8983C15.783 9.69296 16.0125 9.77508 16.0751 10.042L17.8484 17.6187V17.6187ZM5.43546 10.9044L11.548 5.29889C11.7566 5.09355 12.0696 5.13461 12.2782 5.31941L15.3449 8.58415C15.5535 8.78949 15.5118 9.09752 15.3241 9.30281L9.21141 14.9084C9.00282 15.1137 8.68986 15.0726 8.48123 14.8879L5.41451 11.6231C5.20589 11.3972 5.22674 11.0687 5.43537 10.9044H5.43546ZM6.91668 19.7747L5.31022 12.7935C5.22679 12.5266 5.35194 12.465 5.53971 12.6703L8.08488 15.3807C8.29351 15.586 8.35613 15.9761 8.29351 16.2431L7.18783 19.7748C7.10435 20.0622 6.97921 20.0622 6.91663 19.7748L6.91668 19.7747ZM15.8666 23.8813L7.87634 21.4379C7.60509 21.3557 7.43818 21.0683 7.5217 20.7808L8.85686 16.551C8.94029 16.2841 9.23236 16.1198 9.52442 16.202L17.5146 18.6249C17.7858 18.707 17.9528 18.9944 17.8693 19.2819L16.5341 23.5118C16.4298 23.7786 16.1586 23.9429 15.8665 23.8813H15.8666ZM22.9596 18.1525L17.6189 23.0395C17.4103 23.2448 17.306 23.1627 17.3894 22.8957L18.4951 19.364C18.5786 19.0971 18.8706 18.8097 19.1627 18.7686L22.8345 17.9473C23.1057 17.8446 23.1474 17.9678 22.9596 18.1526V18.1525ZM23.5437 17.0848L19.1418 18.0704C18.8706 18.1525 18.5786 17.9677 18.516 17.7008L16.6384 9.69291C16.5549 9.42599 16.7427 9.13853 17.0139 9.0769L21.4158 8.09132C21.687 8.0092 21.9791 8.19401 22.0417 8.46093L23.9193 16.4688C23.9819 16.7768 23.815 17.0437 23.5437 17.0848Z" fill="url(#paint0_linear_1962_1233)"/>
<defs>
<linearGradient id="paint0_linear_1962_1233" x1="6.5" y1="6.5" x2="18.5" y2="26" gradientUnits="userSpaceOnUse">
<stop stop-color="#6500B4"/>
<stop offset="1" stop-color="#B02FFF"/>
</linearGradient>
</defs>
</svg>
