<svg width="30" height="30" viewBox="0 0 30 30" fill="none" xmlns="http://www.w3.org/2000/svg">
<path d="M17.107 4.26032L17.107 4.26034C17.7194 4.98305 18.6875 5.29764 19.6078 5.07287L19.6078 5.07286L21.0544 4.71947C21.9548 4.49953 22.8371 5.14062 22.9062 6.06488L23.0171 7.54991L23.0171 7.54995C23.0877 8.49452 23.6861 9.31812 24.5626 9.67714L24.7521 9.21445L24.5626 9.67714L25.9407 10.2416L25.9407 10.2416C26.7984 10.5928 27.1355 11.6301 26.6481 12.4185L27.0733 12.6814L26.648 12.4185L25.8649 13.6851L25.8649 13.6851C25.3668 14.4908 25.3668 15.5088 25.8649 16.3145L25.8649 16.3146L26.648 17.5812L27.0733 17.3182L26.6481 17.5812C27.1355 18.3695 26.7984 19.4068 25.9407 19.758L25.9407 19.758L24.5626 20.3225C23.6861 20.6815 23.0877 21.5051 23.0171 22.4496L23.0171 22.4497L22.9062 23.9347C22.8371 24.859 21.9548 25.5001 21.0544 25.2802L19.6078 24.9268C19.6078 24.9268 19.6078 24.9268 19.6078 24.9268C18.6875 24.7019 17.7194 25.0166 17.107 25.7393L17.107 25.7393L16.1444 26.8755C16.1444 26.8755 16.1444 26.8755 16.1444 26.8755C15.5452 27.5827 14.4546 27.5827 13.8554 26.8755C13.8554 26.8755 13.8554 26.8755 13.8554 26.8755L12.8928 25.7393L12.8928 25.7393C12.2805 25.0166 11.3123 24.7019 10.392 24.9268L8.94547 25.2802C8.0451 25.5001 7.16272 24.859 7.09366 23.9348L6.98272 22.4497L6.48411 22.4869L6.98272 22.4497C6.91215 21.5051 6.31377 20.6815 5.43719 20.3225L4.05914 19.758L4.0591 19.758C3.20146 19.4068 2.86439 18.3695 3.3518 17.5812L4.13493 16.3146L4.13494 16.3145C4.63307 15.5088 4.63307 14.4908 4.13494 13.6851L4.13493 13.6851L3.3518 12.4185C2.8644 11.6301 3.20145 10.5928 4.05911 10.2416L4.05912 10.2416L5.4372 9.67714C5.4372 9.67714 5.4372 9.67714 5.4372 9.67714C6.31378 9.31812 6.91215 8.49453 6.98272 7.54993L6.98272 7.54992L7.09366 6.06487C7.09366 6.06487 7.09366 6.06486 7.09366 6.06486C7.16272 5.14062 8.0451 4.49954 8.94545 4.71947L10.3921 5.07286L10.3921 5.07287C11.3123 5.29764 12.2804 4.98305 12.8928 4.26034L12.8928 4.26032L13.8554 3.12412C13.8554 3.12412 13.8554 3.12411 13.8554 3.1241C14.4546 2.41697 15.5452 2.41697 16.1444 3.1241C16.1444 3.12411 16.1444 3.12412 16.1444 3.12412L17.107 4.26032Z" fill="white" stroke="white"/>
<path d="M13.5 17.625L10.875 15L10 15.875L13.5 19.375L21 11.875L20.125 11L13.5 17.625Z" fill="#2B1B39" stroke="#2A1B39" stroke-linejoin="round"/>
</svg>
