<svg width="45" height="45" viewBox="0 0 45 45" fill="none" xmlns="http://www.w3.org/2000/svg">
<path d="M31.281 17.4645L31.281 17.4646C31.813 18.0923 32.6539 18.3656 33.4533 18.1704L33.4533 18.1704L34.6624 17.875C34.6624 17.875 34.6624 17.875 34.6624 17.875C35.3657 17.7032 36.055 18.204 36.1089 18.9259L36.2016 20.1671L36.2016 20.1672C36.263 20.9877 36.7827 21.7031 37.5441 22.015L37.7336 21.5523L37.5441 22.015L38.696 22.4868L38.696 22.4868C39.366 22.7611 39.6292 23.5714 39.2485 24.1871L39.6738 24.4501L39.2485 24.1872L38.594 25.2458L38.5939 25.2458C38.1613 25.9457 38.1613 26.83 38.5939 27.5299L38.594 27.53L39.2485 28.5886L39.6738 28.3257L39.2485 28.5886C39.6292 29.2044 39.366 30.0146 38.696 30.289L38.696 30.289L37.5441 30.7608C37.5441 30.7608 37.5441 30.7608 37.5441 30.7608C36.7827 31.0727 36.263 31.7881 36.2016 32.6086L36.2016 32.6086L36.1089 33.8499C36.055 34.5718 35.3657 35.0726 34.6624 34.9008L33.4534 34.6054C33.4533 34.6054 33.4533 34.6054 33.4533 34.6054C32.6539 34.4101 31.8129 34.6834 31.281 35.3112L31.281 35.3112L30.4764 36.2609C30.0084 36.8133 29.1565 36.8133 28.6885 36.2609C28.6885 36.2609 28.6885 36.2609 28.6884 36.2609L27.8839 35.3112L27.8839 35.3112C27.352 34.6834 26.511 34.4101 25.7115 34.6054L24.5025 34.9008C24.5025 34.9008 24.5024 34.9008 24.5024 34.9008C23.7992 35.0726 23.1099 34.5718 23.056 33.8499L22.9633 32.6086L22.5098 32.6425L22.9633 32.6086C22.902 31.7881 22.3822 31.0727 21.6208 30.7608C21.6207 30.7608 21.6207 30.7608 21.6207 30.7608L20.4689 30.289L20.4689 30.289C19.799 30.0146 19.5357 29.2044 19.9164 28.5886L20.571 27.53L20.571 27.5299C21.0037 26.83 21.0037 25.9457 20.571 25.2458L20.571 25.2458L19.9164 24.1872C19.5357 23.5714 19.799 22.7611 20.4689 22.4868L20.4689 22.4868L21.6207 22.015C21.6207 22.015 21.6207 22.015 21.6207 22.015C22.3822 21.7031 22.902 20.9877 22.9633 20.1672L22.9633 20.1671L23.056 18.9259C23.056 18.9259 23.056 18.9259 23.056 18.9259C23.1099 18.204 23.7992 17.7032 24.5024 17.875L25.7116 18.1704L25.7116 18.1704C26.511 18.3656 27.3519 18.0923 27.8839 17.4646L27.8839 17.4645L28.6884 16.5149C28.6884 16.5149 28.6885 16.5149 28.6885 16.5148C29.1565 15.9625 30.0084 15.9625 30.4764 16.5149L31.281 17.4645Z" stroke="white"/>
<path d="M28.3287 28.5823L26.1347 26.3882L25.4033 27.1196L28.3287 30.045L34.5975 23.7763L33.8661 23.0449L28.3287 28.5823Z" fill="white" stroke="white" stroke-linejoin="round"/>
<path d="M16.2361 11.614L16.2361 11.6139L15.4315 10.6643C14.9635 10.1119 14.1116 10.1119 13.6435 10.6643C13.6435 10.6643 13.6435 10.6643 13.6435 10.6643L12.839 11.6139L12.8389 11.614C12.307 12.2418 11.466 12.515 10.6667 12.3198L10.6667 12.3198L9.45753 12.0244C8.75425 11.8526 8.06502 12.3534 8.01108 13.0753C8.01108 13.0753 8.01108 13.0753 8.01108 13.0753L7.91835 14.3166L7.91835 14.3166C7.85704 15.1371 7.33726 15.8525 6.57581 16.1644C6.57581 16.1644 6.5758 16.1644 6.5758 16.1644L5.42397 16.6362L5.42395 16.6362C4.75403 16.9105 4.49075 17.7208 4.87147 18.3366L5.52603 19.3952L5.52604 19.3952C5.95875 20.0952 5.95875 20.9794 5.52604 21.6794L5.52603 21.6794L4.87147 22.738C4.49075 23.3538 4.75404 24.1641 5.42394 24.4384L5.42399 24.4384L6.5758 24.9102C7.33725 25.2221 7.85704 25.9375 7.91835 26.758L7.41974 26.7953L7.91835 26.758L8.01108 27.9993C8.06501 28.7212 8.75424 29.222 9.45752 29.0502C9.45753 29.0502 9.45754 29.0502 9.45754 29.0502L10.6666 28.7549C11.466 28.5595 12.307 28.8328 12.839 29.4606L12.839 29.4607L13.6435 30.4103C13.6435 30.4103 13.6435 30.4103 13.6435 30.4103C14.1116 30.9627 14.9635 30.9627 15.4315 30.4103L16.2361 29.4607L16.2361 29.4606C16.768 28.8328 17.609 28.5595 18.4084 28.7549C18.4084 28.7549 18.4084 28.7549 18.4084 28.7549M16.2361 11.614L18.2897 29.2406L18.4084 28.7549M16.2361 11.614C16.768 12.2418 17.609 12.515 18.4084 12.3198L18.4084 12.3198L19.6175 12.0244L19.4989 11.5387M16.2361 11.614L19.6175 12.0244M18.4084 28.7549L19.6175 29.0502L18.4084 28.7549ZM21.064 27.9993C21.01 28.7212 20.3208 29.222 19.6175 29.0502L21.6553 26.7953C21.7025 26.1637 22.1026 25.613 22.6887 25.3729M21.064 27.9993L21.064 27.9993L21.5476 28.0354L21.064 27.9993ZM21.064 27.9993L21.1567 26.758L21.1567 26.758C21.218 25.9375 21.7378 25.2221 22.4992 24.9102M22.4992 24.9102L22.4992 24.9102L22.6887 25.3729M22.4992 24.9102L22.6887 25.3729M22.4992 24.9102L23.6511 24.4384L23.6511 24.4384C24.321 24.1641 24.5843 23.3538 24.2036 22.738L24.6289 22.4751M22.6887 25.3729L23.8406 24.9011C24.7964 24.5097 25.1721 23.3536 24.6289 22.4751M24.6289 22.4751L24.2036 22.738L23.549 21.6794L23.549 21.6793C23.1163 20.9794 23.1163 20.0952 23.549 19.3953L23.549 19.3952L24.2036 18.3366L24.6289 18.5995M24.6289 22.4751L23.9743 21.4164C23.6412 20.8777 23.6412 20.1969 23.9743 19.6582L24.6289 18.5995M24.6289 18.5995L24.2036 18.3366C24.5843 17.7208 24.321 16.9105 23.6511 16.6362L23.6511 16.6362L22.4992 16.1644L22.6887 15.7017M24.6289 18.5995C25.1721 17.721 24.7964 16.5649 23.8406 16.1735L22.6887 15.7017M22.6887 15.7017L22.4992 16.1644C21.7378 15.8525 21.218 15.1371 21.1567 14.3166L21.1567 14.3165L21.064 13.0753C21.01 12.3534 20.3208 11.8526 19.6175 12.0244M22.6887 15.7017C22.1026 15.4616 21.7025 14.9109 21.6553 14.2793L21.5626 13.038C21.4856 12.008 20.5023 11.2936 19.4989 11.5387M19.6175 12.0244L10.7853 11.8341C11.4006 11.9844 12.048 11.774 12.4575 11.2907L13.262 10.3411C13.9298 9.55298 15.1453 9.55298 15.813 10.3411L16.6176 11.2907C17.027 11.774 17.6744 11.9844 18.2897 11.8341L19.4989 11.5387M19.6175 12.0244L19.4989 11.5387" fill="white" stroke="white"/>
<path d="M13.2838 22.7317L11.0898 20.5377L10.3584 21.269L13.2838 24.1944L19.5525 17.9257L18.8212 17.1943L13.2838 22.7317Z" fill="#2B1B39" stroke="#2A1B39" stroke-linejoin="round"/>
</svg>
