<svg width="20" height="16" viewBox="0 0 20 16" fill="none" xmlns="http://www.w3.org/2000/svg">
<path d="M18.4 2.90909H2.4C2.18783 2.90909 1.98434 2.83247 1.83431 2.69608C1.68429 2.55969 1.6 2.3747 1.6 2.18182C1.6 1.98893 1.68429 1.80395 1.83431 1.66756C1.98434 1.53117 2.18783 1.45455 2.4 1.45455H16C16.2122 1.45455 16.4157 1.37792 16.5657 1.24153C16.7157 1.10514 16.8 0.920157 16.8 0.727273C16.8 0.534388 16.7157 0.349404 16.5657 0.213013C16.4157 0.0766233 16.2122 0 16 0H2.4C1.7637 0.000649666 1.15367 0.230728 0.703733 0.639757C0.253801 1.04879 0.000714633 1.60336 0 2.18182V13.8182C0.000714633 14.3966 0.253801 14.9512 0.703733 15.3602C1.15367 15.7693 1.7637 15.9994 2.4 16H18.4C18.8242 15.9996 19.2309 15.8462 19.5308 15.5735C19.8308 15.3008 19.9995 14.9311 20 14.5455V4.36364C19.9995 3.978 19.8308 3.60828 19.5308 3.3356C19.2309 3.06291 18.8242 2.90952 18.4 2.90909ZM18.4 14.5455H2.4C2.18791 14.5452 1.98458 14.4685 1.83461 14.3322C1.68464 14.1958 1.60026 14.011 1.6 13.8182V4.239C1.85689 4.32172 2.12747 4.36388 2.4 4.36364H18.4V14.5455ZM13.6 9.45455C13.6 9.23878 13.6704 9.02787 13.8022 8.84847C13.9341 8.66907 14.1215 8.52925 14.3408 8.44668C14.5601 8.36411 14.8013 8.3425 15.0341 8.3846C15.2669 8.42669 15.4807 8.53059 15.6485 8.68316C15.8164 8.83572 15.9306 9.0301 15.9769 9.24172C16.0232 9.45334 15.9995 9.67268 15.9087 9.87202C15.8178 10.0714 15.664 10.2417 15.4667 10.3616C15.2693 10.4815 15.0373 10.5455 14.8 10.5455C14.4817 10.5455 14.1765 10.4305 13.9515 10.2259C13.7264 10.0213 13.6 9.74387 13.6 9.45455Z" fill="white"/>
</svg>
