<svg width="54" height="54" viewBox="0 0 54 54" fill="none" xmlns="http://www.w3.org/2000/svg">
<path d="M24.7496 20.2515C24.7496 19.6548 24.9867 19.0825 25.4086 18.6605C25.8306 18.2385 26.4029 18.0015 26.9996 18.0015C27.5964 18.0015 28.1687 18.2385 28.5906 18.6605C29.0126 19.0825 29.2496 19.6548 29.2496 20.2515V24.7515C29.2496 25.3482 29.0126 25.9205 28.5906 26.3425C28.1687 26.7644 27.5964 27.0015 26.9996 27.0015C26.4029 27.0015 25.8306 26.7644 25.4086 26.3425C24.9867 25.9205 24.7496 25.3482 24.7496 24.7515V20.2515ZM26.9996 30.3765C26.1045 30.3765 25.2461 30.7321 24.6131 31.365C23.9802 31.9979 23.6246 32.8564 23.6246 33.7515C23.6246 34.6466 23.9802 35.505 24.6131 36.138C25.2461 36.7709 26.1045 37.1265 26.9996 37.1265C27.8947 37.1265 28.7532 36.7709 29.3861 36.138C30.019 35.505 30.3746 34.6466 30.3746 33.7515C30.3746 32.8564 30.019 31.9979 29.3861 31.365C28.7532 30.7321 27.8947 30.3765 26.9996 30.3765ZM23.4626 6.56699C23.8168 5.94079 24.3308 5.41984 24.9523 5.05737C25.5737 4.6949 26.2802 4.50391 26.9996 4.50391C27.719 4.50391 28.4256 4.6949 29.047 5.05737C29.6684 5.41984 30.1825 5.94079 30.5366 6.56699L48.9506 38.8275C50.5166 41.5725 48.5501 45.0015 45.4091 45.0015H8.59463C5.45363 45.0015 3.48713 41.5725 5.05313 38.8275L23.4671 6.56249L23.4626 6.56699ZM26.9996 9.53699L9.37313 40.425H44.6261L26.9996 9.53699V9.53699Z" fill="url(#paint0_linear_2026_4)"/>
<defs>
<linearGradient id="paint0_linear_2026_4" x1="46.5" y1="45" x2="0.500003" y2="5" gradientUnits="userSpaceOnUse">
<stop offset="0.00728546" stop-color="#FF00A8"/>
<stop offset="1" stop-color="#800F37"/>
</linearGradient>
</defs>
</svg>
