<svg width="19" height="19" viewBox="0 0 19 19" fill="none" xmlns="http://www.w3.org/2000/svg">
<path fill-rule="evenodd" clip-rule="evenodd" d="M9.5 19C14.7467 19 19 14.7467 19 9.5C19 4.25329 14.7467 0 9.5 0C4.25329 0 0 4.25329 0 9.5C0 14.7467 4.25329 19 9.5 19ZM6.68033 9.29179L5.10135 6.39163H3.75868L5.94992 10.1941L3.75868 13.7494H5.01542L6.62662 10.9782L8.2056 13.7494H9.53752L7.35703 10.1296L9.53752 6.39163H8.28079L6.68033 9.29179ZM11.8303 11.4615H13.3341C14.1647 11.4615 14.7877 11.2396 15.2031 10.7956C15.6256 10.3516 15.8368 9.70712 15.8368 8.86213C15.8368 7.21513 15.0026 6.39163 13.3341 6.39163H10.638V13.7494H11.8303V11.4615ZM13.3233 10.4304H11.8303V7.4228H13.3233C13.7673 7.4228 14.0931 7.53737 14.3008 7.76652C14.5085 7.99567 14.6123 8.36087 14.6123 8.86213C14.6123 9.90763 14.1826 10.4304 13.3233 10.4304Z" fill="#9422E0"/>
</svg>
