<svg width="22" height="22" viewBox="0 0 22 22" fill="none" xmlns="http://www.w3.org/2000/svg">
<path d="M11 1C-2.33333 1.23858 -2.33333 20.7682 11 21C24.3333 20.7614 24.3333 1.23177 11 1ZM20.055 12.8746C20.0135 13.0723 19.9581 13.2631 19.9027 13.4608C16.8844 12.5337 14.3022 16.0375 16.1367 18.5801C15.7975 18.7982 15.4375 18.9959 15.0706 19.18C12.7238 15.7307 16.0952 11.15 20.145 12.2815C20.1173 12.4792 20.0966 12.6769 20.055 12.8746ZM19.4043 14.7832C18.8574 15.9557 18.0682 16.9918 17.099 17.8303C15.9983 16.242 17.6251 14.0334 19.4943 14.5992C19.4666 14.6605 19.432 14.7219 19.4043 14.7832ZM19.4804 10.9727C14.8075 10.4819 11.4846 15.7035 13.9699 19.623C13.5684 19.7526 13.1599 19.8616 12.7445 19.9434C9.95465 14.9127 14.4476 8.79823 20.1658 9.8548C20.2073 10.2638 20.2489 10.6864 20.242 11.0954C19.9927 11.0409 19.7366 11 19.4804 10.9727ZM2.54033 14.6742C4.52717 13.863 6.4171 16.3102 5.05331 17.9734C3.97335 17.0804 3.12184 15.9421 2.54033 14.6742ZM6.45171 18.0007C7.68397 15.3558 4.83178 12.4383 2.11803 13.5358C2.00035 13.1472 1.91727 12.7519 1.86189 12.3497C6.01558 10.9455 9.6639 15.7171 7.12323 19.2686C6.74247 19.105 6.38248 18.9073 6.04327 18.6892C6.20249 18.471 6.34095 18.2461 6.45171 18.0007ZM8.52163 19.2072C10.7785 14.8446 6.52094 9.78664 1.75805 11.1636C1.73728 10.7478 1.78574 10.3183 1.82035 9.90252C7.70474 8.63463 12.3223 14.79 9.49083 19.9775C9.06853 19.9093 8.64624 19.8139 8.2378 19.698C8.34164 19.5412 8.43856 19.3776 8.52163 19.2072ZM19.792 8.17791C19.3074 8.1302 18.7951 8.12338 18.3105 8.16428C15.3268 2.99046 6.7217 2.99046 3.72413 8.15065C3.21876 8.10975 2.69263 8.15065 2.19419 8.212C4.64486 -0.0633945 17.3067 -0.0906612 19.792 8.17791ZM15.9221 8.67553C15.7144 8.75051 15.5137 8.83231 15.3198 8.92093C13.2707 6.46012 8.8747 6.41922 6.77709 8.83913C6.37556 8.66871 5.95327 8.53238 5.53098 8.42331C8.06473 4.98773 14.0391 5.015 16.5382 8.47103C16.3236 8.53238 16.1229 8.60054 15.9221 8.67553ZM13.7414 9.84799C13.5753 9.97069 13.4161 10.0934 13.2568 10.2297C12.1215 9.16633 10.0723 9.11179 8.88162 10.1275C8.55625 9.86844 8.21703 9.62986 7.86397 9.41172C9.51852 7.76892 12.6476 7.80982 14.2468 9.50034C14.0737 9.60941 13.9076 9.72529 13.7414 9.84799ZM11.1315 12.9905C10.7715 12.2543 10.3146 11.5794 9.76774 10.9864C10.5085 10.4342 11.6992 10.4888 12.3915 11.0954C11.8861 11.6612 11.4638 12.302 11.1315 12.9905Z" fill="white" stroke="white" stroke-width="0.0500119" stroke-miterlimit="10"/>
</svg>
