<svg width="501" height="95" viewBox="0 0 501 95" fill="none" xmlns="http://www.w3.org/2000/svg">
<g filter="url(#filter0_i_2041_17)">
<path d="M305.268 77.2101C305.268 77.2101 319.105 -23.2694 474.44 7.99084C474.887 7.54427 492.295 128.566 305.268 77.2101Z" fill="#241334" stroke="#241334" stroke-width="0.654047" stroke-miterlimit="10"/>
<path d="M341.868 9.33203C337.494 11.7955 333.446 14.7959 329.816 18.2636C326.245 21.3896 322.674 25.4087 319.549 28.5347C316.425 31.6608 312.854 36.1265 310.176 39.6991L305.712 45.9512C304.373 47.7375 303.034 49.9704 301.248 52.2033C302.141 49.9704 303.034 47.7375 303.927 45.0581C304.819 42.3786 306.158 40.5923 307.497 37.9129C312.872 28.9747 320.01 21.2253 328.477 15.1375C332.14 11.7194 336.869 9.66911 341.868 9.33203Z" fill="#241334"/>
<path d="M422.66 93.2884C428.196 92.5443 433.603 91.0417 438.729 88.8227C443.811 86.7583 448.611 84.0573 453.013 80.7844C457.446 77.539 461.49 73.7928 465.065 69.62C468.733 65.3482 472.16 60.8755 475.331 56.2227C474.191 62 471.577 67.3842 467.743 71.8529C464.395 76.7659 460.156 81.0072 455.245 84.3569C450.512 87.7668 445.227 90.3351 439.622 91.9488C434.201 93.9566 428.329 94.4203 422.66 93.2884Z" fill="#241334"/>
<g filter="url(#filter1_i_2041_17)">
<path fill-rule="evenodd" clip-rule="evenodd" d="M399.926 6.92285C399.926 6.92285 376.899 39.5272 399.926 84.1003C406.536 71.9978 409.958 58.8336 409.958 45.5116C409.958 32.1896 406.536 19.0253 399.926 6.92285Z" fill="white"/>
</g>
<path d="M196.064 77.2101C196.064 77.2101 182.226 -23.2694 26.891 7.99084C26.4447 7.54427 9.03648 128.566 196.064 77.2101Z" fill="#241334" stroke="#241334" stroke-width="0.654047" stroke-miterlimit="10"/>
<path d="M159.465 9.33203C163.839 11.7955 167.887 14.7959 171.517 18.2636C175.088 21.3896 178.659 25.4087 181.783 28.5347C184.908 31.6608 188.479 36.1265 191.157 39.6991L195.621 45.9512C196.96 47.7375 198.299 49.9704 200.084 52.2033C199.192 49.9704 198.299 47.7375 197.406 45.0581C196.513 42.3786 195.174 40.5923 193.835 37.9129C188.461 28.9747 181.322 21.2253 172.856 15.1375C169.193 11.7194 164.463 9.66911 159.465 9.33203Z" fill="#241334"/>
<path d="M78.6711 93.2884C73.1353 92.5443 67.7282 91.0417 62.6019 88.8227C57.5201 86.7583 52.7206 84.0573 48.3183 80.7844C43.8852 77.539 39.8412 73.7928 36.2665 69.62C32.5987 65.3482 29.1711 60.8755 26 56.2227C27.1406 62 29.7546 67.3842 33.5883 71.8529C36.9364 76.7659 41.1757 81.0072 46.0865 84.3569C50.8194 87.7668 56.1043 90.3351 61.7092 91.9488C67.1305 93.9566 73.0021 94.4203 78.6711 93.2884Z" fill="#241334"/>
<g filter="url(#filter2_i_2041_17)">
<path fill-rule="evenodd" clip-rule="evenodd" d="M101.609 6.92285C101.609 6.92285 78.5826 39.5272 101.609 84.1003C108.219 71.9978 111.641 58.8336 111.641 45.5116C111.641 32.1896 108.219 19.0253 101.609 6.92285Z" fill="white"/>
</g>
</g>
<defs>
<filter id="filter0_i_2041_17" x="25.9531" y="1.63477" width="450.08" height="94.22" filterUnits="userSpaceOnUse" color-interpolation-filters="sRGB">
<feFlood flood-opacity="0" result="BackgroundImageFix"/>
<feBlend mode="normal" in="SourceGraphic" in2="BackgroundImageFix" result="shape"/>
<feColorMatrix in="SourceAlpha" type="matrix" values="0 0 0 0 0 0 0 0 0 0 0 0 0 0 0 0 0 0 127 0" result="hardAlpha"/>
<feOffset dx="0.654047" dy="7.19452"/>
<feGaussianBlur stdDeviation="0.981071"/>
<feComposite in2="hardAlpha" operator="arithmetic" k2="-1" k3="1"/>
<feColorMatrix type="matrix" values="0 0 0 0 0 0 0 0 0 0 0 0 0 0 0 0 0 0 0.25 0"/>
<feBlend mode="normal" in2="shape" result="effect1_innerShadow_2041_17"/>
</filter>
<filter id="filter1_i_2041_17" x="389.691" y="6.92285" width="21.5737" height="78.4858" filterUnits="userSpaceOnUse" color-interpolation-filters="sRGB">
<feFlood flood-opacity="0" result="BackgroundImageFix"/>
<feBlend mode="normal" in="SourceGraphic" in2="BackgroundImageFix" result="shape"/>
<feColorMatrix in="SourceAlpha" type="matrix" values="0 0 0 0 0 0 0 0 0 0 0 0 0 0 0 0 0 0 127 0" result="hardAlpha"/>
<feOffset dx="3.92428" dy="2.61619"/>
<feGaussianBlur stdDeviation="0.654047"/>
<feComposite in2="hardAlpha" operator="arithmetic" k2="-1" k3="1"/>
<feColorMatrix type="matrix" values="0 0 0 0 0 0 0 0 0 0 0 0 0 0 0 0 0 0 0.25 0"/>
<feBlend mode="normal" in2="shape" result="effect1_innerShadow_2041_17"/>
</filter>
<filter id="filter2_i_2041_17" x="90.0669" y="6.92285" width="21.5737" height="78.4858" filterUnits="userSpaceOnUse" color-interpolation-filters="sRGB">
<feFlood flood-opacity="0" result="BackgroundImageFix"/>
<feBlend mode="normal" in="SourceGraphic" in2="BackgroundImageFix" result="shape"/>
<feColorMatrix in="SourceAlpha" type="matrix" values="0 0 0 0 0 0 0 0 0 0 0 0 0 0 0 0 0 0 127 0" result="hardAlpha"/>
<feOffset dx="-4.57833" dy="2.61619"/>
<feGaussianBlur stdDeviation="0.654047"/>
<feComposite in2="hardAlpha" operator="arithmetic" k2="-1" k3="1"/>
<feColorMatrix type="matrix" values="0 0 0 0 0 0 0 0 0 0 0 0 0 0 0 0 0 0 0.25 0"/>
<feBlend mode="normal" in2="shape" result="effect1_innerShadow_2041_17"/>
</filter>
</defs>
</svg>
